<svg width="18" height="17" viewBox="0 0 18 17" xmlns="http://www.w3.org/2000/svg" xmlns:xlink="http://www.w3.org/1999/xlink"><title>Star</title><defs><linearGradient x1="0%" y1="0%" y2="100%" id="a"><stop stop-color="#FD7D57" offset="0%"/><stop stop-color="#FA2471" offset="100%"/></linearGradient><path id="b" d="M798 1850.5l-5.29 2.781 1.01-5.89-4.28-4.172 5.915-.86L798 1837l2.645 5.36 5.915.859-4.28 4.172 1.01 5.89z"/></defs><g transform="translate(-789 -1837)" fill="none" fill-rule="evenodd"><use fill="url(#a)" xlink:href="#b"/><path stroke="url(#a)" d="M793.374 1852.367l.839-4.892.044-.259-.188-.183-3.554-3.465 4.912-.714.26-.038.116-.235 2.197-4.451 2.197 4.45.116.236.26.038 4.912.714-3.554 3.465-.188.183.044.26.839 4.891-4.393-2.31-.233-.122-.233.122-4.393 2.31z"/></g></svg>