<?xml version="1.0" encoding="UTF-8"?>
<svg width="18px" height="17px" viewBox="0 0 18 17" version="1.1" xmlns="http://www.w3.org/2000/svg" xmlns:xlink="http://www.w3.org/1999/xlink">
    <!-- Generator: Sketch 43.2 (39069) - http://www.bohemiancoding.com/sketch -->
    <title>Star</title>
    <desc>Created with Sketch.</desc>
    <defs>
        <linearGradient x1="0%" y1="0%" x2="100%" y2="100%" id="linearGradient-1">
            <stop stop-color="#FD7D57" offset="0%"></stop>
            <stop stop-color="#FA2471" offset="100%"></stop>
        </linearGradient>
        <polygon id="path-2" points="798 1850.5 792.709933 1853.28115 793.720246 1847.39058 789.440491 1843.21885 795.354966 1842.35942 798 1837 800.645034 1842.35942 806.559509 1843.21885 802.279754 1847.39058 803.290067 1853.28115"></polygon>
    </defs>
    <g id="Venue" stroke="none" stroke-width="1" fill="none" fill-rule="evenodd">
        <g id="Venue---Sleeping" transform="translate(-789.000000, -1837.000000)">
            <g id="Star">
                <use fill="url(#linearGradient-1)" fill-rule="evenodd" xlink:href="#path-2"></use>
                <path stroke="url(#linearGradient-1)" stroke-width="1" d="M793.373998,1852.36715 L794.21305,1847.4751 L794.257486,1847.21602 L794.069252,1847.03253 L790.514972,1843.56797 L795.426866,1842.85423 L795.686999,1842.81643 L795.803334,1842.58071 L798,1838.12978 L800.196666,1842.58071 L800.313001,1842.81643 L800.573134,1842.85423 L805.485028,1843.56797 L801.930748,1847.03253 L801.742514,1847.21602 L801.78695,1847.4751 L802.626002,1852.36715 L798.232671,1850.05743 L798,1849.93511 L797.767329,1850.05743 L793.373998,1852.36715 Z"></path>
            </g>
        </g>
    </g>
</svg>