<svg width="90" height="26" viewBox="0 0 90 26" xmlns="http://www.w3.org/2000/svg"><title>adorable</title><path d="M89.417 18.356v-.02a.722.722 0 0 0-.082-.348 1.086 1.086 0 0 0-1.41-.613s-.102.041-.266.164c-.163.102-.347.306-.572.592a25.822 25.822 0 0 1-1.82 2.432c-.203.246-.428.491-.674.757-.245.245-.51.51-.797.756-.551.49-1.205.98-1.92 1.328-.083.041-.185.082-.267.123-.081.04-.183.061-.286.102-.081.02-.184.082-.286.082l-.245.061-.123.041-.184.02c-.122 0-.245.021-.368.021h-.081c-.041 0-.062 0-.102-.02a.726.726 0 0 1-.205-.041c-.266-.103-.552-.307-.817-.634a3.196 3.196 0 0 1-.348-.51c0-.021.02-.021.02-.042 1.002-1.328 1.738-2.78 2.27-4.271.06-.184.142-.368.204-.552.061-.164.122-.368.184-.552.122-.368.224-.756.306-1.124.184-.756.327-1.533.388-2.35a6.89 6.89 0 0 0-.04-1.288c-.041-.225-.082-.47-.164-.715a2.602 2.602 0 0 0-.409-.777 2.104 2.104 0 0 0-.817-.634 1.152 1.152 0 0 0-.245-.081l-.246-.062c-.081-.02-.163-.02-.245-.02h-.47l-.123.02-.224.041-.205.041a2.9 2.9 0 0 0-.736.286 3.84 3.84 0 0 0-1.083.96 6.25 6.25 0 0 0-.654 1.104c-.327.736-.51 1.452-.654 2.167-.143.715-.225 1.39-.286 2.064-.02.368-.04.715-.04 1.063 0 .347.02.695.04 1.022.102 1.206.327 2.35.736 3.433l-.184.184-.102.103-.062.04-.02.02-.184.164c-.511.41-1.083.757-1.635.9l-.205.04c-.06.021-.102.021-.163.021-.04 0-.04.02-.082.02h-.326a1.342 1.342 0 0 1-.573-.245c-.204-.143-.388-.368-.572-.633a7.196 7.196 0 0 1-.246-.41c-.081-.142-.143-.285-.224-.449a6.927 6.927 0 0 1-.348-.98l-.143-.491-.061-.286-.041-.144-.02-.06v-.062c-.062-.368-.144-.736-.184-1.104-.02-.082-.02-.184-.041-.266.102-.245.204-.47.306-.715.43-1.001.818-2.085 1.226-3.188.41-1.124.818-2.269 1.125-3.516.327-1.267.551-2.595.654-4.005.04-.695.06-1.431-.02-2.167-.083-.736-.205-1.512-.553-2.31a3.11 3.11 0 0 0-.347-.613 2.75 2.75 0 0 0-.593-.613c-.082-.04-.143-.102-.225-.143a.933.933 0 0 0-.286-.102c-.102-.02-.204-.061-.327-.061h-.327l-.102.02c-.061.02-.143.041-.204.061-.082.02-.103.041-.164.062l-.122.061c-.082.041-.144.102-.225.164-.062.06-.123.102-.164.163-.204.225-.347.43-.45.634-.122.204-.204.408-.286.592-.163.389-.265.777-.367 1.145-.389 1.512-.552 3.025-.654 4.558a42.686 42.686 0 0 0-.103 2.31c0 .387-.02.776-.02 1.164v1.145c0 1.533.02 3.106.163 4.7.02.287.062.573.103.859a11.07 11.07 0 0 1-.573.98l-.368.553c-.122.184-.245.347-.367.51-.123.164-.246.307-.368.45a8.716 8.716 0 0 1-.43.45l-.06.061c-.021.02.02-.02 0 0l-.021.02-.02.021-.103.082c-.061.061-.143.123-.204.184a3.196 3.196 0 0 1-.41.327c-.06.04-.122.102-.203.143-.062.04-.144.082-.205.123-.122.081-.266.163-.388.245a4.68 4.68 0 0 0-.327.184c.715-1.43 1.103-3.27 1.103-5.028 0-1.942-.654-3.883-1.778-5.314-.899-1.144-2.534-2.493-5.252-2.76V8.138c0-.92.02-1.778.04-2.534.021-.756.021-1.41.042-1.942.02-1.083.02-1.696.02-1.696v-.02c0-.573-.47-1.043-1.042-1.023-.573 0-1.043.47-1.022 1.043 0 0 0 .613.02 1.696 0 .532.02 1.206.041 1.942.02.756.04 1.594.04 2.534v3.025l-.08 7.092v1.613c0 .614 0 1.227-.021 1.8-.041.551-.102 1.103-.266 1.491-.082.184-.164.348-.266.43a.75.75 0 0 1-.368.224c-.163.061-.347.082-.572.102h-.102l-.225-.02c-.184 0-.204-.041-.266-.061-.06 0-.143-.062-.224-.082-.02 0-.041-.02-.062-.02l-.061-.042-.123-.06c-.081-.042-.143-.123-.224-.185a2.237 2.237 0 0 1-.205-.225c-.531-.633-.838-1.635-.9-2.493v-2.922c0-3.7-.02-6.173-.02-6.173v-.49a1.02 1.02 0 0 0-1.124-.94s-.102 0-.286.02-.47.04-.838.102c-.368.061-.817.143-1.328.266-.511.143-1.104.327-1.717.633-.613.307-1.267.736-1.819 1.329-.572.592-1.022 1.349-1.328 2.166a8.662 8.662 0 0 0-.348 1.247c-.082.43-.123.858-.143 1.308-.02.674 0 1.39.082 2.085-.041.102-.062.204-.041.327v.02c0 .204 0 .45-.02.675l-.062.694c-.061.47-.143.92-.266 1.329-.122.409-.286.777-.49 1.042a1.31 1.31 0 0 1-.307.286.903.903 0 0 1-.327.123h-.163l-.184-.02h-.082c-.02 0-.02 0-.04-.02-.021 0-.042-.021-.062-.021l-.082-.041c-.061-.02-.102-.062-.163-.082-.184-.123-.368-.347-.511-.695-.143-.347-.225-.776-.286-1.226-.062-.45-.062-.92-.062-1.39.02-.96.123-1.942.266-2.943.143-.981.307-1.983.49-2.984l.041-.184v-.04l.02-.103.021-.102v-.348c0-.122-.02-.224-.02-.327a2.585 2.585 0 0 0-.49-1.165c-.246-.347-.593-.613-.961-.817-.103-.041-.184-.082-.286-.123a1.702 1.702 0 0 0-.307-.082 41.92 41.92 0 0 0-.45-.081c-.143-.02-.204-.062-.286-.082l-.306-.102-.348-.123-.347-.122-.716-.266-.184-.061a1.312 1.312 0 0 1-.163-.062l-.286-.122-.041-.02a1.152 1.152 0 0 0-1.451.653c-.082.225-.164.43-.266.634-.04.102-.102.204-.143.306-.04.103-.102.205-.163.307-.103.204-.225.388-.348.593a5.233 5.233 0 0 1-.409.531l-.102.123-.102.122c-.061.062-.123.143-.184.205-.797-2.535-2.35-3.189-3.7-3.189-3.29 0-4.761 3.822-4.761 7.603 0 .838.04 1.635.143 2.35v.389c0 .204-.02.51-.062.879-.04.368-.143.797-.306 1.226-.041.102-.102.204-.143.307-.062.081-.102.184-.184.265-.041.041-.061.082-.102.103-.041.02-.062.06-.103.102-.081.04-.143.102-.224.122-.02 0-.041.02-.062.02h-.04c-.021 0-.021 0-.041.021l-.02.02h-.062c-.082 0-.164.021-.245.021h-.123c-.184-.02-.348-.102-.531-.245-.368-.307-.695-.981-.9-1.737l-.122-.573a3.04 3.04 0 0 1-.062-.572c0-.082 0-.204-.02-.327v-1.042c0-.96.02-1.921.02-2.882.02-3.863.062-7.726.082-10.628V3.825c0-.593-.02-1.104-.02-1.533-.02-.838-.062-1.329-.062-1.329a1.05 1.05 0 0 0-.96-.96 1.032 1.032 0 0 0-1.104.96s-.04.49-.061 1.329c0 .429-.02.94-.02 1.533v1.982c0 1.39.02 3.005.04 4.721a4.74 4.74 0 0 0-1.88-.368c-3.393 0-4.905 4.803-4.905 9.565v.389c0 1.349.02 2.861-.573 3.454-.081.082-.306.327-1.021.327-1.922 0-2.33-2.861-2.33-3.413V11.14c0-.02 0-.04-.02-.06 0-.042-.021-.062-.021-.103 0-.04-.02-.061-.02-.102-.021-.041-.021-.062-.042-.102-.02-.02-.02-.062-.04-.082-.02-.02-.041-.061-.062-.082l-.061-.061c-.02-.02-.041-.062-.082-.082l-.061-.061c-.041-.02-.061-.041-.102-.062-.02-.02-.041-.02-.082-.04s-.061-.041-.102-.041c-.02 0-.062-.02-.082-.02-.04 0-.082-.021-.102-.021h-.246C2.82 10.569 0 13.492 0 18.172 0 22.792 2.023 26 4.926 26c.776 0 2.227-.225 3.127-1.676.695.92 1.716 1.615 3.147 1.615 1.042 0 1.88-.307 2.494-.92.224-.225.408-.49.551-.777.716.981 1.799 1.697 3.454 1.697.92 0 1.738-.348 2.371-1.002.225-.225.409-.49.593-.776.204.347.47.674.797.96.45.388 1.042.654 1.635.715l.225.02h.286c.102 0 .184-.02.286-.02h.082l.123-.02.245-.061c.082-.02.163-.041.225-.062l.184-.081c.265-.103.49-.266.694-.41.103-.08.184-.163.287-.265.102-.082.163-.184.224-.265.143-.164.246-.348.348-.511.756 1.144 1.798 1.757 3.086 1.757 2.84 0 4.537-2.963 4.537-7.95 0-.716-.04-1.37-.081-1.942.122-.082.245-.143.347-.225.123-.102.245-.184.368-.286l.327-.306c.123-.103.204-.205.306-.327l.164-.164.143-.163c.204-.225.368-.47.531-.695.164-.246.327-.49.47-.736.082-.123.144-.245.205-.368.04-.061.061-.123.102-.184l.49.143.389.123.388.102.184.061.245.062c.164.04.348.081.45.102l.102.02h.041l.102.02h.082c.02 0 .041 0 .061.021.02 0 .041.02.062.02a.52.52 0 0 1 .204.164.45.45 0 0 1 .102.225v.102l-.02.102v.041l-.041.184a68.629 68.629 0 0 0-.49 3.066 27.188 27.188 0 0 0-.266 3.188c0 .552.02 1.104.082 1.676a6.24 6.24 0 0 0 .429 1.758c.122.306.286.613.51.9.205.285.512.55.839.776.163.102.347.204.531.245.102.04.184.061.286.102l.307.061.163.02h.102l.184.021h.307c.102 0 .184 0 .286-.02.388-.04.777-.204 1.104-.409a2.91 2.91 0 0 0 .817-.756c.266-.347.47-.715.613-1.063.225.327.49.634.777.9.164.163.368.286.572.429l.307.184c.102.06.204.122.327.143.102.04.225.081.327.122.102.041.245.062.368.082l.184.04.102.021h.061c.082 0 .164.02.246.02h.367c.103 0 .205 0 .327-.02.225-.04.43-.06.634-.143.204-.061.409-.163.613-.245.102-.061.184-.102.266-.163a1.31 1.31 0 0 0 .245-.184c.286-.225.511-.511.695-.777.102.163.225.347.368.51.123.144.245.287.388.41.143.122.286.265.47.368l.266.163.123.082c.04.02.102.04.143.061.204.082.368.164.613.225.225.061.49.102.613.102l.225.02h.347c.389-.02.797-.06 1.206-.224a3.017 3.017 0 0 0 1.165-.756 5.05 5.05 0 0 0 .43-.552c.653.899 1.655 1.533 3.106 1.533h.449c.225 0 .552-.02.961-.082.818-.123 2.003-.43 3.311-1.226.164-.103.327-.205.49-.327l.246-.184c.082-.062.163-.123.245-.205.164-.143.327-.266.47-.409.082-.081.164-.143.245-.224l.123-.123.02-.02.02-.02.042-.042.04-.061c.144-.164.266-.307.41-.47.143-.184.306-.368.45-.572.142-.184.265-.389.408-.573.02.082.04.184.061.266.123.409.245.818.43 1.206.081.204.183.409.285.593.123.204.225.388.348.592.266.389.572.756 1.001 1.083.41.327.94.593 1.554.654l.102.02h.45c.04 0 .143 0 .204-.02.143-.02.286-.02.409-.06l.347-.083c.94-.245 1.737-.715 2.412-1.267l.245-.204c.061.082.123.184.204.266a4.137 4.137 0 0 0 1.779 1.287c.184.061.367.102.572.143.102.02.184.02.286.041h.327c.123 0 .266-.02.388-.02l.184-.02.246-.042c.163-.02.327-.06.49-.102.164-.04.286-.082.43-.122.142-.041.285-.082.408-.144.123-.06.245-.122.388-.163 1.002-.47 1.778-1.063 2.432-1.635.348-.286.634-.593.92-.858.266-.287.532-.573.756-.838.94-1.084 1.554-1.983 2.044-2.555.225-.307.348-.572.389-.756.06-.225.06-.348.06-.348zM6.785 20.81c0 3.106-1.41 3.106-1.86 3.106-1.634 0-2.84-2.473-2.84-5.743 0-3.25 1.594-5.191 4.72-5.804v8.359c-.02.02-.02.061-.02.082zM17.7 23.854c-.776 0-2.575 0-2.8-5.191V18.6c.205-3.597 1.39-6.376 2.8-6.376.9 0 1.554.408 1.901.695 0 1.144.02 2.33.02 3.495 0 .96.021 1.941.021 2.881v.45c-.04 1.022-.266 2.923-1.063 3.74a1.157 1.157 0 0 1-.879.368zM29.656 12.47c1.022 0 1.573 1.001 1.86 2.228h-.02l-.144.04-.143.021c-.102.02-.204.04-.307.04l-.306.021h-.082l-.184-.02h-.163c-.02 0-.041-.02-.082-.02-.04 0-.123-.041-.204-.062a.755.755 0 0 1-.225-.102 2.188 2.188 0 0 1-.45-.307c-.082-.06-.143-.143-.225-.204-.061-.082-.143-.143-.204-.225a4.799 4.799 0 0 1-.388-.51c-.041-.062-.082-.144-.123-.205.347-.409.817-.695 1.39-.695zm1.512 9.729c-.654 1.655-1.512 1.655-1.798 1.655-.287 0-1.124 0-1.779-1.655-.408-1.063-.633-2.555-.633-4.21 0-.798.102-1.738.306-2.596.062.081.123.143.205.224.122.103.225.225.347.327.246.205.511.41.818.573.143.081.306.163.47.225.163.06.327.122.531.163l.307.061.082.02h.143l.184.021h.286l.47-.02c.163-.02.306-.041.47-.062l.204-.04c.02.388.02.756.02 1.103.021 1.635-.204 3.127-.633 4.21zm19.641-.818c-.04.307-.102.654-.245 1.001a1.837 1.837 0 0 1-.245.491c-.103.143-.205.286-.348.388-.04.02-.061.062-.102.082-.04.02-.082.04-.102.061-.082.041-.164.082-.266.103-.082.04-.204.04-.306.06h-.327c-.082 0-.164-.02-.246-.02h-.061l-.04-.02-.062-.02c-.041-.02-.082 0-.143-.041-.062-.02-.102-.041-.164-.062a.612.612 0 0 1-.163-.081c-.062-.041-.102-.041-.164-.082-.102-.082-.204-.143-.306-.245-.389-.348-.716-.9-.96-1.513-.246-.613-.39-1.328-.471-2.044a15.535 15.535 0 0 1-.082-2.187c.02-.306.062-.654.123-.98.061-.328.143-.634.245-.9a3.798 3.798 0 0 1 .9-1.43 4.399 4.399 0 0 1 1.246-.9 7.96 7.96 0 0 1 2.289-.695c0 1.002 0 2.923-.02 5.376v2.82c0 .082 0 .164.02.245v.02c0 .042 0 .082-.02.123.061.164.04.286.02.45zm8.135-3.188v-5.989c3.801.532 4.864 3.904 4.864 5.989 0 2.8-1.247 5.661-2.453 5.661-1.042 0-2.411-.593-2.411-5.661zm12.59-15.084s-.021 0 0 0c-.021 0-.021 0 0 0zm-1.084 7.992c0-.736.041-1.472.082-2.208.102-1.45.245-2.902.572-4.21.082-.327.184-.634.286-.92.062-.143.123-.265.184-.388l.062-.123v.02c.061.083.122.185.163.307.225.49.348 1.104.409 1.717s.061 1.247.02 1.88c-.081 1.247-.327 2.494-.613 3.659-.163.593-.306 1.185-.45 1.758-.163.572-.286 1.144-.47 1.696-.081.266-.143.51-.224.756-.02-.552-.02-1.124-.02-1.676V11.1zm7.051 5.906c.041-.613.123-1.247.246-1.84a9.285 9.285 0 0 1 .51-1.716c.225-.511.532-.94.839-1.104.081-.04.163-.081.245-.102l.061-.02h.306l.021.02c.041.041.123.245.164.511.04.266.04.552.02.879-.04.634-.163 1.308-.327 1.982-.082.348-.184.675-.286 1.022-.04.164-.102.327-.164.511-.06.164-.122.327-.183.49-.327.92-.736 1.8-1.227 2.637a12.255 12.255 0 0 1-.225-1.512c-.02-.286-.04-.572-.04-.879.02-.307.02-.593.04-.879z" fill="#EC4E5E"/></svg>