<?xml version="1.0" encoding="UTF-8"?>
<svg width="90px" height="26px" viewBox="0 0 90 26" version="1.1" xmlns="http://www.w3.org/2000/svg" xmlns:xlink="http://www.w3.org/1999/xlink">
    <!-- Generator: Sketch 42 (36781) - http://www.bohemiancoding.com/sketch -->
    <title>adorable</title>
    <desc>Created with Sketch.</desc>
    <defs></defs>
    <g id="Type-+-Color" stroke="none" stroke-width="1" fill="none" fill-rule="evenodd">
        <g id="1st-version-mirror-desktop" transform="translate(-339.000000, -5694.000000)" fill-rule="nonzero" fill="#EC4E5E">
            <path d="M428.416837,5712.35614 L428.416837,5712.3357 C428.416837,5712.21307 428.396399,5712.11088 428.335084,5711.98825 C428.110265,5711.43642 427.497121,5711.15029 426.924853,5711.37511 C426.924853,5711.37511 426.822662,5711.41598 426.659157,5711.53861 C426.495652,5711.6408 426.311709,5711.84518 426.08689,5712.13132 C425.698565,5712.72402 425.105859,5713.56199 424.267896,5714.56346 C424.063514,5714.80871 423.838695,5715.05397 423.593437,5715.31967 C423.34818,5715.56492 423.082484,5715.83062 422.79635,5716.07588 C422.24452,5716.56639 421.5905,5717.05691 420.875165,5717.40436 C420.793413,5717.44523 420.691222,5717.48611 420.60947,5717.52699 C420.527717,5717.56786 420.425526,5717.5883 420.323336,5717.62918 C420.241583,5717.64961 420.139393,5717.71093 420.037202,5717.71093 C419.955449,5717.73137 419.873697,5717.75181 419.791944,5717.77224 L419.669316,5717.81312 L419.485372,5717.83356 C419.362744,5717.83356 419.240115,5717.854 419.117486,5717.854 L419.097048,5717.854 L419.035733,5717.854 C418.994857,5717.854 418.974419,5717.854 418.933543,5717.83356 C418.872228,5717.83356 418.790476,5717.81312 418.729161,5717.79268 C418.463466,5717.69049 418.177332,5717.48611 417.911636,5717.1591 C417.789007,5717.01603 417.666378,5716.83209 417.564188,5716.64815 C417.564188,5716.62771 417.584626,5716.62771 417.584626,5716.60727 C418.586094,5715.27879 419.321867,5713.82768 419.853259,5712.3357 C419.914573,5712.15176 419.996326,5711.96781 420.05764,5711.78387 C420.118954,5711.62036 420.180269,5711.41598 420.241583,5711.23204 C420.364212,5710.86415 420.466403,5710.47583 420.548155,5710.10794 C420.732099,5709.35173 420.875165,5708.57508 420.93648,5707.75756 C420.956918,5707.34879 420.956918,5706.91959 420.895604,5706.46996 C420.854727,5706.24514 420.813851,5705.99988 420.732099,5705.75462 C420.650346,5705.50936 420.527717,5705.24367 420.323336,5704.97797 C420.118954,5704.71228 419.832821,5704.48746 419.50581,5704.34439 C419.424058,5704.30351 419.342305,5704.28307 419.260553,5704.26264 C419.1788,5704.2422 419.097048,5704.22176 419.015295,5704.20132 C418.933543,5704.18088 418.85179,5704.18088 418.770038,5704.18088 L418.647409,5704.18088 C418.606533,5704.18088 418.667847,5704.18088 418.545218,5704.18088 L418.504342,5704.18088 L418.381713,5704.18088 L418.299961,5704.18088 L418.177332,5704.20132 L417.952512,5704.2422 L417.748131,5704.28307 C417.482435,5704.34439 417.237178,5704.44658 417.012358,5704.56921 C416.562719,5704.8349 416.194833,5705.18235 415.929137,5705.5298 C415.663441,5705.89769 415.438622,5706.26557 415.275117,5706.63346 C414.948107,5707.36923 414.764163,5708.08457 414.621096,5708.7999 C414.478029,5709.51524 414.396277,5710.1897 414.334963,5710.86415 C414.314524,5711.23204 414.294086,5711.57949 414.294086,5711.92694 C414.294086,5712.27439 414.314524,5712.62183 414.334963,5712.94884 C414.437153,5714.15469 414.661973,5715.29923 415.070735,5716.38245 L414.886792,5716.56639 L414.784601,5716.66858 L414.723287,5716.70946 L414.723287,5716.70946 L414.702849,5716.7299 L414.518906,5716.8934 C414.007952,5717.30217 413.435685,5717.64961 412.883855,5717.79268 L412.679474,5717.83356 C412.618159,5717.854 412.577283,5717.854 412.515969,5717.854 C412.475092,5717.854 412.475092,5717.87443 412.434216,5717.87443 L412.291149,5717.87443 L412.148082,5717.87443 L412.148082,5717.87443 L412.107206,5717.87443 C411.943701,5717.854 411.739319,5717.77224 411.534938,5717.62918 C411.330557,5717.48611 411.146614,5717.26129 410.96267,5716.99559 C410.880918,5716.87297 410.799165,5716.7299 410.717413,5716.58683 C410.63566,5716.44376 410.574346,5716.3007 410.492593,5716.13719 C410.349526,5715.83062 410.247336,5715.50361 410.145145,5715.15616 L410.002078,5714.66565 L409.940764,5714.37951 L409.899887,5714.23645 L409.879449,5714.17513 L409.879449,5714.15469 L409.879449,5714.15469 L409.879449,5714.11382 C409.818135,5713.74593 409.736382,5713.37804 409.695506,5713.01016 C409.675068,5712.92841 409.675068,5712.82621 409.65463,5712.74446 C409.75682,5712.4992 409.859011,5712.27439 409.961202,5712.02913 C410.390403,5711.02766 410.778727,5709.94444 411.18749,5708.84078 C411.596253,5707.71668 412.005015,5706.57215 412.311587,5705.32542 C412.638597,5704.05826 412.863417,5702.72978 412.965608,5701.31955 C413.006484,5700.62465 413.026922,5699.88888 412.945169,5699.1531 C412.863417,5698.41733 412.740788,5697.64068 412.39334,5696.84359 C412.311587,5696.63921 412.188958,5696.43483 412.045891,5696.23045 C411.902825,5696.02607 411.718881,5695.82169 411.453186,5695.61731 C411.371433,5695.57643 411.310119,5695.51512 411.228366,5695.47424 C411.146614,5695.43336 411.064861,5695.39249 410.942232,5695.37205 C410.840042,5695.35161 410.737851,5695.31073 410.615222,5695.31073 L410.53347,5695.31073 L410.390403,5695.31073 L410.329088,5695.31073 L410.288212,5695.31073 L410.186021,5695.33117 C410.124707,5695.35161 410.042954,5695.37205 409.98164,5695.39249 C409.899887,5695.41292 409.879449,5695.43336 409.818135,5695.4538 C409.777259,5695.47424 409.736382,5695.49468 409.695506,5695.51512 C409.613754,5695.55599 409.552439,5695.61731 409.470687,5695.67862 C409.409372,5695.73993 409.348058,5695.78081 409.307182,5695.84213 C409.1028,5696.06694 408.959733,5696.27133 408.857543,5696.47571 C408.734914,5696.68009 408.653161,5696.88447 408.571409,5697.06841 C408.407904,5697.45674 408.305713,5697.84506 408.203522,5698.21295 C407.815198,5699.72537 407.651693,5701.23779 407.549502,5702.77065 C407.488188,5703.52686 407.467749,5704.30351 407.447311,5705.08016 C407.447311,5705.46849 407.426873,5705.85681 407.426873,5706.24514 L407.426873,5707.38967 C407.426873,5708.92253 407.447311,5710.49627 407.590378,5712.09044 C407.610816,5712.37658 407.651693,5712.66271 407.692569,5712.94884 C407.508626,5713.29629 407.324682,5713.6233 407.120301,5713.92987 C406.997672,5714.11382 406.875044,5714.29776 406.752415,5714.4817 C406.629786,5714.66565 406.507157,5714.82915 406.384528,5714.99266 C406.2619,5715.15616 406.139271,5715.29923 406.016642,5715.4423 C405.894013,5715.58536 405.730508,5715.74887 405.587441,5715.89194 L405.526127,5715.95325 C405.505689,5715.97369 405.546565,5715.93281 405.526127,5715.95325 L405.505689,5715.97369 L405.48525,5715.99413 L405.38306,5716.07588 C405.321745,5716.13719 405.239993,5716.19851 405.178678,5716.25982 C405.05605,5716.38245 404.912983,5716.48464 404.769916,5716.58683 C404.708601,5716.62771 404.647287,5716.68902 404.565534,5716.7299 C404.50422,5716.77077 404.422467,5716.81165 404.361153,5716.85253 C404.238524,5716.93428 404.095457,5717.01603 403.972828,5717.09778 C403.8502,5717.1591 403.748009,5717.22041 403.645818,5717.28173 C404.361153,5715.85106 404.749478,5714.01163 404.749478,5712.25395 C404.749478,5710.31232 404.095457,5708.3707 402.97136,5706.94003 C402.072082,5705.7955 400.437031,5704.44658 397.718759,5704.18088 L397.718759,5702.13707 C397.718759,5701.21735 397.739198,5700.35895 397.759636,5699.60274 C397.780074,5698.84653 397.780074,5698.19251 397.800512,5697.66112 C397.82095,5696.5779 397.82095,5695.96475 397.82095,5695.96475 L397.82095,5695.94432 C397.82095,5695.37205 397.350873,5694.90197 396.778605,5694.92241 C396.206338,5694.92241 395.73626,5695.39249 395.756699,5695.96475 C395.756699,5695.96475 395.756699,5696.5779 395.777137,5697.66112 C395.777137,5698.19251 395.797575,5698.86697 395.818013,5699.60274 C395.838451,5700.35895 395.858889,5701.19692 395.858889,5702.13707 L395.858889,5705.16191 L395.777137,5712.25395 L395.777137,5712.92841 L395.777137,5713.86856 C395.777137,5714.4817 395.777137,5715.09485 395.756699,5715.66712 C395.715822,5716.21895 395.654508,5716.77077 395.491003,5717.1591 C395.40925,5717.34304 395.327498,5717.50655 395.225307,5717.5883 C395.123116,5717.69049 395.020926,5717.77224 394.857421,5717.81312 C394.693916,5717.87443 394.509972,5717.89487 394.285153,5717.91531 L394.223838,5717.91531 L394.182962,5717.91531 L393.958143,5717.89487 C393.7742,5717.89487 393.753761,5717.854 393.692447,5717.83356 C393.631133,5717.83356 393.54938,5717.77224 393.467628,5717.75181 C393.447189,5717.75181 393.426751,5717.73137 393.406313,5717.73137 L393.344999,5717.69049 C393.304122,5717.67005 393.263246,5717.64961 393.22237,5717.62918 C393.140617,5717.5883 393.079303,5717.50655 392.99755,5717.44523 C392.936236,5717.38392 392.854484,5717.30217 392.793169,5717.22041 C392.261778,5716.58683 391.955206,5715.58536 391.893891,5714.72696 L391.893891,5714.58389 L391.893891,5714.50214 L391.893891,5714.39995 L391.893891,5714.01163 L391.893891,5713.25542 L391.893891,5711.80431 C391.893891,5708.10501 391.873453,5705.63199 391.873453,5705.63199 L391.873453,5705.14148 C391.832577,5704.56921 391.321623,5704.14001 390.749356,5704.20132 C390.749356,5704.20132 390.647165,5704.20132 390.463222,5704.22176 C390.279279,5704.2422 389.993145,5704.26264 389.625258,5704.32395 C389.257372,5704.38527 388.807733,5704.46702 388.29678,5704.58965 C387.785826,5704.73271 387.19312,5704.91666 386.579976,5705.22323 C385.966832,5705.5298 385.312812,5705.959 384.760982,5706.55171 C384.188715,5707.14441 383.739076,5707.90062 383.432504,5708.71815 C383.289437,5709.12691 383.166808,5709.53568 383.085055,5709.96488 C383.003303,5710.39408 382.962427,5710.82328 382.941988,5711.27292 C382.92155,5711.94738 382.941988,5712.66271 383.023741,5713.35761 C382.982865,5713.4598 382.962427,5713.56199 382.982865,5713.68462 L382.982865,5713.70505 C382.982865,5713.90944 382.982865,5714.15469 382.962427,5714.37951 C382.941988,5714.60433 382.92155,5714.84959 382.901112,5715.07441 C382.839798,5715.54449 382.758045,5715.99413 382.635416,5716.40289 C382.512788,5716.81165 382.349283,5717.17954 382.144901,5717.44523 C382.042711,5717.56786 381.94052,5717.67005 381.838329,5717.73137 C381.736139,5717.79268 381.633948,5717.83356 381.511319,5717.854 L381.409128,5717.854 L381.368252,5717.854 L381.368252,5717.854 L381.347814,5717.854 L381.163871,5717.83356 L381.082118,5717.83356 C381.06168,5717.83356 381.06168,5717.83356 381.041242,5717.81312 C381.020804,5717.81312 381.000366,5717.79268 380.979928,5717.79268 L380.898175,5717.75181 C380.836861,5717.73137 380.795984,5717.69049 380.73467,5717.67005 C380.550727,5717.54742 380.366784,5717.3226 380.223717,5716.97516 C380.08065,5716.62771 379.998897,5716.19851 379.937583,5715.74887 C379.876268,5715.29923 379.876268,5714.82915 379.876268,5714.35907 C379.896706,5713.39848 379.998897,5712.41745 380.141964,5711.41598 C380.285031,5710.43495 380.448536,5709.43348 380.632479,5708.43202 L380.673356,5708.24807 L380.673356,5708.2072 L380.693794,5708.10501 L380.714232,5708.00282 L380.714232,5707.9415 L380.714232,5707.83931 L380.714232,5707.65537 C380.714232,5707.53274 380.693794,5707.43055 380.693794,5707.32836 C380.632479,5706.89916 380.448536,5706.49039 380.203278,5706.16338 C379.958021,5705.81593 379.610573,5705.55024 379.242686,5705.34586 C379.140495,5705.30498 379.058743,5705.26411 378.956552,5705.22323 C378.854362,5705.18235 378.752171,5705.16191 378.64998,5705.14148 C378.54779,5705.12104 378.200341,5705.05972 378.200341,5705.05972 C378.057274,5705.03929 377.99596,5704.99841 377.914207,5704.97797 L377.607635,5704.87578 L377.260187,5704.75315 L376.912739,5704.63052 L376.197404,5704.36483 L376.013461,5704.30351 C375.952147,5704.28307 375.890832,5704.26264 375.849956,5704.2422 L375.563822,5704.11957 L375.563822,5704.11957 L375.522946,5704.09913 C374.950678,5703.89475 374.296658,5704.18088 374.071838,5704.75315 C373.990086,5704.97797 373.908333,5705.18235 373.806142,5705.38673 C373.765266,5705.48892 373.703952,5705.59112 373.663076,5705.69331 C373.622199,5705.7955 373.560885,5705.89769 373.49957,5705.99988 C373.39738,5706.20426 373.274751,5706.3882 373.152122,5706.59258 C373.029493,5706.77653 372.886426,5706.96047 372.743359,5707.12398 L372.641169,5707.2466 L372.538978,5707.36923 C372.477664,5707.43055 372.416349,5707.5123 372.355035,5707.57361 C371.557948,5705.03929 370.00465,5704.38527 368.655733,5704.38527 C365.365193,5704.38527 363.893647,5708.2072 363.893647,5711.98825 C363.893647,5712.82621 363.934524,5713.6233 364.036714,5714.33864 L364.036714,5714.37951 L364.036714,5714.42039 L364.036714,5714.72696 C364.036714,5714.93134 364.016276,5715.23791 363.9754,5715.6058 C363.934524,5715.97369 363.832333,5716.40289 363.668828,5716.83209 C363.627952,5716.93428 363.566637,5717.03647 363.525761,5717.13866 C363.464447,5717.22041 363.42357,5717.3226 363.341818,5717.40436 C363.300942,5717.44523 363.280503,5717.48611 363.239627,5717.50655 C363.198751,5717.52699 363.178313,5717.56786 363.137436,5717.60874 C363.055684,5717.64961 362.99437,5717.71093 362.912617,5717.73137 C362.892179,5717.73137 362.871741,5717.75181 362.851303,5717.75181 L362.810426,5717.75181 C362.789988,5717.75181 362.789988,5717.75181 362.76955,5717.77224 L362.749112,5717.79268 L362.687797,5717.79268 C362.606045,5717.79268 362.524292,5717.81312 362.44254,5717.81312 L362.44254,5717.81312 L362.401664,5717.81312 L362.319911,5717.81312 C362.135968,5717.79268 361.972463,5717.71093 361.78852,5717.56786 C361.420633,5717.26129 361.093623,5716.58683 360.889242,5715.83062 C360.848365,5715.64668 360.807489,5715.4423 360.766613,5715.25835 C360.725737,5715.05397 360.705298,5714.84959 360.705298,5714.68609 C360.705298,5714.60433 360.705298,5714.4817 360.68486,5714.35907 L360.68486,5714.3182 L360.68486,5714.29776 L360.68486,5714.29776 L360.68486,5714.21601 L360.68486,5714.03206 L360.68486,5713.31673 C360.68486,5712.35614 360.705298,5711.39555 360.705298,5710.43495 C360.725737,5706.57215 360.766613,5702.70934 360.787051,5699.80712 L360.787051,5697.82462 C360.787051,5697.23192 360.766613,5696.72097 360.766613,5696.29176 C360.746175,5695.4538 360.705298,5694.96329 360.705298,5694.96329 C360.664422,5694.45233 360.25566,5694.04357 359.744706,5694.00269 C359.172438,5693.96182 358.681923,5694.39102 358.641047,5694.96329 C358.641047,5694.96329 358.600171,5695.4538 358.579733,5696.29176 C358.579733,5696.72097 358.559294,5697.23192 358.559294,5697.82462 L358.559294,5699.80712 C358.559294,5701.19692 358.579733,5702.81153 358.600171,5704.52833 C358.068779,5704.30351 357.455635,5704.16045 356.719862,5704.16045 C353.327132,5704.16045 351.81471,5708.96341 351.81471,5713.72549 L351.81471,5714.11382 C351.81471,5715.46273 351.835148,5716.97516 351.242442,5717.56786 C351.16069,5717.64961 350.93587,5717.89487 350.220536,5717.89487 C348.299351,5717.89487 347.890588,5715.03353 347.890588,5714.4817 L347.890588,5705.22323 L347.890588,5705.18235 L347.890588,5705.14148 C347.890588,5705.12104 347.890588,5705.1006 347.87015,5705.08016 C347.87015,5705.03929 347.849712,5705.01885 347.849712,5704.97797 C347.849712,5704.9371 347.829274,5704.91666 347.829274,5704.87578 C347.808836,5704.8349 347.808836,5704.81447 347.788398,5704.77359 C347.76796,5704.75315 347.76796,5704.71228 347.747521,5704.69184 C347.727083,5704.6714 347.706645,5704.63052 347.686207,5704.61008 C347.665769,5704.58965 347.645331,5704.56921 347.624893,5704.54877 C347.604454,5704.52833 347.584016,5704.48746 347.54314,5704.46702 C347.522702,5704.44658 347.502264,5704.42614 347.481826,5704.4057 C347.440949,5704.38527 347.420511,5704.36483 347.379635,5704.34439 C347.359197,5704.32395 347.338759,5704.32395 347.297882,5704.30351 C347.257006,5704.28307 347.236568,5704.26264 347.195692,5704.26264 C347.175254,5704.26264 347.134377,5704.2422 347.113939,5704.2422 C347.073063,5704.2422 347.032187,5704.22176 347.011749,5704.22176 L346.909558,5704.22176 L346.848244,5704.22176 L346.807367,5704.22176 L346.766491,5704.22176 C341.820463,5704.56921 339,5707.49186 339,5712.17219 C339,5716.79121 341.023375,5720 343.92559,5720 C344.702239,5720 346.153347,5719.77518 347.052625,5718.32407 C347.747521,5719.24379 348.769428,5719.93869 350.200098,5719.93869 C351.242442,5719.93869 352.080406,5719.63211 352.69355,5719.01897 C352.918369,5718.79415 353.102313,5718.52845 353.24538,5718.24232 C353.960714,5719.22335 355.043935,5719.93869 356.699424,5719.93869 C357.61914,5719.93869 358.436666,5719.59124 359.070248,5718.93722 C359.295067,5718.7124 359.47901,5718.4467 359.662954,5718.16057 C359.867335,5718.50802 360.133031,5718.83503 360.460041,5719.12116 C360.90968,5719.50948 361.502386,5719.77518 362.095092,5719.83649 L362.319911,5719.85693 L362.422102,5719.85693 L362.44254,5719.85693 L362.462978,5719.85693 C362.503854,5719.85693 362.381225,5719.85693 362.565169,5719.85693 L362.606045,5719.85693 C362.708236,5719.85693 362.789988,5719.83649 362.892179,5719.83649 L362.973931,5719.83649 L363.09656,5719.81606 C363.178313,5719.79562 363.260065,5719.77518 363.341818,5719.75474 C363.42357,5719.7343 363.505323,5719.71387 363.566637,5719.69343 L363.75058,5719.61168 C364.016276,5719.50948 364.241096,5719.34598 364.445477,5719.20291 C364.547668,5719.12116 364.62942,5719.03941 364.731611,5718.93722 C364.833802,5718.85546 364.895116,5718.75327 364.95643,5718.67152 C365.099497,5718.50802 365.201688,5718.32407 365.303879,5718.16057 C366.06009,5719.3051 367.102434,5719.91825 368.390037,5719.91825 C371.230938,5719.91825 372.927303,5716.95472 372.927303,5711.96781 C372.927303,5711.25248 372.886426,5710.59846 372.84555,5710.02619 C372.968179,5709.94444 373.090808,5709.88312 373.192998,5709.80137 C373.315627,5709.69918 373.438256,5709.61743 373.560885,5709.51524 L373.887895,5709.20867 C374.010524,5709.10647 374.092276,5709.00428 374.194467,5708.88166 L374.357972,5708.71815 L374.501039,5708.55464 C374.70542,5708.32983 374.868925,5708.08457 375.032431,5707.85975 C375.195936,5707.61449 375.359441,5707.36923 375.502508,5707.12398 C375.58426,5707.00135 375.645575,5706.87872 375.706889,5706.75609 C375.747765,5706.69477 375.768203,5706.63346 375.80908,5706.57215 L376.299595,5706.71521 L376.687919,5706.83784 L377.076244,5706.94003 L377.260187,5707.00135 L377.505445,5707.06266 C377.66895,5707.10354 377.852893,5707.14441 377.955084,5707.16485 L378.057274,5707.18529 L378.077713,5707.18529 L378.098151,5707.18529 L378.200341,5707.20573 L378.220779,5707.20573 L378.282094,5707.20573 C378.302532,5707.20573 378.32297,5707.20573 378.343408,5707.22617 C378.363846,5707.22617 378.384285,5707.2466 378.404723,5707.2466 C378.486475,5707.28748 378.54779,5707.32836 378.609104,5707.41011 C378.670418,5707.47142 378.690857,5707.55318 378.711295,5707.63493 L378.711295,5707.69624 L378.711295,5707.69624 L378.711295,5707.69624 L378.711295,5707.73712 L378.690857,5707.83931 L378.690857,5707.85975 L378.690857,5707.88019 L378.64998,5708.06413 C378.466037,5709.0656 378.302532,5710.0875 378.159465,5711.12985 C378.016398,5712.17219 377.914207,5713.23498 377.893769,5714.3182 C377.893769,5714.87003 377.914207,5715.42186 377.975522,5715.99413 C378.036836,5716.56639 378.159465,5717.1591 378.404723,5717.75181 C378.527351,5718.05838 378.690857,5718.36495 378.915676,5718.65108 C379.120057,5718.93722 379.426629,5719.20291 379.75364,5719.42773 C379.917145,5719.52992 380.101088,5719.63211 380.285031,5719.67299 C380.387222,5719.71387 380.468974,5719.7343 380.571165,5719.77518 C380.673356,5719.79562 380.775546,5719.81606 380.877737,5719.83649 L381.041242,5719.85693 L381.143433,5719.85693 L381.327376,5719.87737 L381.368252,5719.87737 L381.450005,5719.87737 L381.490881,5719.87737 L381.633948,5719.87737 C381.736139,5719.87737 381.817891,5719.87737 381.920082,5719.85693 C382.308406,5719.81606 382.696731,5719.65255 383.023741,5719.44817 C383.350751,5719.24379 383.636885,5718.97809 383.841266,5718.69196 C384.106962,5718.34451 384.311343,5717.97662 384.45441,5717.62918 C384.67923,5717.95619 384.944926,5718.26276 385.231059,5718.52845 C385.394565,5718.69196 385.598946,5718.81459 385.803327,5718.95766 C385.905518,5719.01897 386.007709,5719.08028 386.109899,5719.1416 C386.21209,5719.20291 386.314281,5719.26423 386.436909,5719.28467 C386.5391,5719.32554 386.661729,5719.36642 386.76392,5719.40729 C386.86611,5719.44817 387.009177,5719.46861 387.131806,5719.48905 L387.315749,5719.52992 L387.41794,5719.55036 L387.479254,5719.55036 C387.561007,5719.55036 387.642759,5719.5708 387.724512,5719.5708 L387.785826,5719.5708 L387.826703,5719.5708 L387.908455,5719.5708 L387.908455,5719.5708 L387.928893,5719.5708 L388.092398,5719.5708 C388.194589,5719.5708 388.29678,5719.5708 388.419408,5719.55036 C388.644228,5719.50948 388.848609,5719.48905 389.052991,5719.40729 C389.257372,5719.34598 389.461753,5719.24379 389.666135,5719.16204 C389.768325,5719.10072 389.850078,5719.05985 389.93183,5718.99853 C390.034021,5718.93722 390.115774,5718.8759 390.177088,5718.81459 C390.463222,5718.58977 390.688041,5718.30363 390.871984,5718.03794 C390.974175,5718.20144 391.096804,5718.38539 391.239871,5718.54889 C391.3625,5718.69196 391.485129,5718.83503 391.628195,5718.95766 C391.771262,5719.08028 391.914329,5719.22335 392.098273,5719.32554 L392.363968,5719.48905 L392.486597,5719.5708 C392.527473,5719.59124 392.588788,5719.61168 392.629664,5719.63211 C392.834045,5719.71387 392.99755,5719.79562 393.242808,5719.85693 C393.467628,5719.91825 393.733323,5719.95912 393.855952,5719.95912 L394.080772,5719.97956 L394.142086,5719.97956 L394.162524,5719.97956 L394.264715,5719.97956 L394.285153,5719.97956 L394.42822,5719.97956 C394.816544,5719.95912 395.225307,5719.91825 395.63407,5719.75474 C396.042832,5719.61168 396.472033,5719.34598 396.799043,5718.99853 C396.962548,5718.81459 397.105615,5718.63065 397.228244,5718.4467 C397.882265,5719.34598 398.883733,5719.97956 400.334841,5719.97956 L400.416593,5719.97956 L400.498346,5719.97956 L400.78448,5719.97956 C401.009299,5719.97956 401.336309,5719.95912 401.745072,5719.89781 C402.562597,5719.77518 403.748009,5719.46861 405.05605,5718.67152 C405.219555,5718.56933 405.38306,5718.46714 405.546565,5718.34451 C405.628317,5718.2832 405.71007,5718.22188 405.791822,5718.16057 C405.873575,5718.09925 405.955328,5718.03794 406.03708,5717.95619 C406.200585,5717.81312 406.36409,5717.69049 406.507157,5717.54742 C406.58891,5717.46567 406.670662,5717.40436 406.752415,5717.3226 L406.875044,5717.19998 L406.895482,5717.17954 L406.91592,5717.1591 L406.956796,5717.11822 L406.997672,5717.05691 C407.140739,5716.8934 407.263368,5716.75034 407.406435,5716.58683 C407.549502,5716.40289 407.713007,5716.21895 407.856074,5716.01456 C407.999141,5715.83062 408.12177,5715.62624 408.264837,5715.4423 C408.285275,5715.52405 408.305713,5715.62624 408.326151,5715.70799 C408.44878,5716.11675 408.571409,5716.52552 408.755352,5716.91384 C408.837104,5717.11822 408.939295,5717.3226 409.041486,5717.50655 C409.164115,5717.71093 409.266305,5717.89487 409.388934,5718.09925 C409.65463,5718.48758 409.961202,5718.85546 410.390403,5719.18247 C410.799165,5719.50948 411.330557,5719.77518 411.943701,5719.83649 L412.045891,5719.85693 C412.086768,5719.85693 412.025453,5719.85693 412.16852,5719.85693 L412.209397,5719.85693 L412.352463,5719.85693 L412.49553,5719.85693 C412.536407,5719.85693 412.638597,5719.85693 412.699912,5719.83649 C412.842979,5719.81606 412.986046,5719.81606 413.108674,5719.77518 L413.456123,5719.69343 C414.396277,5719.44817 415.193364,5718.97809 415.867823,5718.42626 L416.11308,5718.22188 C416.174395,5718.30363 416.235709,5718.40583 416.317462,5718.48758 C416.746662,5719.01897 417.359806,5719.50948 418.095579,5719.77518 C418.279522,5719.83649 418.463466,5719.87737 418.667847,5719.91825 C418.770038,5719.93869 418.85179,5719.93869 418.953981,5719.95912 L419.097048,5719.95912 L419.158362,5719.95912 L419.260553,5719.95912 L419.280991,5719.95912 C419.40362,5719.95912 419.546687,5719.93869 419.669316,5719.93869 L419.853259,5719.91825 L420.098516,5719.87737 C420.262021,5719.85693 420.425526,5719.81606 420.589032,5719.77518 C420.752537,5719.7343 420.875165,5719.69343 421.018232,5719.65255 C421.161299,5719.61168 421.304366,5719.5708 421.426995,5719.50948 C421.549624,5719.44817 421.672253,5719.38686 421.81532,5719.34598 C422.816788,5718.8759 423.593437,5718.2832 424.247458,5717.71093 C424.594906,5717.4248 424.88104,5717.11822 425.167174,5716.85253 C425.432869,5716.56639 425.698565,5716.28026 425.923385,5716.01456 C426.863539,5714.93134 427.476683,5714.03206 427.967198,5713.4598 C428.192017,5713.15323 428.314646,5712.88753 428.355523,5712.70359 C428.416837,5712.47877 428.416837,5712.35614 428.416837,5712.35614 Z M345.785461,5714.80871 C345.785461,5717.91531 344.375229,5717.91531 343.92559,5717.91531 C342.29054,5717.91531 341.08469,5715.4423 341.08469,5712.17219 C341.08469,5708.92253 342.678864,5706.98091 345.805899,5706.36776 L345.805899,5714.44083 L345.805899,5714.72696 C345.785461,5714.7474 345.785461,5714.78828 345.785461,5714.80871 Z M356.699424,5717.854 C355.922775,5717.854 354.124219,5717.854 353.8994,5712.66271 L353.8994,5712.6014 C354.103781,5709.00428 355.289193,5706.2247 356.699424,5706.2247 C357.598702,5706.2247 358.252722,5706.63346 358.600171,5706.91959 C358.600171,5708.06413 358.620609,5709.24954 358.620609,5710.41452 C358.620609,5711.37511 358.641047,5712.35614 358.641047,5713.29629 L358.641047,5713.74593 C358.600171,5714.76784 358.375351,5716.66858 357.578264,5717.48611 C357.333006,5717.73137 357.067311,5717.854 356.699424,5717.854 Z M368.655733,5706.46996 C369.677639,5706.46996 370.229469,5707.47142 370.515603,5708.69771 L370.495165,5708.69771 L370.352098,5708.73859 L370.209031,5708.75903 C370.10684,5708.77946 370.00465,5708.7999 369.902459,5708.7999 L369.595887,5708.82034 L369.514134,5708.82034 L369.514134,5708.82034 L369.514134,5708.82034 L369.330191,5708.7999 L369.228,5708.7999 L369.187124,5708.7999 L369.166686,5708.7999 C369.146248,5708.7999 369.12581,5708.77946 369.084933,5708.77946 C369.044057,5708.77946 368.962305,5708.73859 368.880552,5708.71815 C368.7988,5708.69771 368.717047,5708.65684 368.655733,5708.61596 C368.492228,5708.53421 368.349161,5708.43202 368.206094,5708.30939 C368.124341,5708.24807 368.063027,5708.16632 367.981274,5708.10501 C367.91996,5708.02325 367.838207,5707.96194 367.776893,5707.88019 C367.633826,5707.71668 367.511197,5707.55318 367.388568,5707.36923 C367.347692,5707.30792 367.306816,5707.22617 367.26594,5707.16485 C367.613388,5706.75609 368.083465,5706.46996 368.655733,5706.46996 Z M370.168155,5716.19851 C369.514134,5717.854 368.655733,5717.854 368.369599,5717.854 C368.083465,5717.854 367.245501,5717.854 366.591481,5716.19851 C366.182718,5715.13572 365.957899,5713.64374 365.957899,5711.98825 C365.957899,5711.19116 366.06009,5710.25101 366.264471,5709.39261 C366.325785,5709.47436 366.3871,5709.53568 366.468852,5709.61743 C366.591481,5709.71962 366.693672,5709.84225 366.816301,5709.94444 C367.061558,5710.14882 367.327254,5710.3532 367.633826,5710.51671 C367.776893,5710.59846 367.940398,5710.68021 368.103903,5710.74153 C368.267408,5710.80284 368.430913,5710.86415 368.635295,5710.90503 C368.737485,5710.92547 368.839676,5710.94591 368.941867,5710.96634 L369.023619,5710.98678 L369.064495,5710.98678 L369.166686,5710.98678 L369.350629,5711.00722 L369.391505,5711.00722 L369.411944,5711.00722 L369.493696,5711.00722 L369.514134,5711.00722 L369.636763,5711.00722 L370.10684,5710.98678 C370.270345,5710.96634 370.413412,5710.94591 370.576917,5710.92547 L370.781299,5710.88459 C370.801737,5711.27292 370.801737,5711.6408 370.801737,5711.98825 C370.822175,5713.6233 370.597355,5715.11529 370.168155,5716.19851 Z M389.809202,5715.38098 C389.768325,5715.68755 389.707011,5716.035 389.563944,5716.38245 C389.50263,5716.56639 389.420877,5716.7299 389.318686,5716.87297 C389.216496,5717.01603 389.114305,5717.1591 388.971238,5717.26129 C388.930362,5717.28173 388.909924,5717.3226 388.869047,5717.34304 C388.828171,5717.36348 388.787295,5717.38392 388.766857,5717.40436 C388.685104,5717.44523 388.603352,5717.48611 388.501161,5717.50655 C388.419408,5717.54742 388.29678,5717.54742 388.194589,5717.56786 L388.010646,5717.56786 L387.928893,5717.56786 L387.867579,5717.56786 C387.785826,5717.56786 387.704074,5717.54742 387.622321,5717.54742 L387.561007,5717.54742 L387.52013,5717.52699 L387.458816,5717.50655 C387.41794,5717.48611 387.377064,5717.50655 387.315749,5717.46567 C387.254435,5717.44523 387.213558,5717.4248 387.152244,5717.40436 C387.09093,5717.38392 387.050053,5717.36348 386.988739,5717.3226 C386.927425,5717.28173 386.886548,5717.28173 386.825234,5717.24085 C386.723043,5717.1591 386.620853,5717.09778 386.518662,5716.99559 C386.130337,5716.64815 385.803327,5716.09632 385.55807,5715.48317 C385.312812,5714.87003 385.169745,5714.15469 385.087993,5713.43936 C385.00624,5712.72402 384.985802,5711.98825 385.00624,5711.25248 C385.026678,5710.94591 385.067554,5710.59846 385.128869,5710.27145 C385.190183,5709.94444 385.271936,5709.63787 385.374126,5709.37217 C385.578508,5708.7999 385.88508,5708.32983 386.273404,5707.9415 C386.641291,5707.55318 387.070492,5707.26704 387.52013,5707.04222 C387.969769,5706.8174 388.419408,5706.67434 388.828171,5706.55171 C389.196057,5706.44952 389.523068,5706.3882 389.809202,5706.34733 C389.809202,5707.34879 389.809202,5709.26998 389.788763,5711.72256 L389.788763,5713.17366 L389.788763,5713.92987 L389.788763,5714.3182 L389.788763,5714.42039 L389.788763,5714.54302 C389.788763,5714.62477 389.788763,5714.70652 389.809202,5714.78828 L389.809202,5714.80871 C389.809202,5714.84959 389.809202,5714.89047 389.788763,5714.93134 C389.850078,5715.09485 389.82964,5715.21748 389.809202,5715.38098 Z M397.943579,5712.19263 L397.943579,5706.20426 C401.745072,5706.73565 402.807855,5710.10794 402.807855,5712.19263 C402.807855,5714.99266 401.561129,5717.854 400.355279,5717.854 C399.312934,5717.854 397.943579,5717.26129 397.943579,5712.19263 Z M410.53347,5697.10929 L410.53347,5697.10929 C410.53347,5697.10929 410.513031,5697.10929 410.53347,5697.10929 C410.513031,5697.10929 410.513031,5697.10929 410.53347,5697.10929 Z M409.450248,5705.1006 C409.450248,5704.36483 409.491125,5703.62905 409.532001,5702.89328 C409.634192,5701.44217 409.777259,5699.99107 410.104269,5698.68303 C410.186021,5698.35602 410.288212,5698.04944 410.390403,5697.76331 C410.451717,5697.62024 410.513031,5697.49761 410.574346,5697.37499 C410.594784,5697.33411 410.615222,5697.29323 410.63566,5697.25236 C410.63566,5697.25236 410.63566,5697.25236 410.63566,5697.27279 C410.696975,5697.35455 410.758289,5697.45674 410.799165,5697.57937 C411.023985,5698.06988 411.146614,5698.68303 411.207928,5699.29617 C411.269242,5699.90931 411.269242,5700.5429 411.228366,5701.17648 C411.146614,5702.4232 410.901356,5703.66993 410.615222,5704.8349 C410.451717,5705.42761 410.30865,5706.02032 410.165583,5706.59258 C410.002078,5707.16485 409.879449,5707.73712 409.695506,5708.28895 C409.613754,5708.55464 409.552439,5708.7999 409.470687,5709.04516 C409.450248,5708.49333 409.450248,5707.92106 409.450248,5707.36923 L409.450248,5706.2247 C409.450248,5705.83637 409.450248,5705.46849 409.450248,5705.1006 Z M416.501405,5711.00722 C416.542281,5710.39408 416.624034,5709.76049 416.746662,5709.16779 C416.869291,5708.57508 417.032796,5707.98238 417.257616,5707.45099 C417.482435,5706.94003 417.789007,5706.51083 418.095579,5706.34733 C418.177332,5706.30645 418.259084,5706.26557 418.340837,5706.24514 L418.402151,5706.2247 L418.443027,5706.2247 L418.463466,5706.2247 L418.52478,5706.2247 L418.647409,5706.2247 L418.647409,5706.2247 L418.667847,5706.2247 L418.688285,5706.2247 L418.708723,5706.2247 L418.708723,5706.2247 C418.708723,5706.2247 418.708723,5706.2247 418.729161,5706.24514 C418.770038,5706.28601 418.85179,5706.49039 418.892666,5706.75609 C418.933543,5707.02178 418.933543,5707.30792 418.913105,5707.63493 C418.872228,5708.26851 418.749599,5708.94297 418.586094,5709.61743 C418.504342,5709.96488 418.402151,5710.29189 418.299961,5710.63933 C418.259084,5710.80284 418.19777,5710.96634 418.136455,5711.15029 C418.075141,5711.31379 418.013827,5711.4773 417.952512,5711.6408 C417.625502,5712.56052 417.216739,5713.43936 416.726224,5714.27732 C416.624034,5713.78681 416.542281,5713.27585 416.501405,5712.7649 C416.480967,5712.47877 416.460528,5712.19263 416.460528,5711.88606 C416.480967,5711.57949 416.480967,5711.29335 416.501405,5711.00722 Z" id="adorable"></path>
        </g>
    </g>
</svg>