<svg width="26" height="26" viewBox="0 0 26 26" xmlns="http://www.w3.org/2000/svg" xmlns:xlink="http://www.w3.org/1999/xlink"><title>dn</title><defs><circle id="a" cx="13" cy="13" r="13"/></defs><g fill="none" fill-rule="evenodd"><mask id="b" fill="#fff"><use xlink:href="#a"/></mask><use fill="#3275D6" fill-rule="nonzero" xlink:href="#a"/><path fill="#245BAE" fill-rule="nonzero" mask="url(#b)" d="M4.818 17.35l14.968 11.12h26.802L21.02 8.647v4.093l-1.81-1.3-3.367-2.793-2.003 3.267-2.818-2.352-4.956-.315z"/><path d="M12.497 12.983c0-2.6-1.598-4.364-4.642-4.364H4.848v8.753h3.07c2.955 0 4.58-1.788 4.58-4.388v-.001zm-2.182.013c0 1.877-.964 2.686-2.513 2.686H7.02v-5.376h.78c1.485 0 2.513.85 2.513 2.687l.002.003zm10.82 4.376V8.62H19.12v4.897l-3.223-4.897H13.79v8.753h2.018v-5.239l3.45 5.24h1.877z" fill="#FFF" fill-rule="nonzero"/><path d="M13 .693a12.307 12.307 0 0 1 8.702 21.01c-4.806 4.805-12.598 4.805-17.404 0-4.806-4.807-4.806-12.6 0-17.405A12.226 12.226 0 0 1 13 .693zM13 0C5.82 0 0 5.82 0 13s5.82 13 13 13 13-5.82 13-13A13 13 0 0 0 13 0z" fill="#FFF" fill-rule="nonzero"/></g></svg>