<svg width="71" height="26" viewBox="0 0 71 26" xmlns="http://www.w3.org/2000/svg"><title>kirby</title><g fill="none"><path d="M11.43 0L0 6.492v12.967l11.43 6.492 11.43-6.492V6.492L11.43 0zm5.086 13.245L13.31 14.98v.229h3.205v2.501H6.328v-2.501h3.205v-.246l-3.205-1.717v-3.107l5.102 2.748 5.086-2.748v3.107z" fill="#FF0200"/><path d="M34.585 6.475v7.686l4.284-4.104h2.077l-3.728 3.417 4.006 5.985h-1.962l-3.222-4.906-1.455 1.341v3.565H33.03V6.475zm7.882 1.881v-1.88h1.537v1.896h-1.537v-.016zm1.553 1.7v9.403h-1.537v-9.402h1.537zm3.794.001v1.978h.033c.376-.768.834-1.324 1.373-1.684.54-.36 1.243-.54 2.077-.507v1.635c-.622 0-1.145.082-1.586.262a2.371 2.371 0 0 0-1.047.752c-.261.327-.458.72-.589 1.194-.114.474-.18.997-.18 1.602v4.186h-1.537v-9.418h1.456zm6.246-3.582v4.857h.033c.262-.523.654-.9 1.194-1.128a4.585 4.585 0 0 1 1.799-.36c.719 0 1.357.13 1.896.392.54.262.982.622 1.341 1.08.36.458.622.98.802 1.57.18.588.278 1.226.278 1.896 0 .67-.082 1.292-.262 1.897a4.52 4.52 0 0 1-.801 1.554c-.36.441-.802.785-1.341 1.046-.54.262-1.161.376-1.88.376-.23 0-.491-.032-.77-.065a5.465 5.465 0 0 1-.85-.229 3.715 3.715 0 0 1-.785-.442 2.348 2.348 0 0 1-.62-.703h-.034v1.26h-1.537v-13h1.537zm5.56 6.917a3.489 3.489 0 0 0-.523-1.111 2.521 2.521 0 0 0-.916-.785 2.736 2.736 0 0 0-1.292-.295c-.523 0-.964.098-1.324.31-.36.214-.654.475-.883.802-.23.327-.393.72-.507 1.129a5.691 5.691 0 0 0 .016 2.632c.115.425.278.801.523 1.129.23.327.54.588.916.784.376.197.834.295 1.357.295.54 0 .982-.098 1.341-.31.36-.214.638-.475.867-.819.213-.343.376-.719.474-1.16.098-.442.147-.884.147-1.341a6.513 6.513 0 0 0-.196-1.26zm6.786 8.455a3.3 3.3 0 0 1-.588.768 2.125 2.125 0 0 1-.704.442c-.261.098-.556.13-.915.13-.18 0-.36-.016-.54-.032a2.723 2.723 0 0 1-.523-.131V21.6l.441.147c.148.05.311.066.458.066.31 0 .573-.066.769-.213.196-.147.36-.36.507-.637l.637-1.587-3.728-9.337h1.75l2.747 7.686h.033l2.632-7.686h1.636L66.93 20.67c-.18.473-.36.866-.524 1.177z" fill="#222"/></g></svg>