<?xml version="1.0" encoding="UTF-8"?>
<svg width="71px" height="26px" viewBox="0 0 71 26" version="1.1" xmlns="http://www.w3.org/2000/svg" xmlns:xlink="http://www.w3.org/1999/xlink">
    <!-- Generator: Sketch 42 (36781) - http://www.bohemiancoding.com/sketch -->
    <title>kirby</title>
    <desc>Created with Sketch.</desc>
    <defs></defs>
    <g id="Type-+-Color" stroke="none" stroke-width="1" fill="none" fill-rule="evenodd">
        <g id="1st-version-mirror-desktop" transform="translate(-229.000000, -5694.000000)" fill-rule="nonzero">
            <g id="kirby" transform="translate(229.000000, 5694.000000)">
                <path d="M11.4301887,0 L0,6.4918239 L0,19.4591195 L11.4301887,25.9509434 L22.8603774,19.4591195 L22.8603774,6.4918239 L11.4301887,0 Z M16.5157233,13.245283 L13.3106918,14.9786164 L13.3106918,15.2075472 L16.5157233,15.2075472 L16.5157233,17.709434 L6.32830189,17.709434 L6.32830189,15.2075472 L9.53333333,15.2075472 L9.53333333,14.9622642 L6.32830189,13.245283 L6.32830189,10.1383648 L11.4301887,12.8855346 L16.5157233,10.1383648 L16.5157233,13.245283 Z" id="Shape" fill="#FF0200"></path>
                <g id="Group" transform="translate(33.031447, 6.377358)" fill="#222222">
                    <polygon id="Shape" points="1.55345912 0.0981132075 1.55345912 7.7836478 5.83773585 3.67924528 7.91446541 3.67924528 4.18616352 7.09685535 8.19245283 13.081761 6.23018868 13.081761 3.00880503 8.17610063 1.55345912 9.51698113 1.55345912 13.081761 0 13.081761 0 0.0981132075"></polygon>
                    <path d="M9.43522013,1.97861635 L9.43522013,0.0981132075 L10.972327,0.0981132075 L10.972327,1.99496855 L9.43522013,1.99496855 L9.43522013,1.97861635 Z M10.9886792,3.67924528 L10.9886792,13.081761 L9.45157233,13.081761 L9.45157233,3.67924528 L10.9886792,3.67924528 Z" id="Shape"></path>
                    <path d="M14.7823899,3.67924528 L14.7823899,5.65786164 L14.8150943,5.65786164 C15.191195,4.88930818 15.6490566,4.33333333 16.1886792,3.97358491 C16.7283019,3.61383648 17.4314465,3.43396226 18.2654088,3.46666667 L18.2654088,5.10188679 C17.6440252,5.10188679 17.1207547,5.1836478 16.6792453,5.36352201 C16.2377358,5.52704403 15.8943396,5.78867925 15.6327044,6.11572327 C15.3710692,6.4427673 15.1748428,6.83522013 15.0440252,7.30943396 C14.9295597,7.7836478 14.8641509,8.30691824 14.8641509,8.91194969 L14.8641509,13.0981132 L13.327044,13.0981132 L13.327044,3.67924528 L14.7823899,3.67924528 Z" id="Shape"></path>
                    <path d="M21.0289308,0.0981132075 L21.0289308,4.95471698 L21.0616352,4.95471698 C21.3232704,4.43144654 21.7157233,4.05534591 22.2553459,3.82641509 C22.7949686,3.59748428 23.4,3.46666667 24.0540881,3.46666667 C24.7735849,3.46666667 25.4113208,3.59748428 25.9509434,3.8591195 C26.490566,4.12075472 26.9320755,4.48050314 27.2918239,4.93836478 C27.6515723,5.39622642 27.9132075,5.91949686 28.0930818,6.5081761 C28.272956,7.09685535 28.3710692,7.73459119 28.3710692,8.40503145 C28.3710692,9.0754717 28.2893082,9.69685535 28.109434,10.3018868 C27.9295597,10.890566 27.6679245,11.4138365 27.3081761,11.8553459 C26.9484277,12.2968553 26.5069182,12.6402516 25.9672956,12.9018868 C25.427673,13.163522 24.8062893,13.2779874 24.0867925,13.2779874 C23.8578616,13.2779874 23.5962264,13.245283 23.318239,13.2125786 C23.0402516,13.163522 22.7459119,13.081761 22.4679245,12.9836478 C22.1899371,12.8691824 21.9283019,12.7220126 21.6830189,12.5421384 C21.4377358,12.3622642 21.2251572,12.1169811 21.0616352,11.8389937 L21.0289308,11.8389937 L21.0289308,13.0981132 L19.4918239,13.0981132 L19.4918239,0.0981132075 L21.0289308,0.0981132075 Z M26.5886792,7.01509434 C26.4742138,6.58993711 26.2943396,6.23018868 26.0654088,5.90314465 C25.836478,5.57610063 25.5257862,5.31446541 25.1496855,5.11823899 C24.7735849,4.92201258 24.3484277,4.82389937 23.8578616,4.82389937 C23.3345912,4.82389937 22.8930818,4.92201258 22.5333333,5.13459119 C22.1735849,5.34716981 21.8792453,5.60880503 21.6503145,5.93584906 C21.4213836,6.26289308 21.2578616,6.65534591 21.1433962,7.06415094 C21.045283,7.48930818 20.9962264,7.91446541 20.9962264,8.35597484 C20.9962264,8.81383648 21.045283,9.25534591 21.1597484,9.69685535 C21.2742138,10.1220126 21.4377358,10.4981132 21.6830189,10.8251572 C21.9119497,11.1522013 22.2226415,11.4138365 22.5987421,11.6100629 C22.9748428,11.8062893 23.4327044,11.9044025 23.9559748,11.9044025 C24.4955975,11.9044025 24.9371069,11.8062893 25.2968553,11.5937107 C25.6566038,11.3811321 25.9345912,11.1194969 26.163522,10.7761006 C26.3761006,10.4327044 26.5396226,10.0566038 26.6377358,9.61509434 C26.7358491,9.17358491 26.7849057,8.73207547 26.7849057,8.27421384 C26.7522013,7.8490566 26.7031447,7.42389937 26.5886792,7.01509434 Z" id="Shape"></path>
                    <path d="M33.3748428,15.4691824 C33.1949686,15.7798742 32.9987421,16.0415094 32.7861635,16.2377358 C32.5735849,16.4339623 32.3446541,16.5811321 32.0830189,16.6792453 C31.8213836,16.7773585 31.527044,16.8100629 31.1672956,16.8100629 C30.9874214,16.8100629 30.8075472,16.7937107 30.627673,16.7773585 C30.4477987,16.7446541 30.2679245,16.7119497 30.1044025,16.6465409 L30.1044025,15.2238994 C30.2515723,15.272956 30.3987421,15.3220126 30.5459119,15.3710692 C30.6930818,15.4201258 30.8566038,15.436478 31.0037736,15.436478 C31.3144654,15.436478 31.5761006,15.3710692 31.772327,15.2238994 C31.9685535,15.0767296 32.1320755,14.8641509 32.2792453,14.5861635 L32.9169811,13 L29.1886792,3.66289308 L30.9383648,3.66289308 L33.6855346,11.3484277 L33.718239,11.3484277 L36.3509434,3.66289308 L37.9861635,3.66289308 L33.8981132,14.2918239 C33.718239,14.7660377 33.5383648,15.1584906 33.3748428,15.4691824 Z" id="Shape"></path>
                </g>
            </g>
        </g>
    </g>
</svg>