<?xml version="1.0" encoding="UTF-8"?>
<svg width="516px" height="417px" viewBox="0 0 516 417" version="1.1" xmlns="http://www.w3.org/2000/svg" xmlns:xlink="http://www.w3.org/1999/xlink">
    <!-- Generator: Sketch 46.2 (44496) - http://www.bohemiancoding.com/sketch -->
    <title>logo_blip_powering</title>
    <desc>Created with Sketch.</desc>
    <defs></defs>
    <g id="Type-+-Color" stroke="none" stroke-width="1" fill="none" fill-rule="evenodd">
        <g id="logo_blip_powering" fill-rule="nonzero" fill="#000000">
            <g id="unBVke.tif_1_">
                <g id="Group">
                    <path d="M254.155,25.31 C267.366,38.584 280.276,51.555 293.375,64.717 C293.375,114.055 293.375,163.678 293.375,213.067 C280.18,226.322 267.103,239.457 253.945,252.675 C215.303,252.675 176.528,252.675 137.464,252.675 C137.464,244.098 137.464,235.655 137.464,226.936 C91.487,226.936 45.797,226.936 0.003,226.936 C0.003,151.331 0.003,76.007 0.003,0.509 C45.7,0.509 91.389,0.509 137.379,0.509 C137.379,8.685 137.379,16.888 137.379,25.31 C176.531,25.31 215.382,25.31 254.155,25.31 Z M264.474,170.342 C264.474,141.287 264.474,112.073 264.474,83.242 C260.511,79.186 256.759,75.347 253.123,71.625 C232.145,71.625 211.302,71.625 190.406,71.625 C190.406,123.443 190.406,175.07 190.406,226.805 C198.036,226.805 205.523,226.805 213.26,226.805 C213.26,211.767 213.26,196.931 213.26,181.917 C226.739,181.917 239.968,181.917 253.078,181.917 C256.94,177.995 260.652,174.224 264.474,170.342 Z M25.569,26.581 C25.569,78.414 25.569,130.025 25.569,181.775 C46.552,181.775 67.396,181.775 88.145,181.775 C91.937,177.985 95.672,174.25 99.453,170.47 C99.453,141.28 99.453,112.007 99.453,83.344 C95.356,79.155 91.609,75.323 87.69,71.316 C74.736,71.316 61.599,71.316 48.176,71.316 C48.176,56.327 48.176,41.5 48.176,26.58 C40.517,26.581 33.146,26.581 25.569,26.581 Z M114.888,71.572 C114.888,108.353 114.888,144.998 114.888,181.74 C122.448,181.74 129.866,181.74 137.301,181.74 C137.301,144.922 137.301,108.28 137.301,71.572 C129.756,71.572 122.394,71.572 114.888,71.572 Z M152.87,109.517 C152.87,133.738 152.87,157.702 152.87,181.775 C160.437,181.775 167.872,181.775 175.395,181.775 C175.395,157.63 175.395,133.624 175.395,109.517 C167.814,109.517 160.442,109.517 152.87,109.517 Z M152.916,71.569 C152.916,79.195 152.916,86.686 152.916,94.146 C160.526,94.146 167.956,94.146 175.44,94.146 C175.44,86.548 175.44,79.117 175.44,71.569 C167.847,71.569 160.418,71.569 152.916,71.569 Z" id="Shape"></path>
                    <path d="M213.226,159.079 C213.226,137.431 213.226,116.024 213.226,94.465 C222.625,94.465 231.939,94.465 241.446,94.465 C241.446,115.921 241.446,137.436 241.446,159.079 C232.07,159.079 222.76,159.079 213.226,159.079 Z" id="Shape"></path>
                    <path d="M48.447,94.393 C57.841,94.393 67.086,94.393 76.518,94.393 C76.518,115.965 76.518,137.456 76.518,159.077 C67.157,159.077 57.921,159.077 48.447,159.077 C48.447,137.59 48.447,116.098 48.447,94.393 Z" id="Shape"></path>
                </g>
            </g>
            <g id="Group" transform="translate(137.000000, 286.000000)">
                <path d="M275.47,18.553 C271.722,26.055 268.122,33.295 264.475,40.512 C264.051,41.351 263.944,42.613 262.111,42.544 C257.782,28.861 253.658,14.969 249.307,0.948 C252.786,0.965 256.012,0.98 259.411,0.996 C261.287,7.237 263.143,13.412 265.1,19.926 C266.1,18.082 266.984,16.49 267.833,14.88 C269.977,10.813 272.104,6.737 274.24,2.666 C274.674,1.838 275.003,0.848 276.57,1.37 C279.706,7.234 282.953,13.304 286.446,19.835 C288.353,13.326 290.136,7.239 291.969,0.982 C294.904,0.966 297.782,0.95 301.025,0.932 C300.107,5.737 298.393,10.151 297.137,14.678 C295.861,19.276 294.361,23.812 292.986,28.383 C291.612,32.952 290.273,37.531 288.884,42.223 C288.472,42.338 288.014,42.466 287.389,42.641 C283.424,34.625 279.506,26.708 275.47,18.553 Z" id="Shape"></path>
                <path d="M229.555,0.411 C240.226,1.241 248.661,10.199 248.329,21.552 C248.029,31.786 241.488,39.994 231.635,41.984 C221.248,44.082 211.124,38.992 207.167,29.683 C201.74,16.915 209.957,2.492 223.706,0.723 C225.638,0.474 227.605,0.508 229.555,0.411 Z M226.045,33.347 C232.641,33.905 237.776,29.376 238.337,22.505 C238.886,15.773 234.433,9.834 228.182,9.463 C220.473,9.005 216.178,14.091 215.606,20.097 C214.935,27.138 219.401,32.785 226.045,33.347 Z" id="Shape"></path>
                <path d="M103.136,0.927 C108.517,0.913 113.627,0.626 118.69,0.992 C121.591,1.202 124.598,2.089 127.237,3.344 C132.809,5.993 135.651,10.793 136.579,16.824 C138.114,26.797 133.882,35.595 125.338,39.626 C123.297,40.589 120.996,41.078 118.764,41.535 C117.027,41.891 115.21,41.974 113.429,41.973 C110.117,41.972 106.806,41.822 103.158,41.725 C103.151,28.164 103.144,14.819 103.136,0.927 Z M112.944,32.752 C118.054,33.645 122.021,32.143 124.671,28.007 C127.523,23.555 127.623,18.735 124.916,14.227 C122.257,9.799 117.894,9.046 112.937,9.773 C112.94,17.408 112.942,24.956 112.944,32.752 Z" id="Shape"></path>
                <path d="M64.357,41.308 C64.352,28.034 64.347,14.816 64.342,1.28 C65.911,1.139 67.484,0.934 69.063,0.866 C74.263,0.644 79.466,0.375 84.566,1.84 C92.656,4.164 97.504,10.12 98.027,18.522 C98.285,22.663 97.839,26.726 95.93,30.475 C92.673,36.874 87.351,40.717 80.312,41.504 C75.268,42.068 70.115,41.663 65.011,41.677 C64.866,41.677 64.72,41.519 64.357,41.308 Z M74.122,9.764 C74.145,17.692 74.168,25.316 74.191,32.99 C79.521,33.428 83.728,32.013 86.259,27.478 C88.776,22.968 88.771,18.228 85.913,13.885 C83.182,9.737 78.902,9.178 74.122,9.764 Z" id="Shape"></path>
                <path d="M332.625,1.066 C338.716,0.747 344.579,0.15 350.339,1.87 C354.694,3.17 357.202,6.15 357.885,10.619 C358.754,16.303 356.973,20.879 351.793,24.139 C355.648,29.95 359.452,35.683 363.443,41.699 C359.594,41.727 356.054,41.753 352.441,41.779 C349.162,36.484 345.913,31.237 342.665,25.99 C342.448,26.052 342.231,26.115 342.014,26.177 C341.982,31.301 341.95,36.424 341.916,41.715 C338.747,41.716 335.794,41.716 332.64,41.717 C332.636,28.085 332.631,14.652 332.625,1.066 Z M341.946,19.178 C344.607,19.516 346.678,18.884 348,16.657 C349.198,14.638 349.07,12.504 347.712,10.673 C346.304,8.774 344.24,8.578 341.93,9.168 C341.935,12.551 341.94,15.829 341.946,19.178 Z" id="Shape"></path>
                <path d="M41.258,0.306 C41.889,0.361 42.302,0.397 42.821,0.442 C48.77,14.084 54.718,27.725 60.856,41.802 C58.804,41.8 57.069,41.798 55.335,41.798 C53.551,41.798 51.767,41.799 49.889,41.799 C49.085,39.824 48.323,37.951 47.534,36.011 C43.484,36.001 39.499,35.991 35.412,35.982 C34.613,37.896 33.833,39.766 32.987,41.795 C29.779,41.815 26.563,41.835 22.911,41.858 C29.078,27.89 35.132,14.178 41.258,0.306 Z M41.575,19.334 C40.441,22.433 39.454,25.131 38.374,28.082 C40.66,28.092 42.537,28.101 44.69,28.111 C43.625,25.11 42.674,22.429 41.575,19.334 Z" id="Shape"></path>
                <path d="M175.455,41.786 C175.445,28.149 175.435,14.836 175.424,1.161 C177.219,1.05 179.052,0.856 180.886,0.841 C184.815,0.809 188.746,0.823 192.546,2.084 C198.353,4.011 201.717,8.497 201.779,14.807 C201.833,20.378 198.907,25.9 192.906,27.841 C190.341,28.671 187.618,29.015 184.749,29.627 C184.738,33.459 184.726,37.521 184.713,41.775 C181.579,41.779 178.624,41.782 175.455,41.786 Z M184.736,9.355 C184.725,13.276 184.714,17.058 184.703,20.814 C189.548,21.328 192.346,18.593 192.246,14.857 C192.145,11.123 189.617,9.109 184.736,9.355 Z" id="Shape"></path>
                <path d="M0.953,1.245 C4.876,0.773 8.619,0.661 12.336,1.085 C14.686,1.353 17.118,1.747 19.282,2.643 C24.523,4.811 27.251,8.948 27.281,14.633 C27.312,20.407 24.94,24.965 19.552,27.412 C17.427,28.377 14.976,28.637 12.663,29.171 C11.929,29.34 11.159,29.357 10.259,29.46 C10.241,33.535 10.224,37.51 10.206,41.789 C7.144,41.809 4.207,41.829 0.982,41.85 C0.972,28.262 0.963,14.828 0.953,1.245 Z M10.266,20.981 C14.384,20.82 16.345,19.875 17.251,17.621 C18.13,15.433 18.094,13.271 16.506,11.373 C14.88,9.429 12.782,8.954 10.222,9.511 C10.236,13.347 10.251,17.07 10.266,20.981 Z" id="Shape"></path>
                <path d="M304.363,41.753 C304.363,28.117 304.362,14.754 304.362,0.973 C311.612,0.948 318.721,0.923 326.147,0.897 C326.161,3.595 326.175,6.261 326.19,9.105 C322.049,9.144 318.166,9.181 314.133,9.219 C314.154,11.802 314.175,14.239 314.197,16.937 C317.717,16.974 321.101,17.009 324.753,17.048 C324.758,19.7 324.763,22.374 324.768,25.217 C321.183,25.232 317.883,25.245 314.19,25.26 C314.188,27.907 314.185,30.492 314.183,33.413 C318.22,33.426 322.174,33.439 326.378,33.453 C326.385,36.165 326.392,38.847 326.4,41.735 C318.945,41.74 311.739,41.746 304.363,41.753 Z" id="Shape"></path>
                <path d="M162.372,1.004 C165.795,0.985 169.105,0.966 172.685,0.946 C172.317,1.695 172.069,2.272 171.76,2.814 C167.965,9.464 164.199,16.132 160.328,22.738 C159.552,24.063 159.261,25.364 159.28,26.847 C159.338,31.536 159.344,36.225 159.356,40.914 C159.357,41.147 159.233,41.38 159.117,41.79 C155.999,41.785 152.882,41.78 149.579,41.775 C149.556,38.209 149.531,34.899 149.514,31.59 C149.504,29.715 149.599,27.833 149.462,25.968 C149.397,25.088 149.02,24.171 148.577,23.389 C144.751,16.639 140.874,9.918 137.022,3.183 C136.662,2.554 136.371,1.886 135.918,0.973 C139.743,0.989 143.209,1.004 146.819,1.02 C149.33,5.608 151.811,10.139 154.449,14.959 C157.166,10.173 159.756,5.611 162.372,1.004 Z" id="Shape"></path>
                <path d="M378.115,37.118 C377.815,40.356 374.944,42.736 371.775,42.375 C368.788,42.034 366.351,39.104 366.573,36.122 C366.803,33.029 369.772,30.515 372.906,30.758 C376.085,31.005 378.417,33.852 378.115,37.118 Z" id="Shape"></path>
            </g>
            <g id="Group" transform="translate(137.000000, 349.000000)">
                <path d="M93.119,0.314 L103.103,0.314 L103.103,23.682 L103.28,23.682 C105.153,20.977 109.108,18.493 116.242,18.493 L121.302,18.493 C137.628,18.493 143.878,23.686 143.878,38.312 L143.878,47.962 C143.89,63.746 134.171,67.242 120.892,67.23 L117.608,67.23 C111.258,67.23 106.093,65.277 103.287,61.442 L103.106,61.442 L103.106,65.739 L93.122,65.739 L93.122,0.313 L93.119,0.313 L93.119,0.314 Z M133.895,38.923 C133.895,28.344 129.012,26.789 120.081,26.789 L119.036,26.789 C109.888,26.789 103.1,26.978 103.1,37.922 L103.1,46.909 C103.1,55.731 106.183,58.943 117.485,58.943 L119.76,58.943 C131.665,58.943 133.896,55.173 133.896,46.294 L133.895,38.923 L133.895,38.923 Z" id="Shape"></path>
                <path d="M241.543,27.943 L236.161,27.943 L236.161,19.651 L241.543,19.651 L241.539,15.475 C241.539,4.627 248.259,0.318 256.274,0.318 L269.506,0.31 L269.506,8.172 L259.542,8.172 C254.1,8.172 251.536,11.403 251.536,15.443 L251.536,19.651 L264.936,19.651 L264.936,27.943 L251.536,27.943 L251.536,67.231 L241.544,67.231 L241.543,27.943 L241.543,27.943 Z" id="Shape"></path>
                <path d="M207.231,19.651 L201.845,19.651 L201.845,27.943 L207.231,27.943 L207.227,52.063 C207.227,62.923 213.943,67.22 221.962,67.22 L234.353,67.22 L234.353,58.932 L224.389,58.944 C218.947,58.944 217.223,56.139 217.223,52.099 L217.223,27.939 L230.631,27.939 L230.631,19.647 L217.223,19.647 L217.223,0.314 L207.239,0.314 L207.231,19.651 L207.231,19.651 Z" id="Shape"></path>
                <path d="M322.254,0.322 L332.226,0.322 L332.226,10.784 L322.254,10.792 L322.254,0.322 Z M322.254,18.493 L332.226,18.493 L332.226,67.227 L322.246,67.227 L322.254,18.493 Z" id="Shape"></path>
                <path d="M188.891,53.57 C187.416,57.834 183.855,58.948 176.025,58.948 L173.726,58.948 C160.941,58.948 158.847,57.28 158.847,46.862 L158.859,46.862 L198.497,46.862 L198.497,37.835 C198.497,21.521 190.274,18.494 177.167,18.494 L172.271,18.498 C161.889,18.494 149.301,20.367 149.301,36.971 L149.301,48.49 C149.301,64.603 160.213,67.244 169.755,67.228 L178.73,67.228 C190.828,67.228 196.351,63.257 197.773,56.324 L188.891,53.57 Z M158.863,37.083 C158.863,27.71 163.095,26.786 173.393,26.786 L175.419,26.794 C187.015,26.794 188.502,29.808 188.502,35.954 L188.514,38.575 L158.864,38.587 L158.863,37.083 L158.863,37.083 Z" id="Shape"></path>
                <path d="M290.98,18.493 L287.246,18.493 C273.709,18.493 267.833,22.794 267.451,29.229 L276.973,32.497 C277.411,28.092 282.299,26.782 289.734,26.782 C300.779,26.782 303.383,27.441 303.383,35.689 L303.383,40.138 L303.174,40.138 C300.678,36.706 297.282,35.825 288.628,35.825 L284.733,35.825 C271.972,35.825 264.544,39.093 264.552,49.515 L264.552,52.485 C264.556,61.098 267.731,67.228 281.047,67.228 L290.729,67.228 C300.367,67.228 301.344,65.588 303.249,62.755 L303.394,62.755 L303.394,67.216 L313.386,67.216 L313.386,35.89 C313.388,22.235 304.614,18.493 290.98,18.493 L290.98,18.493 Z M303.4,52.665 C303.4,57.243 300.365,58.943 288.541,58.943 L285.868,58.943 C275.804,58.943 274.53,56.949 274.53,52.99 L274.55,50.418 C274.53,45.84 277.046,44.116 285.366,44.116 L289.807,44.116 C297.387,44.116 303.396,45.655 303.396,50.772 L303.4,52.665 L303.4,52.665 Z" id="Shape"></path>
                <path d="M370.972,29.964 L377.262,25.583 C375.719,21.154 371.539,18.493 362.7,18.493 C358.275,18.493 353.729,20.221 350.936,24.952 L350.578,24.952 L350.578,18.493 L341.121,18.497 L341.121,67.231 L351.097,67.231 L351.097,37.894 C351.097,31.986 354.401,26.777 362.162,26.777 C367.704,26.781 370.381,28.345 370.972,29.964" id="Shape"></path>
                <polygon id="Shape" points="48.867 0.479 48.867 13.879 35.037 13.879 61.801 46.118 88.553 13.879 74.723 13.879 74.723 0.483"></polygon>
                <polygon id="Shape" points="0.953 53.529 14.788 53.529 14.788 66.934 40.644 66.934 40.644 53.529 54.462 53.529 27.718 21.299"></polygon>
            </g>
            <g id="Group" transform="translate(293.000000, 214.000000)">
                <path d="M24.068,15.735 C22.941,14.357 21.533,13.258 19.884,12.469 C18.233,11.681 16.323,11.282 14.208,11.282 C12.57,11.282 10.86,11.721 9.127,12.587 C7.843,13.229 6.726,14.094 5.792,15.169 L5.792,11.907 L0.374,11.907 L0.374,52.8 L5.792,52.8 L5.792,37.871 C6.766,38.941 7.926,39.801 9.256,40.434 C11.025,41.279 12.732,41.707 14.329,41.707 C16.448,41.707 18.35,41.297 19.981,40.489 C21.607,39.683 23.002,38.576 24.129,37.198 C25.249,35.828 26.112,34.202 26.692,32.365 C27.267,30.541 27.559,28.557 27.559,26.467 C27.559,24.377 27.256,22.391 26.66,20.565 C26.06,18.73 25.188,17.105 24.068,15.735 Z M22.082,26.467 C22.082,27.927 21.887,29.323 21.501,30.617 C21.117,31.901 20.566,33.024 19.863,33.955 C19.166,34.88 18.307,35.628 17.31,36.178 C16.326,36.721 15.222,36.996 14.028,36.996 C12.83,36.996 11.734,36.738 10.767,36.229 C9.79,35.717 8.932,34.997 8.216,34.089 C7.491,33.171 6.91,32.092 6.488,30.88 C6.064,29.666 5.83,28.331 5.793,26.923 L5.793,26.468 C5.793,25.011 5.998,23.627 6.402,22.356 C6.805,21.089 7.377,19.964 8.102,19.011 C8.816,18.071 9.692,17.324 10.706,16.793 C11.713,16.265 12.831,15.998 14.028,15.998 C15.223,15.998 16.33,16.265 17.316,16.791 C18.307,17.321 19.164,18.066 19.86,19.006 C20.564,19.958 21.116,21.083 21.501,22.349 C21.886,23.623 22.082,25.009 22.082,26.467 Z" id="Shape"></path>
                <path d="M56.678,15.892 C55.468,14.517 53.96,13.412 52.196,12.608 C50.426,11.803 48.398,11.396 46.167,11.396 C43.935,11.396 41.916,11.804 40.166,12.609 C38.42,13.414 36.931,14.519 35.743,15.895 C34.56,17.267 33.645,18.893 33.023,20.73 C32.405,22.557 32.092,24.525 32.092,26.581 C32.092,28.637 32.405,30.606 33.023,32.432 C33.644,34.269 34.559,35.896 35.743,37.267 C36.932,38.645 38.422,39.742 40.17,40.526 C41.916,41.311 43.933,41.708 46.167,41.708 C48.399,41.708 50.426,41.311 52.192,40.527 C53.959,39.743 55.469,38.648 56.679,37.27 C57.884,35.898 58.81,34.27 59.432,32.432 C60.05,30.606 60.364,28.638 60.364,26.581 C60.364,24.526 60.051,22.557 59.432,20.73 C58.809,18.893 57.883,17.265 56.678,15.892 Z M54.884,26.581 C54.884,28.039 54.679,29.423 54.275,30.694 C53.875,31.953 53.286,33.064 52.527,33.997 C51.773,34.922 50.845,35.661 49.77,36.195 C48.7,36.726 47.487,36.995 46.167,36.995 C44.847,36.995 43.634,36.726 42.565,36.195 C41.491,35.661 40.575,34.923 39.842,34.002 C39.1,33.069 38.521,31.956 38.119,30.694 C37.715,29.423 37.51,28.039 37.51,26.581 C37.51,25.124 37.715,23.74 38.119,22.468 C38.52,21.208 39.099,20.095 39.841,19.16 C40.575,18.237 41.493,17.489 42.57,16.935 C43.638,16.388 44.848,16.11 46.167,16.11 C47.486,16.11 48.697,16.388 49.764,16.935 C50.842,17.49 51.772,18.24 52.527,19.165 C53.287,20.099 53.876,21.211 54.276,22.468 C54.679,23.74 54.884,25.124 54.884,26.581 Z" id="Shape"></path>
                <polygon id="Shape" points="90.307 33.664 84.116 11.908 78.408 11.908 72.045 33.664 65.968 11.908 60.374 11.908 69.307 41.196 74.706 41.196 81.26 18.936 87.815 41.196 93.275 41.196 102.145 11.908 96.555 11.908"></polygon>
                <path d="M127.909,15.481 C126.722,14.224 125.266,13.218 123.58,12.491 C121.895,11.765 119.972,11.397 117.862,11.397 C115.71,11.397 113.731,11.805 111.981,12.61 C110.236,13.413 108.73,14.507 107.506,15.859 C106.282,17.21 105.325,18.785 104.663,20.544 C104.001,22.299 103.666,24.177 103.666,26.126 C103.666,28.223 104,30.231 104.66,32.097 C105.322,33.97 106.287,35.643 107.53,37.068 C108.775,38.497 110.29,39.649 112.034,40.491 C113.786,41.336 115.767,41.765 117.922,41.765 C119.41,41.765 120.89,41.547 122.32,41.118 C123.751,40.688 125.069,40.051 126.236,39.226 C127.404,38.399 128.419,37.371 129.254,36.172 C130.091,34.967 130.686,33.575 131.022,32.036 L131.156,31.42 L126.133,31.42 L126.01,31.751 C124.672,35.356 122.027,37.109 117.924,37.109 C116.727,37.109 115.61,36.842 114.603,36.314 C113.579,35.777 112.666,35.042 111.889,34.13 C111.106,33.211 110.487,32.152 110.049,30.981 C109.669,29.969 109.436,28.911 109.355,27.827 L131.638,27.827 L131.638,25.669 C131.638,23.647 131.313,21.741 130.672,20.004 C130.024,18.261 129.096,16.739 127.909,15.481 Z M126.005,23.57 L109.36,23.57 C109.445,22.721 109.662,21.891 110.006,21.094 C110.42,20.135 111.001,19.28 111.737,18.551 C112.475,17.82 113.348,17.223 114.332,16.775 C115.307,16.334 116.393,16.11 117.56,16.11 C118.855,16.11 120.04,16.318 121.082,16.728 C122.118,17.137 123.004,17.703 123.714,18.407 C124.426,19.116 124.987,19.968 125.38,20.94 C125.715,21.768 125.924,22.65 126.005,23.57 Z" id="Shape"></path>
                <path d="M149.656,11.488 C149.268,11.428 148.897,11.397 148.552,11.397 C145.649,11.397 143.256,12.591 141.417,14.953 L141.545,11.909 L136.106,11.909 L136.106,41.197 L141.523,41.197 L141.523,23.624 C141.523,22.698 141.676,21.799 141.977,20.949 C142.273,20.109 142.725,19.354 143.319,18.706 C143.912,18.059 144.648,17.534 145.505,17.148 C146.36,16.762 147.345,16.567 148.431,16.567 C148.857,16.567 149.536,16.712 150.45,16.999 L151.11,17.206 L151.11,11.888 L150.77,11.769 C150.421,11.643 150.046,11.55 149.656,11.488 Z" id="Shape"></path>
                <rect id="Rectangle-path" x="155.1" y="11.908" width="5.417" height="29.288"></rect>
                <rect id="Rectangle-path" x="155.1" y="0.588" width="5.417" height="5.907"></rect>
                <path d="M181.415,11.396 C179.469,11.396 177.538,11.782 175.675,12.543 C174.147,13.168 172.704,14.134 171.371,15.422 L171.371,11.908 L165.893,11.908 L165.893,41.196 L171.371,41.196 L171.371,23.679 C171.371,22.741 171.606,21.804 172.069,20.895 C172.54,19.972 173.188,19.154 173.997,18.462 C174.815,17.762 175.799,17.189 176.924,16.759 C178.044,16.328 179.272,16.11 180.571,16.11 C182.13,16.11 183.36,16.473 184.227,17.188 C185.065,17.88 185.49,19.126 185.49,20.892 L185.49,41.195 L190.907,41.195 L190.907,20.38 C190.907,17.633 190.064,15.424 188.401,13.815 C186.742,12.21 184.392,11.396 181.415,11.396 Z" id="Shape"></path>
                <path d="M216.965,11.908 L216.965,15.008 C215.86,13.767 214.648,12.882 213.347,12.369 C211.705,11.723 210.151,11.395 208.729,11.395 C206.733,11.395 204.893,11.795 203.262,12.583 C201.636,13.371 200.22,14.467 199.056,15.841 C197.895,17.211 196.991,18.826 196.37,20.642 C195.752,22.449 195.438,24.428 195.438,26.523 C195.438,28.617 195.751,30.605 196.369,32.43 C196.991,34.267 197.905,35.903 199.086,37.289 C200.272,38.684 201.729,39.8 203.415,40.604 C205.104,41.411 207.034,41.82 209.151,41.82 C210.754,41.82 212.354,41.408 213.909,40.596 C215.048,40.001 216.071,39.181 216.965,38.15 L216.965,41.597 C216.965,42.655 216.757,43.657 216.346,44.574 C215.932,45.495 215.373,46.292 214.682,46.944 C213.987,47.598 213.168,48.119 212.247,48.492 C211.326,48.864 210.325,49.052 209.271,49.052 C207.567,49.052 206.105,48.685 204.924,47.96 C203.748,47.238 202.769,46.057 202.012,44.451 L201.875,44.159 L196.366,44.159 L196.613,44.84 C197.732,47.929 199.413,50.216 201.609,51.636 C203.793,53.049 206.371,53.765 209.271,53.765 C210.926,53.765 212.562,53.498 214.136,52.971 C215.716,52.441 217.14,51.655 218.369,50.633 C219.608,49.602 220.606,48.289 221.338,46.732 C222.07,45.17 222.442,43.366 222.442,41.368 L222.442,11.906 L216.965,11.906 L216.965,11.908 Z M216.965,26.183 L216.965,26.637 C216.965,28.102 216.788,29.492 216.44,30.77 C216.096,32.033 215.583,33.157 214.916,34.111 C214.26,35.048 213.453,35.791 212.519,36.321 C211.595,36.843 210.523,37.108 209.332,37.108 C208.135,37.108 207.008,36.831 205.982,36.286 C204.943,35.734 204.033,34.975 203.276,34.027 C202.514,33.076 201.914,31.943 201.493,30.659 C201.07,29.374 200.855,27.983 200.855,26.523 C200.855,25.065 201.069,23.684 201.492,22.417 C201.912,21.155 202.511,20.041 203.273,19.108 C204.029,18.18 204.938,17.439 205.976,16.906 C207.002,16.377 208.131,16.109 209.331,16.109 C210.485,16.109 211.539,16.365 212.464,16.871 C213.396,17.382 214.191,18.097 214.825,18.994 C215.472,19.911 215.986,20.99 216.351,22.203 C216.72,23.427 216.926,24.77 216.965,26.183 Z" id="Shape"></path>
            </g>
        </g>
    </g>
</svg>