<svg width="138" height="26" viewBox="0 0 138 26" xmlns="http://www.w3.org/2000/svg"><title>pixelmatters</title><g fill="#FF695C"><path d="M58.24 15.756c-1.196 1.456-2.964 2.548-4.264 2.548-.728 0-1.612-.936-1.3-3.536 1.976-2.34 6.552-5.668 7.228-10.868.312-2.6-.884-3.692-2.808-3.588-3.952.208-6.916 9.152-7.176 13.884v.26c-1.508 1.716-3.9 3.692-6.24 3.64-.78 0-1.352-.312-1.716-.78-.312-.416-.416-.78-.416-.78s6.812-1.924 6.916-6.604c.052-1.716-1.352-2.912-2.912-2.912-3.9 0-7.384 3.952-7.54 8.736l.052-.052c.26.676.884 1.82.312 2.652.52 1.456 1.664 2.496 3.64 2.548 3.12.104 6.136-2.08 8.008-4.16.416 2.6 1.664 4.108 3.224 4.108 2.34 0 4.004-1.352 5.2-2.808.312-1.092.78-2.704 1.248-4.42a17.443 17.443 0 0 1-1.456 2.132zM56.68 3.38c.676-.052.624.624.572 1.092-.364 2.548-2.86 5.928-4.316 7.8.936-4.056 3.068-8.892 3.744-8.892zM43.836 9.828c.52-.312 1.716-.416 1.976.26.832 2.236-4.628 4.992-4.628 4.992s-.676-3.172 2.652-5.252z"/><path d="M38.012 15.704c-.312.364-1.976 3.068-3.64 3.068-1.196 0-2.08-1.3-2.704-3.016 2.704-2.6 5.668-6.604 5.668-7.228 0-1.56-3.172-1.768-3.536-1.248-.104.156-1.352 3.016-2.964 5.46-.52-2.548-.676-4.992-.676-5.148-.156-.572-.26-.52-.312-.52-.52-.052-2.548 0-3.068 1.196-.156.312.52 4.004 1.612 7.02-1.3 1.3-2.444 2.132-2.86 2.444-.884.624-1.82.936-2.288.884-1.404-.104-1.456-1.612-1.04-4.108.728-4.68 2.08-6.968 2.132-7.02.052-.624-3.276-.52-3.796.936-.26.416-1.612 4.524-1.664 7.384-.052 1.716-.208 5.044 3.848 5.044 1.092 0 2.288-.416 3.692-1.352.832-.572 1.872-1.3 2.86-2.184.052.104.104.208.208.312 1.092 1.82 2.444 3.172 4.316 3.172 2.028 0 3.588-1.196 4.524-2.444v-.052c.572-.78-.052-1.872-.312-2.6zM24.804 4.784c.988-.624 1.352-1.768.884-2.548-.52-.78-1.716-.988-2.704-.364-.988.624-1.352 1.768-.884 2.548.52.832 1.716.988 2.704.364zM13.208 1.196C9.62-.676 4.628.156 1.82 3.588c-.156.156-.26.312-.364.52C.884 4.888 2.6 7.8 3.068 6.5c1.144-3.224 4.68-4.316 7.228-3.224 4.992 2.08 5.096 7.228 3.848 10.608-1.352 3.64-4.472 4.42-5.512 4.212-1.924-.416-2.548-1.456-2.652-2.652.572-1.976.78-3.38.884-4.212.104-1.404-2.444-.572-3.744 0v1.04c-.156 2.496-1.352 5.98-2.34 9.152-.208.676-.364 1.248-.26 1.82.208 1.456 1.768 2.288 2.86 2.288.468 0 .572-.416.52-.624a4.21 4.21 0 0 1 0-1.144c.104-1.3.468-2.86.936-4.524 3.536 3.068 9.828 1.82 12.48-4.992 1.768-4.524 1.04-10.348-4.108-13.052zm106.288 10.4a1.24 1.24 0 0 1-.572-.312c-.52 1.196-1.872 3.796-3.796 5.408-1.144.988-2.548 1.456-3.744 1.352-.728-.104-1.248-.364-1.56-.884-.26-.468-.312-.78-.312-.78s6.604-1.456 7.072-6.084c.156-1.716-1.04-2.964-2.496-3.12-3.172-.364-7.332 3.432-7.852 8.268-.052.312-.052.676-.052.988-.832.936-1.664 1.612-2.548 1.612-1.144 0-1.456-1.456-1.456-2.808 0-1.716.728-4.732 1.248-7.02 3.536-.416 4.628-1.3 4.628-2.652 0-1.404-1.144-2.028-1.144-2.028s-.26 1.196-2.86 2.08c.26-1.248.572-2.184.572-2.86 0-1.924-1.508-2.34-3.068-2.34 0 0 .052 1.56-.052 2.86-.104 1.3-.416 2.392-.52 3.068-1.144.156-2.548.26-4.16.26h-.416c.26-1.248.572-2.964.572-3.744 0-1.144-.416-1.924-2.6-1.976-.156 0-.468.26-.468.416.104.572.156 1.248.156 1.82 0 .936-.208 2.444-.364 3.432-1.248-.104-1.924-.26-1.924-.26s-.572.416-.572 1.092c0 .676.624 1.04 2.132 1.144-.624 2.548-1.508 5.616-1.664 7.644v.104c-.884 1.092-1.976 2.028-2.912 1.924-.312-.052-.884-.156-.624-1.82.156-1.144.52-1.56.728-2.652.104-.728-.312-.676-.572-.676-1.716 0-2.184.364-2.34.676-.416.832-.624 1.612-.78 2.34-.624.832-1.404 1.82-2.548 1.82-1.196 0-2.08-1.196-1.976-2.912.156-3.12 2.496-5.2 4.94-5.096.988.052 1.924.312 2.652.884.208.156 1.3-.364 1.04-1.664-.208-.676-.728-1.768-2.704-1.872-5.096-.208-8.164 4.16-8.58 8.112-3.068 4.212-3.588 2.86-3.536 2.548.104-2.132 2.86-5.928 2.184-8.84-.26-1.144-1.3-1.768-2.34-1.82-1.456-.052-3.12 1.612-4.368 3.328 0-2.132-.78-3.328-2.184-3.38-1.612-.104-3.068 1.248-4.368 3.068.052-.26.104-.624.104-.884.104-1.716-1.456-2.08-2.444-2.08h-.468c.208 1.924-.26 4.316-.78 6.5-.416 1.716-.936 3.328-1.248 4.42-.156.572-.26.988-.26 1.248-.052 1.092.572 1.456 1.352 1.456 1.04 0 2.08-.312 2.08-.312-.156-.624.208-2.912.78-4.888.78-2.756 2.86-6.032 3.848-5.98.624.052.78 1.144.728 2.236-.052 1.456-1.56 5.772-1.664 6.968-.156 1.976 2.132 1.976 2.496 1.976.52 0 .52-3.536 1.872-7.592.572-1.768 2.392-3.484 3.172-3.432.572.052.78 1.04.572 1.924-.468 2.236-1.872 4.42-1.976 6.708-.104 1.716.884 2.34 1.872 2.392.728.052 1.404-.208 2.184-.728.572-.416 2.184-1.716 2.652-2.444.52 1.664 1.82 3.276 3.848 3.276 1.404 0 2.548-.78 3.12-2.028.052.26.104.364.104.364l.052-.052c.312.676.832 1.508 1.924 1.664 1.404.156 3.12-1.196 4.472-2.652.364 1.82 1.352 2.652 2.652 2.652 1.612 0 3.536-1.976 4.732-3.692.208 2.288 1.508 3.692 3.12 3.692 1.404 0 2.912-1.248 4.264-2.704.416 1.404 1.404 2.496 3.172 2.652 2.132.26 4.68-1.04 6.708-2.756 2.34-1.976 4.212-4.94 4.732-6.292l-1.664-.26zm-20.28 2.756c-.832 1.56-1.82 2.964-3.016 2.964-.936 0-1.456-.884-1.456-2.496 0-1.456.676-4.316 1.144-6.396 2.08 0 3.432-.052 4.576-.052-.364 1.872-1.04 4.42-1.248 5.98zm10.14-.78c.156-.364.26-.676.312-.988.364-.936 1.144-2.028 2.548-2.808.52-.312 1.664-.312 1.82.416.624 2.288-4.784 4.628-4.784 4.628s-.052-.468.104-1.248z"/><path d="M133.068 12.584c-1.092-.624-1.456-1.092-1.352-2.028.052-.728.832-1.664 1.976-1.664 1.976 0 1.976 2.132 1.976 2.184 0 .208.052.312.104.312 0 0 .884-.104 1.3-.78.26-.416.676-1.716-.78-2.756-.624-.468-1.56-.78-2.6-.78-1.768 0-4.108.572-4.628 3.692-.26 1.664.78 2.808 2.236 3.796 1.3.832 2.704 1.612 2.6 2.756-.104.936-.78 1.664-1.716 1.612h-.104c-1.352-.104-2.132-1.196-1.976-2.756 0-.156.052-.364.052-.52 0-.104.052-.208.052-.26 0-.26 0-.416-.104-.572a.693.693 0 0 0-.52-.208h-.104c-.468 0-.936.156-1.456.468-.364.26-.624.572-.728 1.092-.312.364-.884 2.496-2.444 2.496-.676 0-1.404-.364-1.092-2.496.208-1.508 1.248-2.964 1.924-3.796.468-.572 1.144-1.352 1.196-1.716.156-1.456-1.196-2.392-2.392-1.612-.884.572-1.82.936-2.652 1.04-.052 0-.156 0-.208-.052-.052-.052-.104-.156-.052-.208.468-.572.936-2.392-.52-2.652-2.236-.416-2.704 1.404-2.756 2.132-.104.884.156 1.56.728 2.028.156.104.364.208.572.312l1.508.156.26.052c.624 0 1.352-.052 2.184-.156h.052c.052 0 .156.052.156.104.052.104 0 .208-.052.26-.572.468-1.196 1.248-1.872 2.288-.676 1.04-.936 2.132-1.092 3.172-.208 1.716 1.3 3.38 2.964 3.38 2.028 0 3.432-1.248 4.108-2.08.156.208.312.468.52.676.832.832 2.028 1.456 3.588 1.456 3.224 0 4.68-1.716 4.992-3.484.416-2.548-2.132-3.952-3.848-4.888z"/></g></svg>