<?xml version="1.0" encoding="UTF-8"?>
<svg width="1565px" height="834px" viewBox="0 0 1565 834" version="1.1" xmlns="http://www.w3.org/2000/svg" xmlns:xlink="http://www.w3.org/1999/xlink">
    <!-- Generator: Sketch 46.2 (44496) - http://www.bohemiancoding.com/sketch -->
    <title>responsive</title>
    <desc>Created with Sketch.</desc>
    <defs></defs>
    <g id="Type-+-Color" stroke="none" stroke-width="1" fill="none" fill-rule="evenodd">
        <g id="responsive" fill-rule="nonzero" fill="#3A3634">
            <g id="Group" transform="translate(217.000000, 0.000000)">
                <g id="Shape">
                    <path d="M646.231,591.759 C646.231,601.019 639.75,608.499 631.719,608.499 L486.558,608.499 C478.535,608.499 472.04,601.019 472.04,591.759 L0.851,591.759 L0.851,623.375 C0.851,641.834 43.402,646.482 61.128,646.482 L1079.078,646.482 C1096.766,646.482 1130.323,641.834 1130.323,623.375 L1130.323,591.759 L646.231,591.759 Z M1061.929,609.66 L1024.529,609.66 C1023.153,609.66 1022.037,608.543 1022.037,607.164 C1022.037,605.787 1023.153,604.672 1024.529,604.672 L1061.929,604.672 C1063.312,604.672 1064.434,605.787 1064.434,607.164 C1064.434,608.543 1063.312,609.66 1061.929,609.66 Z"></path>
                    <path d="M968.336,0.51 L162.862,0.51 C147.37,0.51 134.807,13.071 134.807,28.565 L134.807,511.461 C134.807,511.582 134.788,511.698 134.788,511.819 L134.788,562.849 C134.788,571.11 141.486,577.81 149.755,577.81 L162.862,577.81 L174.069,577.81 L957.104,577.81 L968.336,577.81 L981.42,577.81 C989.684,577.81 996.388,571.11 996.388,562.849 L996.388,549.937 C996.388,549.875 996.388,549.819 996.388,549.752 L996.388,28.565 C996.388,13.071 983.836,0.51 968.336,0.51 Z M565.589,14.245 C570.574,14.245 574.614,18.286 574.614,23.267 C574.614,28.252 570.574,32.288 565.589,32.288 C560.604,32.288 556.57,28.251 556.57,23.267 C556.571,18.285 560.604,14.245 565.589,14.245 Z M954.002,532.932 L177.198,532.932 L177.198,44.161 L954.002,44.161 L954.002,532.932 Z"></path>
                </g>
                <path d="M831.609,69.204 L299.572,69.204 C289.044,69.204 280.504,77.75 280.504,88.285 L280.504,488.818 C280.504,499.343 289.044,507.885 299.572,507.885 L831.609,507.885 C842.143,507.885 850.68,499.343 850.68,488.818 L850.68,88.284 C850.681,77.75 842.144,69.204 831.609,69.204 Z M800.132,465.171 L328.515,465.171 L328.515,111.922 L800.14,111.922 L800.132,465.171 Z M827.556,301.654 C820.466,301.654 814.739,295.905 814.739,288.818 C814.739,281.734 820.467,275.987 827.556,275.987 C834.648,275.987 840.387,281.733 840.387,288.818 C840.387,295.905 834.647,301.654 827.556,301.654 Z" id="Shape"></path>
                <path d="M609.484,163.091 L521.694,163.091 C510.691,163.091 501.773,172.011 501.773,183.012 L501.773,394.079 C501.773,405.083 510.69,414 521.694,414 L609.484,414 C620.488,414 629.405,405.083 629.405,394.079 L629.405,183.012 C629.405,172.012 620.488,163.091 609.484,163.091 Z M565.405,403.812 C559.824,403.812 555.315,399.297 555.315,393.718 C555.315,388.134 559.824,383.624 565.405,383.624 C570.98,383.624 575.508,388.133 575.508,393.718 C575.508,399.297 570.979,403.812 565.405,403.812 Z M619.441,367.8 L511.369,367.8 L511.369,205.207 L619.441,205.207 L619.441,367.8 Z" id="Shape"></path>
            </g>
            <g id="Group" transform="translate(0.000000, 718.000000)">
                <path d="M21.369,71.316 L21.369,113.861 L0.522,113.861 L0.522,7.787 L33.038,7.787 C43.757,7.787 52.198,10.539 58.366,16.06 C64.528,21.558 67.6,29.217 67.6,39.025 C67.6,44.489 66.316,49.226 63.741,53.245 C61.173,57.26 57.406,60.478 52.446,62.907 C58.11,64.677 62.189,67.723 64.687,72.047 C67.199,76.359 68.448,81.705 68.448,88.08 L68.448,95.808 C68.448,98.798 68.799,101.915 69.507,105.18 C70.211,108.436 71.432,110.826 73.141,112.341 L73.141,113.862 L51.539,113.862 C49.769,112.341 48.647,109.815 48.168,106.276 C47.689,102.744 47.442,99.192 47.442,95.659 L47.442,88.226 C47.442,82.873 46.287,78.719 43.998,75.757 C41.696,72.802 38.401,71.317 34.104,71.317 L21.369,71.317 L21.369,71.316 Z M21.369,55.18 L32.962,55.18 C37.464,55.18 40.877,53.858 43.198,51.239 C45.513,48.609 46.686,44.858 46.686,40.015 C46.686,35.059 45.513,31.129 43.198,28.215 C40.877,25.317 37.477,23.861 33.037,23.861 L21.368,23.861 L21.368,55.18 L21.369,55.18 Z" id="Shape"></path>
                <polygon id="Shape" points="147.649 67.005 114.524 67.005 114.524 97.786 154.172 97.786 154.172 113.861 93.594 113.861 93.594 7.714 154.036 7.714 154.036 23.861 114.524 23.861 114.524 50.926 147.649 50.926 147.649 67.005"></polygon>
                <path d="M223.363,86.031 C223.363,81.832 222.319,78.562 220.211,76.213 C218.118,73.858 214.208,71.502 208.509,69.13 C197.683,65.38 189.613,61.066 184.279,56.162 C178.947,51.257 176.281,44.406 176.281,35.609 C176.281,26.882 179.278,19.78 185.302,14.343 C191.315,8.914 199.23,6.2 209.032,6.2 C219.5,6.2 227.758,9.092 233.827,14.876 C239.883,20.664 242.826,28.483 242.62,38.34 L242.471,38.8 L222.15,38.8 C222.15,33.24 221.046,29.058 218.843,26.254 C216.658,23.442 213.277,22.043 208.73,22.043 C204.792,22.043 201.894,23.302 200.054,25.836 C198.202,28.36 197.283,31.646 197.283,35.692 C197.283,39.433 198.387,42.459 200.613,44.793 C202.846,47.111 206.907,49.584 212.825,52.217 C223.286,55.654 231.136,59.909 236.371,64.984 C241.597,70.073 244.204,77.034 244.204,85.879 C244.204,95.025 241.14,102.235 234.995,107.49 C228.856,112.751 220.614,115.367 210.247,115.367 C200.033,115.367 191.372,112.57 184.237,106.996 C177.105,101.41 173.677,92.88 173.941,81.407 L174.089,80.947 L194.398,80.947 C194.398,87.569 195.713,92.344 198.349,95.249 C200.968,98.151 204.938,99.603 210.247,99.603 C214.75,99.603 218.051,98.36 220.166,95.89 C222.3,93.416 223.363,90.122 223.363,86.031 Z" id="Shape"></path>
                <path d="M288.631,76.857 L288.631,113.861 L267.711,113.861 L267.711,7.714 L304.024,7.714 C314.837,7.714 323.421,10.944 329.76,17.373 C336.105,23.823 339.282,32.15 339.282,42.361 C339.282,52.576 336.105,60.881 329.76,67.267 C323.421,73.665 314.837,76.857 304.024,76.857 L288.631,76.857 Z M288.631,60.782 L304.024,60.782 C308.666,60.782 312.231,59.025 314.675,55.515 C317.133,51.998 318.35,47.669 318.35,42.516 C318.35,37.256 317.132,32.838 314.675,29.24 C312.23,25.656 308.665,23.861 304.024,23.861 L288.631,23.861 L288.631,60.782 Z" id="Shape"></path>
                <path d="M435.797,73.447 C435.797,86.336 432.207,96.546 425.021,104.08 C417.861,111.602 408.334,115.367 396.449,115.367 C384.567,115.367 375.034,111.602 367.829,104.08 C360.615,96.546 357.022,86.336 357.022,73.447 L357.022,48.278 C357.022,35.438 360.596,25.217 367.756,17.611 C374.898,10.007 384.411,6.201 396.297,6.201 C408.179,6.201 417.717,10.007 424.951,17.611 C432.179,25.217 435.797,35.438 435.797,48.278 L435.797,73.447 L435.797,73.447 Z M414.95,48.13 C414.95,39.888 413.317,33.543 410.105,29.097 C406.864,24.651 402.246,22.422 396.298,22.422 C390.279,22.422 385.738,24.651 382.656,29.097 C379.567,33.543 378.019,39.888 378.019,48.123 L378.019,73.447 C378.019,81.74 379.592,88.101 382.731,92.554 C385.845,96.999 390.431,99.226 396.449,99.226 C402.417,99.226 406.978,96.999 410.171,92.554 C413.358,88.101 414.95,81.74 414.95,73.447 L414.95,48.13 L414.95,48.13 Z" id="Shape"></path>
                <polygon id="Shape" points="536.775 113.861 515.852 113.861 481.43 45.852 480.973 45.921 480.973 113.86 460.05 113.86 460.05 7.713 480.973 7.713 515.406 75.648 515.853 75.576 515.853 7.714 536.776 7.714 536.776 113.861"></polygon>
                <path d="M609.616,86.031 C609.616,81.832 608.576,78.562 606.464,76.213 C604.364,73.858 600.458,71.502 594.75,69.13 C583.936,65.38 575.869,61.066 570.535,56.162 C565.196,51.257 562.532,44.403 562.532,35.609 C562.532,26.882 565.538,19.78 571.557,14.35 C577.569,8.914 585.485,6.201 595.296,6.201 C605.742,6.201 614.012,9.093 620.075,14.877 C626.151,20.665 629.069,28.484 628.866,38.341 L628.733,38.801 L608.4,38.801 C608.4,33.241 607.296,29.059 605.108,26.255 C602.907,23.443 599.526,22.044 594.986,22.044 C591.028,22.044 588.15,23.303 586.297,25.837 C584.458,28.361 583.526,31.647 583.526,35.693 C583.526,39.434 584.649,42.46 586.869,44.794 C589.088,47.112 593.172,49.585 599.084,52.218 C609.536,55.655 617.388,59.91 622.62,64.985 C627.852,70.074 630.453,77.035 630.453,85.88 C630.453,95.026 627.39,102.236 621.25,107.491 C615.117,112.752 606.859,115.368 596.502,115.368 C586.278,115.368 577.628,112.571 570.493,106.997 C563.37,101.411 559.933,92.881 560.187,81.408 L560.326,80.955 L580.653,80.955 C580.653,87.57 581.966,92.346 584.598,95.25 C587.23,98.155 591.194,99.604 596.502,99.604 C600.992,99.604 604.315,98.365 606.434,95.891 C608.551,93.416 609.616,90.122 609.616,86.031 Z" id="Shape"></path>
                <polygon id="Shape" points="676.014 113.861 655.015 113.861 655.015 7.714 676.014 7.714"></polygon>
                <polygon id="Shape" points="735.904 86.719 736.804 91.188 737.267 91.264 738.181 86.941 756.904 7.714 778.892 7.714 748.031 113.861 726.195 113.861 695.34 7.714 717.329 7.714"></polygon>
                <polygon id="Shape" points="851.13 67.005 818.005 67.005 818.005 97.786 857.656 97.786 857.656 113.861 797.075 113.861 797.075 7.714 857.505 7.714 857.505 23.861 818.005 23.861 818.005 50.926 851.13 50.926"></polygon>
                <path d="M897.403,113.861 L897.403,7.714 L930.757,7.714 C942.078,7.714 951.407,11.859 958.772,20.149 C966.129,28.435 969.807,39.077 969.807,52.069 L969.807,69.653 C969.807,82.652 966.129,93.259 958.772,101.501 C951.408,109.739 942.079,113.862 930.757,113.862 L897.403,113.862 L897.403,113.861 Z M918.32,23.861 L918.32,97.786 L930.757,97.786 C936.218,97.786 940.6,95.164 943.948,89.941 C947.285,84.7 948.953,77.951 948.953,69.652 L948.953,51.919 C948.953,43.681 947.285,36.942 943.948,31.703 C940.599,26.477 936.218,23.861 930.757,23.861 L918.32,23.861 Z" id="Shape"></path>
                <polygon id="Shape" points="1046.422 67.005 1013.27 67.005 1013.27 97.786 1052.922 97.786 1052.922 113.861 992.354 113.861 992.354 7.714 1052.789 7.714 1052.789 23.861 1013.27 23.861 1013.27 50.926 1046.422 50.926"></polygon>
                <path d="M1121.799,86.031 C1121.799,81.832 1120.765,78.566 1118.665,76.213 C1116.566,73.858 1112.652,71.502 1106.939,69.13 C1096.125,65.38 1088.051,61.066 1082.73,56.162 C1077.383,51.257 1074.72,44.403 1074.72,35.613 C1074.72,26.88 1077.726,19.776 1083.751,14.35 C1089.757,8.917 1097.665,6.201 1107.47,6.201 C1117.936,6.201 1126.199,9.093 1132.263,14.877 C1138.338,20.665 1141.269,28.484 1141.067,38.341 L1140.908,38.804 L1120.594,38.804 C1120.594,33.242 1119.496,29.059 1117.296,26.255 C1115.095,23.446 1111.728,22.044 1107.168,22.044 C1103.23,22.044 1100.337,23.303 1098.479,25.837 C1096.646,28.364 1095.727,31.647 1095.727,35.69 C1095.727,39.435 1096.836,42.461 1099.069,44.792 C1101.282,47.113 1105.354,49.586 1111.272,52.219 C1121.736,55.659 1129.575,59.911 1134.808,64.986 C1140.046,70.075 1142.653,77.036 1142.653,85.881 C1142.653,95.029 1139.583,102.237 1133.437,107.489 C1127.298,112.753 1119.047,115.372 1108.69,115.372 C1098.472,115.372 1089.809,112.572 1082.68,106.998 C1075.551,101.412 1072.126,92.882 1072.381,81.412 L1072.526,80.956 L1092.847,80.956 C1092.847,87.571 1094.16,92.347 1096.785,95.251 C1099.41,98.156 1103.387,99.605 1108.689,99.605 C1113.179,99.605 1116.503,98.366 1118.621,95.892 C1120.746,93.416 1121.799,90.122 1121.799,86.031 Z" id="Shape"></path>
                <polygon id="Shape" points="1187.898 113.861 1166.879 113.861 1166.879 7.714 1187.898 7.714"></polygon>
                <path d="M1286.735,99.375 C1283.59,103.723 1279.105,107.476 1273.284,110.633 C1267.442,113.795 1259.92,115.37 1250.73,115.37 C1239.092,115.37 1229.731,111.796 1222.64,104.646 C1215.531,97.494 1211.973,87.546 1211.973,74.808 L1211.973,46.766 C1211.973,34.119 1215.435,24.197 1222.368,17.004 C1229.287,9.8 1238.369,6.2 1249.589,6.2 C1261.304,6.2 1270.195,9.092 1276.245,14.876 C1282.271,20.664 1285.201,28.639 1284.992,38.806 L1284.846,39.249 L1265.134,39.249 C1265.134,33.641 1263.866,29.425 1261.342,26.594 C1258.811,23.766 1255.095,22.341 1250.192,22.341 C1244.833,22.341 1240.629,24.425 1237.577,28.594 C1234.501,32.768 1232.979,38.775 1232.979,46.604 L1232.979,74.808 C1232.979,82.796 1234.514,88.875 1237.602,93.045 C1240.685,97.218 1245.061,99.302 1250.731,99.302 C1254.771,99.302 1257.942,98.772 1260.245,97.706 C1262.541,96.65 1264.367,95.287 1265.737,93.612 L1265.737,72.685 L1249.204,72.685 L1249.204,58.507 L1286.736,58.507 L1286.736,99.375 L1286.735,99.375 Z" id="Shape"></path>
                <polygon id="Shape" points="1387.559 113.861 1366.629 113.861 1332.216 45.852 1331.759 45.921 1331.759 113.86 1310.836 113.86 1310.836 7.713 1331.759 7.713 1366.186 75.648 1366.629 75.576 1366.629 7.714 1387.559 7.714 1387.559 113.861"></polygon>
                <polygon id="Shape" points="1436.096 113.861 1415.395 113.861 1415.395 95.436 1436.096 95.436"></polygon>
                <path d="M1485.224,15.75 L1464.307,15.75 L1464.307,0.135 L1485.224,0.135 L1485.224,15.75 Z M1485.224,113.861 L1464.307,113.861 L1464.307,35.007 L1485.224,35.007 L1485.224,113.861 Z" id="Shape"></path>
                <path d="M1544.339,93.23 C1544.339,90.909 1543.426,88.932 1541.6,87.28 C1539.78,85.64 1536.28,83.636 1531.079,81.259 C1522.821,78.322 1516.638,74.974 1512.489,71.213 C1508.36,67.451 1506.28,62.629 1506.28,56.775 C1506.28,50.346 1508.907,44.861 1514.164,40.314 C1519.422,35.772 1526.405,33.496 1535.088,33.496 C1544.093,33.496 1551.273,35.846 1556.663,40.545 C1562.041,45.241 1564.604,51.166 1564.356,58.291 L1564.204,58.745 L1543.96,58.745 C1543.96,55.453 1543.211,52.802 1541.729,50.776 C1540.231,48.76 1537.993,47.744 1535.004,47.744 C1532.544,47.744 1530.444,48.53 1528.713,50.102 C1527.001,51.663 1526.133,53.566 1526.133,55.782 C1526.133,58.11 1526.982,59.991 1528.682,61.43 C1530.375,62.869 1533.977,64.855 1539.49,67.379 C1547.981,70.261 1554.299,73.625 1558.434,77.467 C1562.587,81.304 1564.662,86.321 1564.662,92.482 C1564.662,99.199 1561.909,104.694 1556.43,108.967 C1550.944,113.243 1543.707,115.37 1534.721,115.37 C1525.366,115.37 1517.964,112.751 1512.491,107.487 C1507.037,102.235 1504.455,96.296 1504.766,89.672 L1504.919,89.215 L1523.94,89.215 C1524.041,93.464 1525.087,96.534 1527.053,98.438 C1529.037,100.327 1531.753,101.273 1535.241,101.273 C1538.222,101.273 1540.479,100.549 1542.028,99.112 C1543.572,97.666 1544.339,95.709 1544.339,93.23 Z" id="Shape"></path>
            </g>
        </g>
    </g>
</svg>