<svg width="170" height="39" viewBox="0 0 170 39" xmlns="http://www.w3.org/2000/svg"><title>seegno</title><g fill="#08E5BC"><path d="M59.597.61l-3.169 6.093h12.31V.61M53.381 12.797l-3.047 6.215h18.282v-6.215M47.288 25.106l-3.047 6.216h24.496v-6.216m31.079-13.893l-4.388 4.265c-1.706-2.072-4.266-3.169-7.434-3.169-5.606 0-9.75 4.144-9.75 10.116 0 6.216 4.265 10.238 9.628 10.238 4.997 0 7.922-2.438 8.775-6.825h-7.8v-5.12h14.137c.122.61.122 1.098.122 1.707 0 9.262-6.337 15.844-14.99 15.844-8.532 0-16.088-5.972-16.088-15.966 0-9.262 6.825-15.966 16.21-15.966 4.874.244 8.896 1.95 11.578 4.876m28.884 26.69l-16.453-20.597v20.597h-6.216V7.07h5.728l16.575 20.597V7.069h6.216v30.834m9.628-15.478c0 5.972 4.144 10.116 9.75 10.116 5.728 0 9.75-4.144 9.75-10.116 0-5.972-4.022-10.116-9.75-10.116-5.728.122-9.75 4.144-9.75 10.116m25.838 0c0 9.262-6.703 15.966-16.21 15.966-9.506 0-16.087-6.703-16.087-15.966 0-9.14 6.703-15.966 16.087-15.966 9.506.122 16.21 6.825 16.21 15.966M16.087 19.744l-1.706-.244c-1.828-.244-3.29-.61-4.387-1.097-.732-.365-1.219-.731-1.585-1.219a2.059 2.059 0 0 1-.365-1.218c0-1.585 1.097-2.682 2.925-3.291.731-.244 1.584-.366 2.437-.366h.488c3.412 0 6.337 1.097 8.775 2.56l2.925-4.997c-3.047-1.828-5.728-2.803-8.897-3.047-.731-.122-1.463-.122-2.194-.122h-.731c-6.581 0-12.31 3.29-12.31 9.75 0 3.169 1.341 5.363 3.413 6.703.487.366 1.097.61 1.706.975 1.219.488 2.681.975 4.144 1.219l1.95.366c4.266.73 6.581 1.462 6.581 3.656 0 2.316-2.56 3.656-6.094 3.656-4.021 0-7.556-1.584-9.75-3.29L.487 34.855c3.291 2.56 8.166 3.9 12.676 3.9 6.58 0 12.553-3.29 12.553-9.994.243-5.728-4.144-8.165-9.629-9.018"/><path d="M34.856 24.619h12.675l2.803-5.607H34.856v-6.58h18.769l2.803-5.729H28.763v30.835h12.309l3.169-6.216h-9.385"/></g></svg>