<svg width="433" height="83" viewBox="0 0 433 83" xmlns="http://www.w3.org/2000/svg"><title>unixstickers-logo</title><g fill-rule="nonzero" fill="none"><path d="M158.432 65.061h10.448V26.762h-10.448v38.299zm9.234-52.224a4.576 4.576 0 0 0-1.8-.839 9.548 9.548 0 0 0-2.191-.24c-.776 0-1.513.079-2.209.24a4.563 4.563 0 0 0-1.815.839c-.513.4-.92.925-1.218 1.575-.296.652-.445 1.467-.445 2.449 0 .96.149 1.77.445 2.433.298.661.705 1.194 1.218 1.593.513.4 1.116.685 1.815.857a9.184 9.184 0 0 0 2.209.257c.776 0 1.507-.085 2.191-.257a4.77 4.77 0 0 0 1.8-.857c.513-.399.925-.931 1.233-1.593.31-.663.463-1.473.463-2.433 0-.982-.152-1.797-.463-2.449-.308-.649-.72-1.175-1.233-1.575zM50.795 28.604c-.388.445-.666.733-.988 1.087l-1.881 2.038a324.173 324.173 0 0 1-3.332 3.508v22.915c0 11.853-7.947 16.126-15.386 16.174h-5.09c-7.475-.046-15.455-4.32-15.455-16.174V35.949l-1.302-1.648A179.28 179.28 0 0 1 4 29.828C2.902 28.313 1.827 26.78.812 25.184H.81V58.15c0 18.853 14.607 23.975 23.273 24.028l5.141-.002c8.627-.054 23.225-5.175 23.225-24.027v-31.72a19.27 19.27 0 0 1-1.654 2.175zM211.2 26.762h-11.855l-6.472 11.511-6.373-11.511h-11.852L186.98 45.5l-12.983 19.561h11.852l7.024-12.402 7.022 12.402h11.851L198.694 45.5 211.2 26.762zM96.491 44.781c0 2.031-.116 3.838-.343 5.412-.23 1.575-.612 2.9-1.146 3.973-.537 1.073-1.263 1.884-2.176 2.433-.914.548-2.057.822-3.427.822-1.827 0-3.155-.691-3.991-2.073-.833-1.381-1.251-3.454-1.251-6.217v-22.37H73.71v24.973c0 2.466.296 4.579.89 6.336.594 1.76 1.439 3.211 2.534 4.353a9.908 9.908 0 0 0 3.94 2.516c1.529.538 3.23.805 5.102.805 1.099 0 2.17-.107 3.221-.325a12.44 12.44 0 0 0 2.982-1.011 11.476 11.476 0 0 0 2.585-1.73 10.143 10.143 0 0 0 2.039-2.518h.546l1.406 4.9h7.983V26.762H96.489v18.019h.002zm49.487-15.416a10 10 0 0 0-3.94-2.518c-1.529-.536-3.233-.805-5.105-.805-1.096 0-2.167.109-3.218.325a12.501 12.501 0 0 0-2.979 1.01c-.937.458-1.8 1.039-2.588 1.748a9.715 9.715 0 0 0-2.003 2.534h-.585l-1.403-4.899h-7.98v38.299h10.445V47.042c0-2.033.116-3.838.343-5.412.227-1.576.612-2.9 1.146-3.975.537-1.073 1.263-1.884 2.176-2.433.913-.546 2.057-.821 3.427-.821 1.827 0 3.155.691 3.991 2.072.833 1.382 1.248 3.455 1.248 6.218v22.37h10.448V40.087c0-2.464-.295-4.584-.889-6.354-.594-1.769-1.439-3.225-2.534-4.368zm92.119 18.516c-.913-.857-2.015-1.628-3.305-2.312a51.085 51.085 0 0 0-4.403-2.055c-1.597-.663-2.934-1.263-4.006-1.799-1.075-.536-1.929-1.067-2.567-1.593-.642-.525-1.093-1.085-1.355-1.679-.262-.593-.394-1.289-.394-2.09 0-1.415.558-2.506 1.678-3.272 1.12-.764 2.845-1.148 5.173-1.148 1.621 0 3.215.248 4.779.737a42.078 42.078 0 0 1 4.573 1.73l2.158-5.036a29.84 29.84 0 0 0-5.224-1.884c-1.839-.479-3.866-.719-6.081-.719-1.964 0-3.747.218-5.344.651-1.597.434-2.97 1.075-4.111 1.918a8.791 8.791 0 0 0-2.657 3.135c-.627 1.245-.94 2.667-.94 4.266 0 1.528.245 2.848.737 3.955a8.826 8.826 0 0 0 2.104 2.93c.914.843 2.027 1.609 3.341 2.294a66.284 66.284 0 0 0 4.436 2.09c1.645.707 2.991 1.348 4.042 1.918 1.051.571 1.881 1.137 2.484 1.697.606.56 1.024 1.124 1.251 1.696.23.57.343 1.209.343 1.918 0 .821-.149 1.57-.445 2.243-.298.673-.77 1.245-1.421 1.712-.651.47-1.499.829-2.537 1.079-1.039.252-2.302.378-3.785.378-1.003 0-2.015-.085-3.03-.257a27.725 27.725 0 0 1-2.964-.667 26.687 26.687 0 0 1-2.74-.943 29.104 29.104 0 0 1-2.364-1.078v5.685c1.349.776 2.914 1.366 4.693 1.764 1.782.399 3.92.599 6.406.599 2.194 0 4.167-.228 5.929-.684 1.758-.457 3.257-1.148 4.505-2.073a9.28 9.28 0 0 0 2.86-3.443c.663-1.369.991-2.967.991-4.794 0-1.532-.239-2.845-.72-3.941a8.829 8.829 0 0 0-2.09-2.928zm40.424-33.589a3.046 3.046 0 0 0-1.164-.702 4.48 4.48 0 0 0-1.421-.222c-1.027 0-1.893.307-2.588.924-.696.616-1.045 1.611-1.045 2.981 0 1.348.349 2.341 1.045 2.979.696.64 1.561.96 2.588.96 1.003 0 1.866-.325 2.585-.976.719-.651 1.081-1.639 1.081-2.963 0-.685-.098-1.273-.293-1.764a3.418 3.418 0 0 0-.788-1.217zm121.861 12.47c-1.278 0-2.421.212-3.424.634a10.21 10.21 0 0 0-2.725 1.678 13.529 13.529 0 0 0-2.191 2.415 36.203 36.203 0 0 0-1.833 2.844h-.272l-.755-6.886h-5.072v37.614h6.236v-20.28c0-1.851.233-3.533.702-5.053s1.131-2.821 1.988-3.906c.857-1.084 1.878-1.918 3.066-2.5 1.185-.582 2.499-.875 3.941-.875.594 0 1.224.04 1.899.121.675.08 1.331.178 1.97.291l.821-5.755c-.594-.114-1.302-.2-2.123-.257a33.798 33.798 0 0 0-2.228-.085zm-26.999 4.642a12.922 12.922 0 0 0-4.591-3.426c-1.803-.812-3.836-1.216-6.099-1.216-2.305 0-4.412.445-6.317 1.336-1.908.891-3.546 2.187-4.917 3.888-1.37 1.702-2.433 3.773-3.185 6.218-.755 2.443-1.131 5.218-1.131 8.323 0 3.084.409 5.824 1.233 8.223.821 2.397 1.982 4.406 3.478 6.027a14.695 14.695 0 0 0 5.361 3.7c2.075.845 4.373 1.267 6.884 1.267 1.164 0 2.245-.045 3.236-.136.994-.092 1.952-.24 2.878-.446a21.63 21.63 0 0 0 2.708-.788c.878-.32 1.776-.696 2.69-1.13v-5.548a44.4 44.4 0 0 1-2.639 1.114c-.869.33-1.764.604-2.69.821-.925.218-1.884.382-2.878.497-.991.113-2.072.17-3.236.17-3.448 0-6.045-1.039-7.791-3.117-1.75-2.078-2.681-5.321-2.794-9.729h23.706v-3.87c0-2.512-.337-4.803-1.012-6.869-.673-2.067-1.64-3.836-2.894-5.309zm-19.664 10.978c.251-3.402 1.137-5.994 2.657-7.777 1.516-1.781 3.576-2.672 6.182-2.672 1.415 0 2.624.252 3.63.754a6.693 6.693 0 0 1 2.484 2.125c.651.912 1.131 2.014 1.439 3.305.307 1.291.463 2.712.463 4.264h-16.855v.001zm-89.268 18.019c-.478.069-.976.125-1.49.172-.514.046-.976.069-1.388.069-1.645 0-2.824-.56-3.544-1.679-.719-1.118-1.08-2.785-1.08-5.002V32.14h9.454v-4.693h-9.454v-8.632h-3.594l-2.675 7.878-5.308 2.672v2.775h5.308v21.821c0 2.307.251 4.221.755 5.739.502 1.52 1.194 2.724 2.072 3.614a7.28 7.28 0 0 0 3.134 1.885c1.209.363 2.523.546 3.941.546.57 0 1.152-.028 1.746-.085a19.71 19.71 0 0 0 1.714-.24 14.652 14.652 0 0 0 1.508-.358 8.582 8.582 0 0 0 1.128-.412v-4.727c-.206.069-.507.148-.907.239-.401.092-.84.171-1.32.239zm167.751-9.591a8.865 8.865 0 0 0-2.09-2.929c-.914-.857-2.015-1.628-3.308-2.312a51 51 0 0 0-4.4-2.055 64.45 64.45 0 0 1-4.009-1.799c-1.075-.536-1.928-1.067-2.567-1.593-.639-.525-1.09-1.085-1.355-1.679-.263-.593-.391-1.289-.391-2.09 0-1.415.558-2.506 1.678-3.272 1.12-.764 2.842-1.148 5.173-1.148 1.621 0 3.212.248 4.777.737a42.078 42.078 0 0 1 4.573 1.73l2.158-5.036a29.84 29.84 0 0 0-5.224-1.884c-1.839-.479-3.866-.719-6.081-.719-1.961 0-3.743.218-5.344.651-1.6.434-2.967 1.075-4.111 1.918a8.783 8.783 0 0 0-2.654 3.135c-.63 1.245-.943 2.667-.943 4.266 0 1.528.245 2.848.737 3.955a8.88 8.88 0 0 0 2.108 2.93c.913.843 2.024 1.609 3.34 2.294a65.817 65.817 0 0 0 4.436 2.09c1.642.707 2.991 1.348 4.042 1.918 1.048.571 1.878 1.137 2.484 1.697.603.56 1.021 1.124 1.251 1.696.227.57.34 1.209.34 1.918 0 .821-.149 1.57-.445 2.243-.298.673-.77 1.245-1.421 1.712-.651.47-1.496.829-2.534 1.079-1.039.252-2.302.378-3.788.378a18.15 18.15 0 0 1-3.03-.257 27.89 27.89 0 0 1-2.964-.667 26.384 26.384 0 0 1-2.737-.943 29.104 29.104 0 0 1-2.364-1.078v5.685c1.346.776 2.911 1.366 4.693 1.764 1.782.399 3.917.599 6.403.599 2.194 0 4.17-.228 5.929-.684 1.758-.457 3.26-1.148 4.505-2.073a9.252 9.252 0 0 0 2.86-3.443c.663-1.369.994-2.967.994-4.794-.002-1.531-.24-2.845-.721-3.94zm-87.367-23.363h-7.227l-10.036 12.366-4.624 5.824h-.137l.546-9.42v-24.46h-6.165V65.06h6.165V50.604l3.734-2.809 11.511 17.267h7.159L331.1 43.718l13.735-16.271zm-72.052 37.614h6.233V27.447h-6.233v37.614zm29.47-32.818c.594 0 1.224.052 1.887.155.66.103 1.334.239 2.021.411a25.118 25.118 0 0 1 3.731 1.249l1.851-5.273c-1.14-.572-2.564-1.051-4.266-1.44a23.42 23.42 0 0 0-5.224-.582c-2.328 0-4.511.354-6.544 1.063a13.547 13.547 0 0 0-5.323 3.408c-1.522 1.566-2.714 3.597-3.582 6.097-.869 2.5-1.302 5.545-1.302 9.13 0 3.424.421 6.354 1.269 8.786.845 2.433 2.009 4.43 3.493 5.996a13.341 13.341 0 0 0 5.242 3.426c2.009.718 4.167 1.078 6.475 1.078 2.03 0 3.749-.17 5.155-.513a16.678 16.678 0 0 0 3.956-1.506v-5.549a27.513 27.513 0 0 1-4.093 1.488c-1.496.424-3.17.634-5.018.634-3.382 0-5.899-1.114-7.556-3.339-1.654-2.227-2.484-5.75-2.484-10.568 0-4.843.824-8.411 2.469-10.705 1.643-2.298 4.258-3.446 7.843-3.446z" fill="#010202"/><path d="M47.685.284L.81 25.18l10.989 10.99c10.562 10.56 21.813 4.89 26.288.415l10.015-10.014c4.473-4.474 10.142-15.726-.417-26.287z" fill="#009FE3"/></g></svg>