<svg width="180" height="33" viewBox="0 0 180 33" xmlns="http://www.w3.org/2000/svg"><title>usersnap-logo</title><path d="M46.379 27.394c-.446-.658-.756-1.402-1.049-1.956.945-1.004 1.771-1.837 2.545-2.715 1.705-1.936 2.876-4.125 2.969-6.75.108-3.097-1.248-5.618-3.337-7.789-3.154-3.28-7.115-5.226-11.436-6.484C29.31-.272 22.489-.668 15.64 1.256c-4.218 1.185-8.002 3.157-11.086 6.3-2.322 2.367-3.867 5.14-4.37 8.435-.093.586-.154.889-.154 1.525-.036.626-.062 1.06.059 1.824.3 1.682.785 3.3 1.68 4.78 1.935 3.2 4.815 5.285 8.21 6.719 4.378 1.85 8.975 2.365 13.694 2.093 5.468-.315 10.573-1.979 15.571-4.052.138-.06.278-.114.417-.164.046-.018.097-.018.272-.042 3.277 2.527 7.126 3.46 11.31 3.224V31.8c-1.855-1.219-3.61-2.553-4.864-4.406zm-6.89-3.714c-2.986.232-5.971.464-8.957.7-3.532.278-7.063.562-10.596.84-2.271.18-4.544.351-6.815.537-.588.05-.843-.158-.858-.772-.076-3.079-.183-6.155-.279-9.232-.066-2.14-.141-4.28-.192-6.42-.03-1.266-.013-1.28 1.243-1.257 4.842.09 9.682.193 14.524.287.241.005.484-.032.813-.056v-2.59c.693 0 1.294-.019 1.896.004 1.162.048 2.324.14 3.488.171.596.016.847.247.81.84-.033.504-.007 1.01-.007 1.587.708.05 1.328.112 1.951.131.816.025 1.632.032 2.448.015.528-.01.809.162.82.727.051 2.75.116 5.499.181 8.25.045 1.842.094 3.686.156 5.53.015.455-.178.672-.627.708zM26.194 10.518c-3.501-.002-6.138 2.702-6.14 6.298-.002 3.562 2.664 6.364 6.058 6.368 3.803.004 6.97-2.93 6.968-6.455 0-3.396-3.122-6.21-6.886-6.211zm-.02 10.107c-2.094.006-3.591-1.54-3.598-3.712-.007-2.293 1.466-3.895 3.582-3.9 2.366-.003 4.395 1.7 4.4 3.69.004 2.186-1.929 3.915-4.384 3.922zm40.713 4.667c0 3.937-1.808 5.835-5.535 5.835-3.727 0-5.535-1.898-5.535-5.835v-10.93h-2.003v10.819c0 5.01 2.67 7.762 7.538 7.762s7.537-2.752 7.537-7.762V14.362h-2.002v10.93zm6.618-6.057c0-2.038 1.641-3.138 4.59-3.138 1.89 0 3.42.578 4.45 1.156v-2.038c-1.196-.578-2.754-1.1-4.645-1.1-4.728 0-6.397 2.642-6.397 5.12 0 6.139 10.235 3.442 10.235 8.81 0 2.42-2.587 2.917-4.728 2.917-2.531 0-4.255-.742-5.34-1.458v2.146c1.307.69 3.115 1.293 5.479 1.293 4.145 0 6.592-1.842 6.592-4.898 0-7.02-10.236-4.791-10.236-8.81zm12.85 13.49h11.71v-1.873h-9.707v-6.358h8.538v-1.927H88.36v-6.332h9.706v-1.873h-11.71v18.363zm27.284-13.021c0-3.525-2.28-5.342-6.286-5.342h-6.815v18.363h2.003v-7.406h4.73l4.839 7.406h2.363l-5.09-7.71c.864-.165 4.256-1.1 4.256-5.311zm-6.397 3.743h-4.701v-7.212h4.701c3.895 0 4.394 1.926 4.394 3.605 0 1.68-.499 3.607-4.394 3.607zm10.736-4.212c0-2.038 1.64-3.138 4.589-3.138a9.11 9.11 0 0 1 4.45 1.156v-2.038c-1.197-.578-2.753-1.1-4.644-1.1-4.73 0-6.4 2.642-6.4 5.12 0 6.139 10.238 3.442 10.238 8.81 0 2.42-2.586 2.917-4.728 2.917-2.532 0-4.257-.742-5.34-1.458v2.146c1.307.69 3.114 1.293 5.478 1.293 4.143 0 6.592-1.842 6.592-4.898 0-7.02-10.235-4.791-10.235-8.81zm26.31 10.598l-11.07-15.47h-2.282v18.362h2.003V17.253l11.098 15.472h2.252V14.362h-2.001v15.471zm11.486-15.47l-7.398 18.362h2.17l2.225-5.728h8.01l2.226 5.728h2.142l-7.371-18.363h-2.004zm-2.252 10.736l3.255-8.396 3.254 8.396h-6.51zm20.053-10.737h-6.592v18.363h2.002v-7.02h4.59c4.144 0 6.424-2.009 6.424-5.672 0-3.661-2.28-5.67-6.424-5.67zm-.25 9.444h-4.34v-7.544h4.34c4.143 0 4.672 2.008 4.672 3.771s-.529 3.773-4.672 3.773z" fill="#005E99" fill-rule="nonzero"/></svg>