<?xml version="1.0" encoding="UTF-8"?>
<svg width="679px" height="230px" viewBox="0 0 679 230" version="1.1" xmlns="http://www.w3.org/2000/svg" xmlns:xlink="http://www.w3.org/1999/xlink">
    <!-- Generator: Sketch 46.2 (44496) - http://www.bohemiancoding.com/sketch -->
    <title>utrust</title>
    <desc>Created with Sketch.</desc>
    <defs>
        <linearGradient x1="85.3553391%" y1="14.6446609%" x2="14.6446609%" y2="85.3553391%" id="linearGradient-1">
            <stop stop-color="#C79DFC" offset="0%"></stop>
            <stop stop-color="#40BEFD" offset="100%"></stop>
        </linearGradient>
        <linearGradient x1="85.3553391%" y1="14.6446609%" x2="14.6446609%" y2="85.3553391%" id="linearGradient-2">
            <stop stop-color="#AC9DFC" offset="0%"></stop>
            <stop stop-color="#40BEFD" offset="100%"></stop>
        </linearGradient>
        <linearGradient x1="45.7150724%" y1="8.41988801%" x2="50%" y2="118.985482%" id="linearGradient-3">
            <stop stop-color="#71B5FF" offset="0%"></stop>
            <stop stop-color="#84F1E2" offset="100%"></stop>
        </linearGradient>
    </defs>
    <g id="Stickers" stroke="none" stroke-width="1" fill="none" fill-rule="evenodd">
        <g id="utrust">
            <g id="Group-20">
                <g id="Group-15">
                    <path d="M40.2148834,223.789524 C5.74768934,208.718098 -16.6081482,127.083318 31.8512936,57.3440386 C80.3107354,-12.3952407 146.737572,-10.9388133 181.96495,23.0832141 C217.192329,57.1052416 226.992417,116.916615 184.806861,171.260975 C142.621304,225.605335 74.6820775,238.86095 40.2148834,223.789524 Z M50.3347835,220.391143 C83.0994885,232.517805 118.69475,222.268335 170.75868,158.813689 C222.822611,95.3590435 205.565986,52.2065816 180.138309,29.4036783 C154.710631,6.60077493 90.5825841,11.3176503 42.1231423,81.0569296 C-6.33629947,150.796209 17.5700785,208.264481 50.3347835,220.391143 Z" id="Combined-Shape" fill="url(#linearGradient-1)" opacity="0.600000024"></path>
                    <path d="M106.510023,220.857343 C90.8641644,226.979794 76.657168,227.460003 63.4511148,224.618199 C55.2092864,223.823247 48.0722098,222.007291 42.6144748,219.269795 C13.9494669,204.891975 -14.9064161,141.88782 33.5530257,72.1485411 C82.0124675,2.40926175 146.062231,-6.26314686 181.289609,27.7588806 C216.516988,61.7809081 222.403921,120.854343 184.336858,171.729373 C164.496007,198.245835 134.624677,213.941683 106.510033,220.85734 Z M106.510023,220.857343 C126.618611,212.988563 149.103949,195.799779 174.895733,164.365186 C226.959664,100.91054 203.042212,50.1692037 183.399364,32.0062829 C151.426597,2.4424015 85.958837,17.1699053 39.6657575,84.3473674 C-6.62732195,151.52483 18.7117162,208.971677 51.4764213,221.098339 C55.3809367,222.543453 59.3681874,223.739596 63.4511148,224.618199 C75.9350365,225.822315 90.9536179,224.683916 106.510033,220.85734 Z" id="Combined-Shape" fill="url(#linearGradient-2)" opacity="0.200000003" style="mix-blend-mode: multiply;"></path>
                    <path d="M79.7828413,218.79388 C19.5161049,201.62701 -7.91242887,136.901782 2.0035369,94.4977744 C11.9195027,52.0937671 81.6074763,9.72140665 135.845972,36.3645423 C190.084468,63.007678 219.879333,116.288622 205.004204,158.90568 C190.129076,201.522739 140.049578,235.96075 79.7828413,218.79388 Z M86.0127267,201.518393 C138.198866,216.928042 185.487822,193.716224 200.520557,155.76797 C215.553292,117.819717 178.919249,71.8285213 129.892681,56.2394501 C80.8661136,40.650379 16.1264952,60.3757737 6.11155353,94.4902598 C-3.90338817,128.604746 33.8265871,186.108743 86.0127267,201.518393 Z" id="Combined-Shape" fill="url(#linearGradient-3)" opacity="0.800000012"></path>
                    <path d="M3.65475593,116.066603 C9.04875727,150.701973 43.9090869,195.95605 86.8707295,208.641868 C137.720051,223.656778 181.394412,197.202864 199.146597,163.075971 C184.244569,205.66605 121.830537,229.347585 77.588917,212.034976 C37.9759928,196.533667 3.36988817,155.016228 3.65475593,116.066603 Z M31.0658425,66.6837726 C60.7139278,43.5195269 108.66389,31.2098196 142.158655,47.3481791 C177.593002,64.4210626 199.666445,95.6528636 203.116985,127.882703 C196.235938,98.7111179 167.759087,68.5688776 131.980555,56.7568293 C98.8988537,45.8351217 57.8053265,51.5692324 31.0658425,66.6837726 Z" id="Combined-Shape" fill="url(#linearGradient-3)" opacity="0.200000003" style="mix-blend-mode: multiply;"></path>
                </g>
                <g id="Group-14" transform="translate(79.875000, 78.375000)" fill="#2F347C">
                    <polygon id="T" points="18.1711514 75.5920874 33.7037521 75.5920874 33.7037521 14.0385305 51.8749036 14.0385305 51.8749036 0 0 0 0 14.0385305 18.1711514 14.0385305"></polygon>
                    <path d="M13.9872748,92.7563457 L38.0617056,92.7563457 C47.4349471,92.7563457 51.8749036,88.317291 51.8749036,78.9459532 L51.8749036,18.0722029 L38.2305021,18.0722029 L38.2305021,78.3233971 C38.2305021,79.8030821 37.7371736,80.2963104 36.2571881,80.2963104 L15.7917923,80.2963104 C14.3118068,80.2963104 13.8184783,79.8030821 13.8184783,78.3233971 L13.8184783,18.0722029 L0.174076858,18.0722029 L0.174076858,78.9459532 C0.174076858,88.317291 4.61403335,92.7563457 13.9872748,92.7563457 Z" id="U"></path>
                </g>
            </g>
            <g id="Group-2" transform="translate(274.000000, 101.000000)" fill="#2F347C">
                <path d="M13.8855911,68.7168263 L38.0861926,68.7168263 C47.508558,68.7168263 51.9717837,64.299316 51.9717837,54.973461 L51.9717837,0 L37.6894614,0 L37.6894614,53.7954583 C37.6894614,55.2679617 37.1935475,55.7587962 35.7058056,55.7587962 L16.2659781,55.7587962 C14.7782362,55.7587962 14.2823222,55.2679617 14.2823222,53.7954583 L14.2823222,0 L0,0 L0,54.973461 C0,64.299316 4.4632257,68.7168263 13.8855911,68.7168263 Z" id="Path"></path>
                <path d="M88.6701836,68.7168263 L102.94369,68.7168263 L102.94369,12.7616963 L121.77679,12.7616963 L121.77679,0 L69.8370843,0 L69.8370843,12.7616963 L88.6701836,12.7616963 L88.6701836,68.7168263 Z M181.183654,43.6842681 L192.979121,68.7168263 L177.615277,68.7168263 L166.117174,44.4696033 L154.619072,44.4696033 L154.619072,68.7168263 L140.345565,68.7168263 L140.345565,0 L176.921426,0 C186.337976,0 190.798447,4.41751026 190.798447,13.7433653 L190.798447,30.3335705 C190.798447,38.0887551 187.725678,42.5062654 181.183654,43.6842681 Z M154.619072,31.9042408 L174.542508,31.9042408 C176.029332,31.9042408 176.52494,31.4134063 176.52494,29.9409029 L176.52494,14.7250342 C176.52494,13.2525308 176.029332,12.7616963 174.542508,12.7616963 L154.619072,12.7616963 L154.619072,31.9042408 Z M226.21789,68.7168263 L250.403554,68.7168263 C259.820104,68.7168263 264.280575,64.299316 264.280575,54.973461 L264.280575,0 L250.007068,0 L250.007068,53.7954583 C250.007068,55.2679617 249.51146,55.7587962 248.024636,55.7587962 L228.596807,55.7587962 C227.109984,55.7587962 226.614376,55.2679617 226.614376,53.7954583 L226.614376,0 L212.340869,0 L212.340869,54.973461 C212.340869,64.299316 216.80134,68.7168263 226.21789,68.7168263 Z M299.303531,68.7168263 L322.101494,68.7168263 C331.518043,68.7168263 335.978514,64.299316 335.978514,54.973461 L335.978514,43.5861012 C335.978514,34.7510807 330.427706,31.3152394 321.705007,29.4500684 L303.268394,25.5233926 C300.691233,24.9343912 299.898261,24.3453899 299.898261,22.1857182 L299.898261,14.7250342 C299.898261,13.2525308 300.393869,12.7616963 301.880692,12.7616963 L318.929603,12.7616963 C320.416427,12.7616963 320.912035,13.2525308 320.912035,14.7250342 L320.912035,21.5967168 L334.789055,21.5967168 L334.789055,13.7433653 C334.789055,4.41751026 330.328584,0 320.912035,0 L299.501774,0 C290.085225,0 285.624754,4.41751026 285.624754,13.7433653 L285.624754,24.3453899 C285.624754,33.1804104 291.175562,36.6162517 299.898261,38.4814227 L318.334874,42.4080985 C320.912035,42.9970999 321.705007,43.5861012 321.705007,45.7457729 L321.705007,53.9917921 C321.705007,55.4642955 321.209399,55.95513 319.722576,55.95513 L301.285963,55.95513 C299.799139,55.95513 299.303531,55.4642955 299.303531,53.9917921 L299.303531,46.3347743 L285.426511,46.3347743 L285.426511,54.973461 C285.426511,64.299316 289.886982,68.7168263 299.303531,68.7168263 Z M371.298835,68.7168263 L385.572342,68.7168263 L385.572342,12.7616963 L404.405442,12.7616963 L404.405442,0 L352.465736,0 L352.465736,12.7616963 L371.298835,12.7616963 L371.298835,68.7168263 Z" id="UTRUST"></path>
            </g>
        </g>
    </g>
</svg>