<svg xmlns="http://www.w3.org/2000/svg" width="18" height="18" viewBox="0 0 18 18"><defs><linearGradient id="a" x1="0%" y1="0%" y2="100%"><stop offset="0%" stop-color="#FD7D57"/><stop offset="100%" stop-color="#FA2471"/></linearGradient></defs><path fill="url(#a)" d="M238 1343a9 9 0 1 0 0 18 9 9 0 0 0 0-18zm4.512 8.25a15.574 15.574 0 0 0-.267-2.25h2.625a7.42 7.42 0 0 1 .593 2.25h-2.951zm2.95 1.5a7.42 7.42 0 0 1-.593 2.25h-2.625a15.47 15.47 0 0 0 .267-2.25h2.95zm-1.476-5.25h-2.123a11.779 11.779 0 0 0-1.095-2.465 7.522 7.522 0 0 1 3.218 2.465zm-3.711 0h-1.525v-2.755c.63.757 1.144 1.692 1.525 2.755zm-1.525 9h1.525c-.38 1.063-.894 1.998-1.525 2.755v-2.755zm-1.5-11.755v2.755h-1.525c.38-1.063.894-1.998 1.525-2.755zm0 4.255v2.25h-2.245c.038-.78.135-1.533.291-2.25h1.954zm0 3.75v2.25h-1.954a13.926 13.926 0 0 1-.291-2.25h2.245zm0 3.75v2.755c-.63-.757-1.144-1.692-1.525-2.755h1.525zm1.5-1.5v-2.25h2.245c-.038.78-.135 1.533-.291 2.25h-1.954zm0-3.75V1349h1.954c.156.717.252 1.47.291 2.25h-2.245zm-3.518-6.215a11.8 11.8 0 0 0-1.095 2.465h-2.123a7.522 7.522 0 0 1 3.218-2.465zm-1.744 6.215h-2.95a7.42 7.42 0 0 1 .593-2.25h2.625a15.469 15.469 0 0 0-.268 2.25zm.268 3.75h-2.625a7.42 7.42 0 0 1-.593-2.25h2.95c.036.773.126 1.526.268 2.25zm-1.742 1.5h2.123a11.8 11.8 0 0 0 1.095 2.465 7.522 7.522 0 0 1-3.218-2.465zm8.754 2.465a11.8 11.8 0 0 0 1.095-2.465h2.123a7.522 7.522 0 0 1-3.218 2.465z" transform="translate(-229 -1343)"/></svg>