<svg width="31" height="18" viewBox="0 0 31 18" xmlns="http://www.w3.org/2000/svg"><title>google</title><defs><linearGradient x1="0%" y1="0%" y2="100%" id="a"><stop stop-color="#FD7D57" offset="0%"/><stop stop-color="#FA2471" offset="100%"/></linearGradient></defs><path d="M253 648.714v3.086h5.104c-.205 1.323-1.543 3.883-5.104 3.883-3.073 0-5.58-2.545-5.58-5.683 0-3.137 2.507-5.683 5.58-5.683 1.749 0 2.919.746 3.587 1.389l2.443-2.353c-1.569-1.466-3.6-2.353-6.03-2.353-4.976 0-9 4.024-9 9s4.024 9 9 9c5.194 0 8.641-3.651 8.641-8.794a8.27 8.27 0 0 0-.142-1.492H253zm0 0l21.857 2.572H271v3.857h-2.571v-3.857h-3.858v-2.572h3.858v-3.857H271v3.857h3.857v2.572L253 648.714z" transform="translate(-244 -641)" fill="url(#a)"/></svg>