<svg width="18" height="18" viewBox="0 0 18 18" xmlns="http://www.w3.org/2000/svg"><title>linkedin</title><defs><linearGradient x1="0%" y1="0%" y2="100%" id="a"><stop stop-color="#FD7D57" offset="0%"/><stop stop-color="#FA2471" offset="100%"/></linearGradient></defs><path d="M227.25 641h-10.5a3.75 3.75 0 0 0-3.75 3.75v10.5a3.75 3.75 0 0 0 3.75 3.75h10.5a3.75 3.75 0 0 0 3.75-3.75v-10.5a3.75 3.75 0 0 0-3.75-3.75zM219 655.25h-2.25V647H219v8.25zm-1.125-9.201a1.318 1.318 0 0 1-1.313-1.323c0-.73.588-1.323 1.313-1.323s1.313.592 1.313 1.323c0 .73-.588 1.323-1.313 1.323zM228 655.25h-2.25v-4.203c0-2.526-3-2.335-3 0v4.203h-2.25V647h2.25v1.324c1.047-1.94 5.25-2.083 5.25 1.857v5.069z" transform="translate(-213 -641)" fill-rule="nonzero" fill="url(#a)"/></svg>