<svg width="39" height="39" viewBox="0 0 39 39" xmlns="http://www.w3.org/2000/svg"><title>logo-mirror</title><defs><linearGradient x1="0%" y1="0%" y2="100%" id="a"><stop stop-color="#FD7D57" offset="0%"/><stop stop-color="#FA2471" offset="100%"/></linearGradient></defs><path d="M39 0v37.7L28.6 27.3V10.4H11.7L1.3 0H39zm-4.42 37.96L33.54 39h2.015l-.975-1.04zm0-2.015l-1.04 1.04 1.04 1.04 1.04-1.04-1.04-1.04zM23.4 30.81l-1.04-1.04-1.04 1.04 1.04 1.04 1.04-1.04zm-6.11 0l-1.04-1.04-1.04 1.04 1.04 1.04 1.04-1.04zm5.915-2.21H21.58l-.195.195 1.04 1.04 1.04-1.04-.26-.195zm-3.9 2.21l-1.04-1.04-1.04 1.04 1.04 1.04 1.04-1.04zm-.195-2.21h-1.625l-.195.195 1.04 1.04 1.04-1.04-.26-.195zm-4.94 1.17l-1.04 1.04 1.04 1.04 1.04-1.04-1.04-1.04zm.845-1.17H13.39l-.195.195 1.04 1.04 1.04-1.04-.26-.195zm6.305 2.21l-1.04-1.04-1.04 1.04 1.04 1.04 1.04-1.04zm6.175 0l-1.04-1.04-1.04 1.04 1.04 1.04 1.04-1.04zm2.015 0l-1.04-1.04-1.04 1.04 1.04 1.04 1.04-1.04zm-5.135 1.04l1.04-1.04-1.04-1.04-1.04 1.04 1.04 1.04zm1.04-3.055l-.195-.195h-1.625l-.195.195 1.04 1.04.975-1.04zM31.525 39h2.015l-1.04-1.04-.975 1.04zm-3.055-3.055l1.04-1.04-1.04-1.04-1.04 1.04 1.04 1.04zm4.095-2.08l-1.04 1.04 1.04 1.04 1.04-1.04-1.04-1.04zm-5.07 3.055l1.04 1.04 1.04-1.04-1.04-1.04-1.04 1.04zm.975-3.055l1.04-1.04-1.04-.975-1.04 1.04 1.04.975zm3.055-.975l-.975-1.04-1.04 1.04 1.04 1.04.975-1.04zm-6.11 0l1.04 1.04 1.04-1.04-1.04-1.04-1.04 1.04zm-2.015 0l1.04 1.04 1.04-1.04-1.04-1.04-1.04 1.04zM27.495 39h2.015l-1.04-1.04-.975 1.04zm5.07-3.055l-1.04 1.04 1.04 1.04 1.04-1.04-1.04-1.04zM23.4 39h2.015l-1.04-1.04L23.4 39zm6.11-2.08l1.04 1.04 1.04-1.04-1.04-.975-1.04.975zm-5.135-.975l1.04-1.04-1.04-1.04-1.04 1.04 1.04 1.04zm-.975.975l1.04 1.04 1.04-1.04-1.04-1.04-1.04 1.04zm2.015 0l1.04 1.04 1.04-1.04-1.04-1.04-1.04 1.04zm-12.22 0l1.04 1.04 1.04-1.04-1.04-1.04-1.04 1.04zM21.32 39h2.015l-1.04-1.04L21.32 39zm1.04-7.15l-1.04 1.04 1.04 1.04 1.04-1.04-1.04-1.04zm-3.055 1.04l1.04 1.04 1.04-1.04-1.04-1.04-1.04 1.04zM17.29 39h2.015l-1.04-1.04L17.29 39zm0-6.11l1.04 1.04 1.04-1.04-1.04-1.04-1.04 1.04zm2.015 4.03l1.04 1.04 1.04-1.04-1.04-1.04-1.04 1.04zm3.055-3.055l-1.04 1.04 1.04 1.04 1.04-1.04-1.04-1.04zm0 2.08l-1.04 1.04 1.04 1.04 1.04-1.04-1.04-1.04zm-8.19-4.095l-1.04 1.04 1.04 1.04 1.04-1.04-1.04-1.04zm0 2.015l-1.04 1.04 1.04 1.04 1.04-1.04-1.04-1.04zm1.04 3.055l1.04 1.04 1.04-1.04-1.04-1.04-1.04 1.04zm0-4.03l1.04 1.04 1.04-1.04-1.04-1.04-1.04 1.04zm2.08 4.03l1.04 1.04 1.04-1.04-1.04-1.04-1.04 1.04zm.975-.975l1.04-1.04-1.04-1.04-1.04 1.04 1.04 1.04zM13.195 39h2.015l-1.04-1.04-.975 1.04zM1.95 7.345L.91 8.385l1.04 1.04 1.04-1.04-1.04-1.04zM0 7.28l.975-.975L0 5.33v1.95zm1.95-1.95L.91 6.37l1.04 1.04 1.04-1.04-1.04-1.04zM0 11.375l.975-.975L0 9.425v1.95zM1.95 9.36L.91 10.4l1.04 1.04 1.04-1.04-1.04-1.04zm0-6.11L.91 4.29l1.04 1.04 1.04-1.04-1.04-1.04zM0 1.3v1.885l.975-.975L0 1.3zm7.085 9.1l-1.04-1.04-1.04 1.04 1.04 1.04 1.04-1.04zm-3.12-1.04l1.04-1.04-1.04-1.04-1.04 1.04 1.04 1.04zm0 2.08l1.04-1.04-1.04-1.04-1.04 1.04 1.04 1.04zM9.1 10.4L8.06 9.36 7.02 10.4l1.04 1.04L9.1 10.4zM5.005 6.305l-1.04-1.04-1.04 1.04 1.04 1.04 1.04-1.04zm5.395 6.89V11.7l-.26-.26-1.04 1.04 1.04 1.04.26-.325zm-5.395 7.41l1.04 1.04 1.04-1.04-1.04-1.04-1.04 1.04zm3.055-7.15l1.04-1.04-1.04-1.04-1.04 1.04 1.04 1.04zm2.34 3.835v-1.495l-.26-.26-1.04 1.04 1.04 1.04.26-.325zm-2.34-1.755l1.04-1.04-1.04-1.04-1.04 1.04 1.04 1.04zm0 2.015l1.04-1.04-1.04-1.04-1.04 1.04 1.04 1.04zm2.34 3.77v-1.495l-.26-.26-1.04 1.04 1.04 1.04.26-.325zm-3.315-4.81l-1.04-1.04-1.04 1.04 1.04 1.04 1.04-1.04zm-3.12-3.055l-1.04 1.04 1.04 1.04 1.04-1.04-1.04-1.04zm0 2.08l-1.04 1.04 1.04 1.04 1.04-1.04-1.04-1.04zm3.12-3.12l-1.04-1.04-1.04 1.04 1.04 1.04 1.04-1.04zm-3.12-.975l-1.04 1.04 1.04 1.04 1.04-1.04-1.04-1.04zM8.06 21.645l1.04-1.04-1.04-1.04-1.04 1.04 1.04 1.04zm-5.07-1.04l1.04 1.04 1.04-1.04-1.04-1.04-1.04 1.04zm.975-3.055l-1.04 1.04 1.04 1.04 1.04-1.04-1.04-1.04zm4.095 2.015l1.04-1.04-1.04-1.04-1.04 1.04 1.04 1.04zm-6.11-4.03l-1.04 1.04 1.04 1.04 1.04-1.04-1.04-1.04zm0-2.08l-1.04 1.04 1.04 1.04 1.04-1.04-1.04-1.04zm0-2.015L.91 12.48l1.04 1.04 1.04-1.04-1.04-1.04zM0 13.39l.975-.975L0 11.44v1.95zm0 6.24v1.885l.975-.975L0 19.63zm0-2.145l.975-.975L0 15.6v1.885zm1.95.065L.91 18.59l1.04 1.04 1.04-1.04-1.04-1.04zm1.04 3.055l-1.04-1.04-1.04 1.04 1.04 1.04 1.04-1.04zM0 31.785l.975-.975L0 29.835v1.95zm1.95-2.015L.91 30.81l1.04 1.04 1.04-1.04-1.04-1.04zM0 27.69l.975-.975L0 25.74v1.95zm1.95.065l-1.04 1.04 1.04 1.04 1.04-1.04-1.04-1.04zM0 23.595l.975-.975L0 21.645v1.95zm1.95 2.145L.91 26.78l1.04 1.04 1.04-1.04-1.04-1.04zm0-2.08L.91 24.7l1.04 1.04 1.04-1.04-1.04-1.04zm0-2.015l-1.04 1.04 1.04 1.04 1.04-1.04-1.04-1.04zm6.11 6.11l1.04-1.04-1.04-1.04-1.04 1.04 1.04 1.04zm0 2.015l1.04-1.04-1.04-1.04-1.04 1.04 1.04 1.04zm3.055 1.04l-1.04-1.04-1.04 1.04 1.04 1.04 1.04-1.04zm1.04-1.04l-1.04 1.04 1.04 1.04 1.04-1.04-1.04-1.04zM8.06 31.85l1.04-1.04-1.04-1.04-1.04 1.04 1.04 1.04zm2.34-4.355V26l-.26-.26-1.04 1.04 1.04 1.04.26-.325zm0-4.095v-1.495l-.26-.26-1.04 1.04 1.04 1.04.26-.325zm-6.435 4.355l-1.04 1.04 1.04 1.04 1.04-1.04-1.04-1.04zm0 2.015l-1.04 1.04 1.04 1.04 1.04-1.04-1.04-1.04zM13 28.6h-1.625l-.195.195 1.04 1.04 1.04-1.04L13 28.6zm-7.995-5.98l-1.04-1.04-1.04 1.04 1.04 1.04 1.04-1.04zm-1.04 3.12l-1.04 1.04 1.04 1.04 1.04-1.04-1.04-1.04zm0-2.08l-1.04 1.04 1.04 1.04 1.04-1.04-1.04-1.04zm3.12-1.04l-1.04-1.04-1.04 1.04 1.04 1.04 1.04-1.04zm2.015 0l-1.04-1.04-1.04 1.04 1.04 1.04 1.04-1.04zm-2.015 4.095l-1.04-1.04-1.04 1.04 1.04 1.04 1.04-1.04zm0 4.095l-1.04-1.04-1.04 1.04 1.04 1.04 1.04-1.04zm.975-5.07L9.1 24.7l-1.04-1.04-1.04 1.04 1.04 1.04zm-5.07 7.15l1.04 1.04 1.04-1.04-1.04-1.04-1.04 1.04zm2.015 0l1.04 1.04 1.04-1.04-1.04-1.04-1.04 1.04zm2.08 0l1.04 1.04 1.04-1.04-1.04-1.04-1.04 1.04zm-3.12 3.055l1.04-1.04-1.04-1.04-1.04 1.04 1.04 1.04zm6.175-2.08l1.04-1.04-1.04-1.04-1.04 1.04 1.04 1.04zM2.99 39h2.015l-1.04-1.04L2.99 39zm9.165-1.04l1.04-1.04-1.04-1.04-1.04 1.04 1.04 1.04zm0-2.015l1.04-1.04-1.04-1.04-1.04 1.04 1.04 1.04zm-9.165.975l1.04 1.04 1.04-1.04-1.04-1.04-1.04 1.04zm2.015 0l1.04 1.04 1.04-1.04-1.04-1.04-1.04 1.04zm2.08 0l1.04 1.04 1.04-1.04-1.04-1.04-1.04 1.04zm0 2.08H9.1l-1.04-1.04L7.085 39zM9.1 36.92l1.04 1.04 1.04-1.04-1.04-1.04-1.04 1.04zM11.18 39h2.015l-1.04-1.04L11.18 39zm.975-5.135l1.04-1.04-1.04-1.04-1.04 1.04 1.04 1.04zm-4.095 2.08l1.04-1.04-1.04-1.04-1.04 1.04 1.04 1.04zM0 33.8l.975-.975L0 31.85v1.95zm1.95 2.145l-1.04 1.04 1.04 1.04 1.04-1.04-1.04-1.04zm0-4.095L.91 32.89l1.04 1.04 1.04-1.04-1.04-1.04zM0 37.895l.975-.975L0 35.945v1.95zm1.95-4.03l-1.04 1.04 1.04 1.04 1.04-1.04-1.04-1.04zM.91 39h2.015l-1.04-1.04L.91 39zm34.71 0h1.885l-.975-.975-.91.975z" fill="url(#a)" fill-rule="evenodd"/></svg>