<?xml version="1.0" encoding="UTF-8"?>
<svg width="39px" height="39px" viewBox="0 0 39 39" version="1.1" xmlns="http://www.w3.org/2000/svg" xmlns:xlink="http://www.w3.org/1999/xlink">
    <!-- Generator: Sketch 42 (36781) - http://www.bohemiancoding.com/sketch -->
    <title>logo-mirror</title>
    <desc>Created with Sketch.</desc>
    <defs>
        <linearGradient x1="0%" y1="0%" x2="100%" y2="100%" id="linearGradient-1">
            <stop stop-color="#FD7D57" offset="0%"></stop>
            <stop stop-color="#FA2471" offset="100%"></stop>
        </linearGradient>
    </defs>
    <g id="1st-Version" stroke="none" stroke-width="1" fill="none" fill-rule="evenodd">
        <g id="1st-version-desktop" transform="translate(-117.000000, -26.000000)" fill="url(#linearGradient-1)">
            <g id="logo-mirror" transform="translate(117.000000, 26.000000)">
                <g id="Layer_1">
                    <path d="M39,0 L39,37.7 L28.6,27.3 L28.6,27.3 L28.6,10.4 L11.7,10.4 L1.3,0 L39,0 L39,0 Z M34.58,37.96 L33.54,39 L33.54,39 L35.555,39 L35.555,39 L34.58,37.96 L34.58,37.96 Z M34.58,35.945 L33.54,36.985 L34.58,38.025 L35.62,36.985 L34.58,35.945 L34.58,35.945 Z M23.4,30.81 L22.36,29.77 L21.32,30.81 L22.36,31.85 L23.4,30.81 L23.4,30.81 Z M17.29,30.81 L16.25,29.77 L15.21,30.81 L16.25,31.85 L17.29,30.81 L17.29,30.81 Z M23.205,28.6 L21.58,28.6 L21.385,28.795 L22.425,29.835 L23.465,28.795 L23.205,28.6 L23.205,28.6 Z M19.305,30.81 L18.265,29.77 L17.225,30.81 L18.265,31.85 L19.305,30.81 L19.305,30.81 Z M19.11,28.6 L17.485,28.6 L17.29,28.795 L18.33,29.835 L19.37,28.795 L19.11,28.6 L19.11,28.6 Z M14.17,29.77 L13.13,30.81 L14.17,31.85 L15.21,30.81 L14.17,29.77 L14.17,29.77 Z M15.015,28.6 L13.39,28.6 L13.195,28.795 L14.235,29.835 L15.275,28.795 L15.015,28.6 L15.015,28.6 Z M21.32,30.81 L20.28,29.77 L19.24,30.81 L20.28,31.85 L21.32,30.81 L21.32,30.81 Z M27.495,30.81 L26.455,29.77 L25.415,30.81 L26.455,31.85 L27.495,30.81 L27.495,30.81 Z M29.51,30.81 L28.47,29.77 L27.43,30.81 L28.47,31.85 L29.51,30.81 L29.51,30.81 Z M24.375,31.85 L25.415,30.81 L24.375,29.77 L23.335,30.81 L24.375,31.85 L24.375,31.85 Z M25.415,28.795 L25.22,28.6 L23.595,28.6 L23.4,28.795 L24.44,29.835 L25.415,28.795 L25.415,28.795 Z M31.525,39 L31.525,39 L33.54,39 L33.54,39 L32.5,37.96 L31.525,39 L31.525,39 Z M28.47,35.945 L29.51,34.905 L28.47,33.865 L27.43,34.905 L28.47,35.945 L28.47,35.945 Z M32.565,33.865 L31.525,34.905 L32.565,35.945 L33.605,34.905 L32.565,33.865 L32.565,33.865 Z M27.495,36.92 L28.535,37.96 L29.575,36.92 L28.535,35.88 L27.495,36.92 L27.495,36.92 Z M28.47,33.865 L29.51,32.825 L28.47,31.85 L27.43,32.89 L28.47,33.865 L28.47,33.865 Z M31.525,32.89 L30.55,31.85 L29.51,32.89 L30.55,33.93 L31.525,32.89 L31.525,32.89 Z M25.415,32.89 L26.455,33.93 L27.495,32.89 L26.455,31.85 L25.415,32.89 L25.415,32.89 Z M23.4,32.89 L24.44,33.93 L25.48,32.89 L24.44,31.85 L23.4,32.89 L23.4,32.89 Z M27.495,39 L29.51,39 L29.51,39 L28.47,37.96 L27.495,39 L27.495,39 L27.495,39 Z M32.565,35.945 L31.525,36.985 L32.565,38.025 L33.605,36.985 L32.565,35.945 L32.565,35.945 Z M23.4,39 L25.415,39 L25.415,39 L24.375,37.96 L23.4,39 L23.4,39 L23.4,39 Z M29.51,36.92 L30.55,37.96 L31.59,36.92 L30.55,35.945 L29.51,36.92 L29.51,36.92 Z M24.375,35.945 L25.415,34.905 L24.375,33.865 L23.335,34.905 L24.375,35.945 L24.375,35.945 Z M23.4,36.92 L24.44,37.96 L25.48,36.92 L24.44,35.88 L23.4,36.92 L23.4,36.92 Z M25.415,36.92 L26.455,37.96 L27.495,36.92 L26.455,35.88 L25.415,36.92 L25.415,36.92 Z M13.195,36.92 L14.235,37.96 L15.275,36.92 L14.235,35.88 L13.195,36.92 L13.195,36.92 Z M21.32,39 L21.32,39 L23.335,39 L23.335,39 L22.295,37.96 L21.32,39 L21.32,39 Z M22.36,31.85 L21.32,32.89 L22.36,33.93 L23.4,32.89 L22.36,31.85 L22.36,31.85 Z M19.305,32.89 L20.345,33.93 L21.385,32.89 L20.345,31.85 L19.305,32.89 L19.305,32.89 Z M17.29,39 L19.305,39 L19.305,39 L18.265,37.96 L17.29,39 L17.29,39 L17.29,39 Z M17.29,32.89 L18.33,33.93 L19.37,32.89 L18.33,31.85 L17.29,32.89 L17.29,32.89 Z M19.305,36.92 L20.345,37.96 L21.385,36.92 L20.345,35.88 L19.305,36.92 L19.305,36.92 Z M22.36,33.865 L21.32,34.905 L22.36,35.945 L23.4,34.905 L22.36,33.865 L22.36,33.865 Z M22.36,35.945 L21.32,36.985 L22.36,38.025 L23.4,36.985 L22.36,35.945 L22.36,35.945 Z M14.17,31.85 L13.13,32.89 L14.17,33.93 L15.21,32.89 L14.17,31.85 L14.17,31.85 Z M14.17,33.865 L13.13,34.905 L14.17,35.945 L15.21,34.905 L14.17,33.865 L14.17,33.865 Z M15.21,36.92 L16.25,37.96 L17.29,36.92 L16.25,35.88 L15.21,36.92 L15.21,36.92 Z M15.21,32.89 L16.25,33.93 L17.29,32.89 L16.25,31.85 L15.21,32.89 L15.21,32.89 Z M17.29,36.92 L18.33,37.96 L19.37,36.92 L18.33,35.88 L17.29,36.92 L17.29,36.92 Z M18.265,35.945 L19.305,34.905 L18.265,33.865 L17.225,34.905 L18.265,35.945 L18.265,35.945 Z M13.195,39 L15.21,39 L15.21,39 L14.17,37.96 L13.195,39 L13.195,39 L13.195,39 Z M1.95,7.345 L0.91,8.385 L1.95,9.425 L2.99,8.385 L1.95,7.345 L1.95,7.345 Z M0,7.28 L0.975,6.305 L0,5.33 L0,7.28 L0,7.28 Z M1.95,5.33 L0.91,6.37 L1.95,7.41 L2.99,6.37 L1.95,5.33 L1.95,5.33 Z M0,11.375 L0.975,10.4 L0,9.425 L0,11.375 L0,11.375 Z M1.95,9.36 L0.91,10.4 L1.95,11.44 L2.99,10.4 L1.95,9.36 L1.95,9.36 Z M1.95,3.25 L0.91,4.29 L1.95,5.33 L2.99,4.29 L1.95,3.25 L1.95,3.25 Z M0,1.3 L0,3.185 L0.975,2.21 L0,1.3 L0,1.3 Z M7.085,10.4 L6.045,9.36 L5.005,10.4 L6.045,11.44 L7.085,10.4 L7.085,10.4 Z M3.965,9.36 L5.005,8.32 L3.965,7.28 L2.925,8.32 L3.965,9.36 L3.965,9.36 Z M3.965,11.44 L5.005,10.4 L3.965,9.36 L2.925,10.4 L3.965,11.44 L3.965,11.44 Z M9.1,10.4 L8.06,9.36 L7.02,10.4 L8.06,11.44 L9.1,10.4 L9.1,10.4 Z M5.005,6.305 L3.965,5.265 L2.925,6.305 L3.965,7.345 L5.005,6.305 L5.005,6.305 Z M10.4,13.195 L10.4,11.7 L10.14,11.44 L9.1,12.48 L10.14,13.52 L10.4,13.195 L10.4,13.195 Z M5.005,20.605 L6.045,21.645 L7.085,20.605 L6.045,19.565 L5.005,20.605 L5.005,20.605 Z M8.06,13.455 L9.1,12.415 L8.06,11.375 L7.02,12.415 L8.06,13.455 L8.06,13.455 Z M10.4,17.29 L10.4,15.795 L10.14,15.535 L9.1,16.575 L10.14,17.615 L10.4,17.29 L10.4,17.29 Z M8.06,15.535 L9.1,14.495 L8.06,13.455 L7.02,14.495 L8.06,15.535 L8.06,15.535 Z M8.06,17.55 L9.1,16.51 L8.06,15.47 L7.02,16.51 L8.06,17.55 L8.06,17.55 Z M10.4,21.32 L10.4,19.825 L10.14,19.565 L9.1,20.605 L10.14,21.645 L10.4,21.32 L10.4,21.32 Z M7.085,16.51 L6.045,15.47 L5.005,16.51 L6.045,17.55 L7.085,16.51 L7.085,16.51 Z M3.965,13.455 L2.925,14.495 L3.965,15.535 L5.005,14.495 L3.965,13.455 L3.965,13.455 Z M3.965,15.535 L2.925,16.575 L3.965,17.615 L5.005,16.575 L3.965,15.535 L3.965,15.535 Z M7.085,12.415 L6.045,11.375 L5.005,12.415 L6.045,13.455 L7.085,12.415 L7.085,12.415 Z M3.965,11.44 L2.925,12.48 L3.965,13.52 L5.005,12.48 L3.965,11.44 L3.965,11.44 Z M8.06,21.645 L9.1,20.605 L8.06,19.565 L7.02,20.605 L8.06,21.645 L8.06,21.645 Z M2.99,20.605 L4.03,21.645 L5.07,20.605 L4.03,19.565 L2.99,20.605 L2.99,20.605 Z M3.965,17.55 L2.925,18.59 L3.965,19.63 L5.005,18.59 L3.965,17.55 L3.965,17.55 Z M8.06,19.565 L9.1,18.525 L8.06,17.485 L7.02,18.525 L8.06,19.565 L8.06,19.565 Z M1.95,15.535 L0.91,16.575 L1.95,17.615 L2.99,16.575 L1.95,15.535 L1.95,15.535 Z M1.95,13.455 L0.91,14.495 L1.95,15.535 L2.99,14.495 L1.95,13.455 L1.95,13.455 Z M1.95,11.44 L0.91,12.48 L1.95,13.52 L2.99,12.48 L1.95,11.44 L1.95,11.44 Z M0,13.39 L0.975,12.415 L0,11.44 L0,13.39 L0,13.39 Z M0,19.63 L0,21.515 L0.975,20.54 L0,19.63 L0,19.63 Z M0,17.485 L0.975,16.51 L0,15.6 L0,17.485 L0,17.485 Z M1.95,17.55 L0.91,18.59 L1.95,19.63 L2.99,18.59 L1.95,17.55 L1.95,17.55 Z M2.99,20.605 L1.95,19.565 L0.91,20.605 L1.95,21.645 L2.99,20.605 L2.99,20.605 Z M0,31.785 L0.975,30.81 L0,29.835 L0,31.785 L0,31.785 Z M1.95,29.77 L0.91,30.81 L1.95,31.85 L2.99,30.81 L1.95,29.77 L1.95,29.77 Z M0,27.69 L0.975,26.715 L0,25.74 L0,27.69 L0,27.69 Z M1.95,27.755 L0.91,28.795 L1.95,29.835 L2.99,28.795 L1.95,27.755 L1.95,27.755 Z M0,23.595 L0.975,22.62 L0,21.645 L0,23.595 L0,23.595 Z M1.95,25.74 L0.91,26.78 L1.95,27.82 L2.99,26.78 L1.95,25.74 L1.95,25.74 Z M1.95,23.66 L0.91,24.7 L1.95,25.74 L2.99,24.7 L1.95,23.66 L1.95,23.66 Z M1.95,21.645 L0.91,22.685 L1.95,23.725 L2.99,22.685 L1.95,21.645 L1.95,21.645 Z M8.06,27.755 L9.1,26.715 L8.06,25.675 L7.02,26.715 L8.06,27.755 L8.06,27.755 Z M8.06,29.77 L9.1,28.73 L8.06,27.69 L7.02,28.73 L8.06,29.77 L8.06,29.77 Z M11.115,30.81 L10.075,29.77 L9.035,30.81 L10.075,31.85 L11.115,30.81 L11.115,30.81 Z M12.155,29.77 L11.115,30.81 L12.155,31.85 L13.195,30.81 L12.155,29.77 L12.155,29.77 Z M8.06,31.85 L9.1,30.81 L8.06,29.77 L7.02,30.81 L8.06,31.85 L8.06,31.85 Z M10.4,27.495 L10.4,26 L10.14,25.74 L9.1,26.78 L10.14,27.82 L10.4,27.495 L10.4,27.495 Z M10.4,23.4 L10.4,21.905 L10.14,21.645 L9.1,22.685 L10.14,23.725 L10.4,23.4 L10.4,23.4 Z M3.965,27.755 L2.925,28.795 L3.965,29.835 L5.005,28.795 L3.965,27.755 L3.965,27.755 Z M3.965,29.77 L2.925,30.81 L3.965,31.85 L5.005,30.81 L3.965,29.77 L3.965,29.77 Z M13,28.6 L11.375,28.6 L11.18,28.795 L12.22,29.835 L13.26,28.795 L13,28.6 L13,28.6 Z M5.005,22.62 L3.965,21.58 L2.925,22.62 L3.965,23.66 L5.005,22.62 L5.005,22.62 Z M3.965,25.74 L2.925,26.78 L3.965,27.82 L5.005,26.78 L3.965,25.74 L3.965,25.74 Z M3.965,23.66 L2.925,24.7 L3.965,25.74 L5.005,24.7 L3.965,23.66 L3.965,23.66 Z M7.085,22.62 L6.045,21.58 L5.005,22.62 L6.045,23.66 L7.085,22.62 L7.085,22.62 Z M9.1,22.62 L8.06,21.58 L7.02,22.62 L8.06,23.66 L9.1,22.62 L9.1,22.62 Z M7.085,26.715 L6.045,25.675 L5.005,26.715 L6.045,27.755 L7.085,26.715 L7.085,26.715 Z M7.085,30.81 L6.045,29.77 L5.005,30.81 L6.045,31.85 L7.085,30.81 L7.085,30.81 Z M8.06,25.74 L9.1,24.7 L8.06,23.66 L7.02,24.7 L8.06,25.74 L8.06,25.74 Z M2.99,32.89 L4.03,33.93 L5.07,32.89 L4.03,31.85 L2.99,32.89 L2.99,32.89 Z M5.005,32.89 L6.045,33.93 L7.085,32.89 L6.045,31.85 L5.005,32.89 L5.005,32.89 Z M7.085,32.89 L8.125,33.93 L9.165,32.89 L8.125,31.85 L7.085,32.89 L7.085,32.89 Z M3.965,35.945 L5.005,34.905 L3.965,33.865 L2.925,34.905 L3.965,35.945 L3.965,35.945 Z M10.14,33.865 L11.18,32.825 L10.14,31.785 L9.1,32.825 L10.14,33.865 L10.14,33.865 Z M2.99,39 L5.005,39 L5.005,39 L3.965,37.96 L2.99,39 L2.99,39 L2.99,39 Z M12.155,37.96 L13.195,36.92 L12.155,35.88 L11.115,36.92 L12.155,37.96 L12.155,37.96 Z M12.155,35.945 L13.195,34.905 L12.155,33.865 L11.115,34.905 L12.155,35.945 L12.155,35.945 Z M2.99,36.92 L4.03,37.96 L5.07,36.92 L4.03,35.88 L2.99,36.92 L2.99,36.92 Z M5.005,36.92 L6.045,37.96 L7.085,36.92 L6.045,35.88 L5.005,36.92 L5.005,36.92 Z M7.085,36.92 L8.125,37.96 L9.165,36.92 L8.125,35.88 L7.085,36.92 L7.085,36.92 Z M7.085,39 L9.1,39 L9.1,39 L8.06,37.96 L7.085,39 L7.085,39 L7.085,39 Z M9.1,36.92 L10.14,37.96 L11.18,36.92 L10.14,35.88 L9.1,36.92 L9.1,36.92 Z M11.18,39 L13.195,39 L13.195,39 L12.155,37.96 L11.18,39 L11.18,39 L11.18,39 Z M12.155,33.865 L13.195,32.825 L12.155,31.785 L11.115,32.825 L12.155,33.865 L12.155,33.865 Z M8.06,35.945 L9.1,34.905 L8.06,33.865 L7.02,34.905 L8.06,35.945 L8.06,35.945 Z M0,33.8 L0.975,32.825 L0,31.85 L0,33.8 L0,33.8 Z M1.95,35.945 L0.91,36.985 L1.95,38.025 L2.99,36.985 L1.95,35.945 L1.95,35.945 Z M1.95,31.85 L0.91,32.89 L1.95,33.93 L2.99,32.89 L1.95,31.85 L1.95,31.85 Z M0,37.895 L0.975,36.92 L0,35.945 L0,37.895 L0,37.895 Z M1.95,33.865 L0.91,34.905 L1.95,35.945 L2.99,34.905 L1.95,33.865 L1.95,33.865 Z M0.91,39 L0.91,39 L2.925,39 L2.925,39 L1.885,37.96 L0.91,39 L0.91,39 Z M35.62,39 L37.505,39 L36.53,38.025 L35.62,39 L35.62,39 Z" id="XMLID_48_"></path>
                </g>
            </g>
        </g>
    </g>
</svg>