<svg width="34" height="26" viewBox="0 0 34 26" xmlns="http://www.w3.org/2000/svg"><title>quote</title><defs><linearGradient x1="0%" y1="0%" y2="100%" id="a"><stop stop-color="#FD7D57" offset="0%"/><stop stop-color="#FA2471" offset="100%"/></linearGradient></defs><path d="M170 1662.76c0 5.888 3.805 9.24 8.063 9.24 3.895 0 7.157-3.261 7.157-7.157 0-3.895-2.718-6.522-6.16-6.522-.726 0-1.54.09-1.813.271.816-3.261 4.168-7.066 7.067-8.606L179.33 1646c-5.617 3.895-9.331 9.965-9.331 16.76zm18.48 0c0 5.888 3.715 9.24 7.973 9.24 3.986 0 7.157-3.261 7.157-7.157 0-3.895-2.718-6.522-6.07-6.522-.725 0-1.54.09-1.812.271.725-3.261 4.167-7.066 7.066-8.606l-5.073-3.986c-5.616 3.895-9.24 9.965-9.24 16.76z" transform="translate(-170 -1646)" fill="url(#a)" fill-rule="evenodd"/></svg>