<svg width="195" height="39" viewBox="0 0 195 39" xmlns="http://www.w3.org/2000/svg" xmlns:xlink="http://www.w3.org/1999/xlink"><title>logo-subvisual</title><defs><path d="M9.695 3.292L7.766 4.42c-.36-.618-.704-1.02-1.03-1.208-.34-.215-.78-.322-1.317-.322-.66 0-1.208.184-1.643.553-.436.363-.653.82-.653 1.37 0 .758.571 1.369 1.714 1.832l1.572.634c1.279.51 2.214 1.133 2.806 1.868.592.735.888 1.636.888 2.703 0 1.43-.483 2.611-1.45 3.544-.972.94-2.18 1.41-3.622 1.41-1.367 0-2.497-.4-3.388-1.199C.765 14.807.218 13.682 0 12.233l2.408-.524c.11.913.3 1.544.572 1.893.49.671 1.204 1.007 2.143 1.007.741 0 1.357-.245 1.847-.735s.735-1.111.735-1.863c0-.302-.043-.579-.128-.83a2.1 2.1 0 0 0-.398-.695 3.17 3.17 0 0 0-.699-.594 6.767 6.767 0 0 0-1.02-.529L3.94 8.74C1.781 7.84.703 6.524.703 4.792c0-1.168.453-2.144 1.357-2.93.906-.79 2.032-1.186 3.38-1.186 1.817 0 3.235.872 4.256 2.617zM19.623.977v9.363c0 1.336.221 2.312.664 2.93.66.892 1.588 1.339 2.786 1.339 1.204 0 2.136-.447 2.796-1.34.442-.597.663-1.573.663-2.93V.978h2.378v10.007c0 1.638-.517 2.987-1.551 4.048-1.164 1.18-2.592 1.772-4.286 1.772-1.694 0-3.12-.591-4.276-1.772-1.034-1.06-1.551-2.41-1.551-4.048V.977h2.377zm17.338 15.545V.977h2.367c1.055 0 1.895.08 2.521.241.633.161 1.167.433 1.602.816.442.396.793.89 1.051 1.48.266.597.398 1.201.398 1.812 0 1.114-.432 2.057-1.296 2.83a3.803 3.803 0 0 1 1.98 1.48c.49.697.735 1.51.735 2.436 0 1.214-.436 2.241-1.306 3.08a4.297 4.297 0 0 1-1.766 1.078c-.714.194-1.609.292-2.684.292h-3.602zm2.378-8.87h.745c.884 0 1.532-.193 1.944-.58.411-.385.617-.954.617-1.706 0-.731-.21-1.287-.633-1.666-.422-.38-1.034-.569-1.837-.569h-.836v4.52zm0 6.665h1.47c1.074 0 1.863-.208 2.367-.624.53-.45.796-1.02.796-1.712 0-.671-.255-1.235-.766-1.691-.496-.45-1.384-.675-2.663-.675h-1.204v4.702zM53.788.977l4.357 10.772L62.565.977h2.602L58.094 17.69 51.186.977h2.602zm19.99 0v15.545h-2.377V.977h2.378zm16.97 2.315L88.82 4.42c-.36-.618-.704-1.02-1.03-1.208-.34-.215-.78-.322-1.317-.322-.66 0-1.208.184-1.643.553-.436.363-.653.82-.653 1.37 0 .758.571 1.369 1.714 1.832l1.572.634c1.279.51 2.214 1.133 2.806 1.868.592.735.888 1.636.888 2.703 0 1.43-.483 2.611-1.45 3.544-.972.94-2.18 1.41-3.622 1.41-1.367 0-2.497-.4-3.388-1.199-.878-.798-1.425-1.923-1.643-3.372l2.408-.524c.11.913.3 1.544.572 1.893.49.671 1.204 1.007 2.143 1.007.741 0 1.357-.245 1.847-.735s.735-1.111.735-1.863c0-.302-.043-.579-.128-.83a2.1 2.1 0 0 0-.398-.695 3.169 3.169 0 0 0-.699-.594 6.763 6.763 0 0 0-1.02-.529l-1.52-.624c-2.158-.9-3.236-2.215-3.236-3.947 0-1.168.453-2.144 1.357-2.93.905-.791 2.031-1.187 3.378-1.187 1.817 0 3.235.872 4.256 2.617zm9.93-2.315v9.363c0 1.336.22 2.312.663 2.93.66.892 1.588 1.339 2.786 1.339 1.204 0 2.136-.447 2.796-1.34.442-.597.663-1.573.663-2.93V.978h2.378v10.007c0 1.638-.517 2.987-1.551 4.048-1.164 1.18-2.592 1.772-4.286 1.772-1.694 0-3.12-.591-4.276-1.772-1.034-1.06-1.551-2.41-1.551-4.048V.977h2.377zm25.92 11.77h-6.746l-1.756 3.775h-2.561L123.332 0l7.52 16.522h-2.602l-1.653-3.776zm-.97-2.206l-2.337-5.285-2.45 5.285h4.787zM139.475.977v13.34h4.633v2.205h-7.01V.977h2.377z" id="a"/><path d="M.01 7.384L13.061.027l12.955 7.375v7.682L13.062 7.388v.001l-6.271 3.688 2.325-1.372L.009 7.384zm-.003.001L0 7.389v7.682l.007-.004V7.385zm17.29 21.672l-4.145 2.526v.021L.094 23.914v7.693l13.058 7.37v.01l12.971-7.631-8.826-2.3z" id="c"/><path id="e" d="M26.125 24.514L0 8.24V.553l26.125 16.274z"/></defs><g fill="none" fill-rule="evenodd"><g transform="translate(50.7 10.725)"><mask id="b" fill="#fff"><use xlink:href="#a"/></mask><path fill="#FFF" mask="url(#b)" d="M-4.875-4.875h153.858v27.44H-4.875z"/></g><mask id="d" fill="#fff"><use xlink:href="#c"/></mask><path fill="#FFF" mask="url(#d)" d="M-4.875-4.849h35.873v48.71H-4.875z"/><g transform="translate(0 6.825)"><mask id="f" fill="#fff"><use xlink:href="#e"/></mask><path fill="#FFF" mask="url(#f)" d="M-4.875-4.322H31v33.71H-4.875z"/></g></g></svg>