<svg xmlns="http://www.w3.org/2000/svg" width="19" height="16" viewBox="0 0 19 16">
  <defs>
    <linearGradient id="a" x1="0%" y1="0%" y2="100%">
      <stop stop-color="#FD7D57" offset="0%"/>
      <stop stop-color="#FA2471" offset="100%"/>
    </linearGradient>
  </defs>
  <path fill="url(#a)" fill-rule="evenodd" d="M76 513.893052c-.6993067.321243-1.4496527.539106-2.2380298.636371.8049866-.499744 1.4211837-1.292407 1.7132316-2.234025-.755096.462795-1.5885827.798843-2.4766789.981013C72.2873567 512.489895 71.2757913 512 70.153796 512c-2.1525297 0-3.8978315 1.80937-3.8978315 4.039693 0 .316318.0344298.625266.1009299.920697-3.2388844-.168652-6.1109005-1.777377-8.0331014-4.221895-.3360087.595753-.5271577 1.289929-.5271577 2.030934 0 1.401967.6886269 2.638982 1.7334424 3.362704-.6387674-.022143-1.2395347-.204313-1.7654817-.507114v.050467c0 1.957069 1.3440039 3.590416 3.126095 3.962158-.3265087.091085-.6708067.141552-1.0269951.141552-.2516884 0-.4950875-.025845-.7337365-.075089.4962671 1.606279 1.9352711 2.774354 3.6402134 2.806378-1.333324 1.08317-3.0145163 1.726911-4.8405373 1.726911-.3146182 0-.6245174-.019698-.9296355-.055391C58.7251221 527.330414 60.7731826 528 62.9743921 528c7.169966 0 11.0891881-6.156787 11.0891881-11.496257l-.0130703-.523111c.7657757-.566238 1.4282621-1.277666 1.9494901-2.08758z" transform="translate(-57 -512)"/>
</svg>
