<svg xmlns="http://www.w3.org/2000/svg" width="19" height="16" viewBox="0 0 19 16"><defs><linearGradient id="a" x1="0%" y1="0%" y2="100%"><stop stop-color="#FD7D57" offset="0%"/><stop stop-color="#FA2471" offset="100%"/></linearGradient></defs><path fill="url(#a)" fill-rule="evenodd" d="M76 513.893c-.7.321-1.45.54-2.238.636a4.035 4.035 0 0 0 1.713-2.234 7.691 7.691 0 0 1-2.476.981A3.824 3.824 0 0 0 70.154 512c-2.153 0-3.898 1.81-3.898 4.04 0 .316.034.625.1.92-3.238-.168-6.11-1.777-8.032-4.222a4.123 4.123 0 0 0-.527 2.031 4.08 4.08 0 0 0 1.733 3.363 3.794 3.794 0 0 1-1.765-.507v.05c0 1.958 1.344 3.59 3.126 3.963-.327.09-.671.141-1.027.141-.252 0-.495-.026-.734-.075.496 1.606 1.935 2.774 3.64 2.806a7.646 7.646 0 0 1-5.77 1.672A10.736 10.736 0 0 0 62.974 528c7.17 0 11.09-6.157 11.09-11.496l-.013-.523A7.946 7.946 0 0 0 76 513.893z" transform="translate(-57 -512)"/></svg>